<svg width="30" height="30" viewBox="0 0 30 30" fill="none" xmlns="http://www.w3.org/2000/svg">
<rect width="30" height="30" rx="8" fill="#7B61FF"/>
<path d="M9 20.6V9.4C9 9.29391 9.04214 9.19217 9.11716 9.11716C9.19217 9.04214 9.29391 9 9.4 9H20.6C20.7061 9 20.8078 9.04214 20.8828 9.11716C20.9579 9.19217 21 9.29391 21 9.4V20.6C21 20.7061 20.9579 20.8078 20.8828 20.8828C20.8078 20.9579 20.7061 21 20.6 21H9.4C9.29391 21 9.19217 20.9579 9.11716 20.8828C9.04214 20.8078 9 20.7061 9 20.6Z" stroke="white"/>
<path d="M11 19H19M15 16.3333V11M15 11L17.3333 13.3333M15 11L12.6667 13.3333" stroke="white" stroke-linecap="round" stroke-linejoin="round"/>
</svg>
