<svg width="12" height="12" viewBox="0 0 12 12" fill="none" xmlns="http://www.w3.org/2000/svg">
<path d="M10.2388 1.78471C9.25486 0.800539 7.94682 0.207474 6.55819 0.115946C5.16956 0.0244191 3.79499 0.440668 2.69042 1.28719C1.58585 2.13371 0.826564 3.35281 0.553942 4.71748C0.28132 6.08216 0.513941 7.49941 1.20849 8.70534L0.394531 11.6776L3.4361 10.8799C4.27738 11.338 5.22 11.578 6.1779 11.5781H6.18026C7.31488 11.5781 8.42402 11.2417 9.36746 10.6114C10.3109 9.98107 11.0463 9.08521 11.4807 8.03703C11.9151 6.98885 12.0289 5.83542 11.8079 4.72254C11.5868 3.60966 11.0408 2.58731 10.2388 1.78471ZM6.18073 10.6093H6.17885C5.32486 10.6095 4.48655 10.38 3.75171 9.94487L3.57759 9.8415L1.77273 10.3148L2.25445 8.55554L2.14104 8.37514C1.57911 7.47962 1.33071 6.42276 1.43489 5.37068C1.53906 4.3186 1.9899 3.33097 2.71654 2.56304C3.44318 1.79511 4.40441 1.29042 5.44913 1.12832C6.49386 0.966215 7.56283 1.15588 8.48801 1.66751C9.41319 2.17914 10.1421 2.98371 10.5602 3.95475C10.9783 4.92579 11.0618 6.00824 10.7977 7.03194C10.5336 8.05563 9.93674 8.96253 9.10103 9.61007C8.26531 10.2576 7.23811 10.6091 6.18088 10.6092L6.18073 10.6093ZM8.79563 7.03899C8.65226 6.9673 7.94747 6.62048 7.81602 6.57264C7.68457 6.52479 7.58904 6.50095 7.49351 6.64432C7.39798 6.78769 7.12316 7.11067 7.03955 7.2062C6.95594 7.30173 6.87234 7.31381 6.72896 7.24213C6.30629 7.07377 5.9162 6.83305 5.57618 6.53075C5.26275 6.24105 4.994 5.90649 4.77869 5.53797C4.69508 5.39444 4.76975 5.31695 4.84143 5.24542C4.9059 5.18126 4.98481 5.07805 5.05649 4.99444C5.11546 4.92201 5.16374 4.84151 5.19986 4.75538C5.2189 4.71585 5.22778 4.6722 5.2257 4.62838C5.22362 4.58456 5.21064 4.54195 5.18794 4.5044C5.15218 4.43271 4.86543 3.7273 4.7459 3.4404C4.62951 3.16087 4.51061 3.19868 4.42339 3.19444C4.33184 3.19054 4.24021 3.18886 4.14857 3.18942C4.07593 3.19132 4.00447 3.20823 3.93868 3.23909C3.87289 3.26994 3.8142 3.31408 3.7663 3.36871C3.60418 3.52221 3.47581 3.7078 3.38939 3.91365C3.30296 4.1195 3.26037 4.3411 3.26433 4.56432C3.26433 5.2702 3.77806 5.95115 3.84975 6.04683C3.92143 6.14252 4.86057 7.59005 6.29869 8.21154C6.5656 8.32652 6.8384 8.42731 7.11594 8.5135C7.40841 8.60235 7.71756 8.62179 8.01885 8.57028C8.2943 8.52918 8.867 8.22362 8.98653 7.88887C9.0803 7.67476 9.10936 7.43789 9.07014 7.20746C9.03422 7.14769 8.93869 7.11177 8.79532 7.04009L8.79563 7.03899Z" fill="white"/>
</svg>
