<svg width="23" height="24" viewBox="0 0 23 24" fill="none" xmlns="http://www.w3.org/2000/svg">
<path d="M12.4287 10.4248L9.43022 13.4234L9.10067 13.0938C8.51794 12.5112 7.5746 12.511 6.99183 13.0938C6.409 13.6766 6.40895 14.6199 6.99183 15.2027L9.06781 17.2787C9.26803 17.4788 9.59256 17.4788 9.79273 17.2787L14.5377 12.5337C15.1205 11.951 15.1206 11.0077 14.5377 10.4248C14.256 10.1432 13.0116 9.84195 12.4287 10.4248ZM13.8127 11.8087L9.43022 16.1913L7.71675 14.4778C7.53462 14.2956 7.53462 14.0009 7.71675 13.8188C7.89882 13.6368 8.19362 13.6367 8.37575 13.8188L9.06776 14.5108C9.26788 14.7109 9.59256 14.7109 9.79273 14.5108L13.1537 11.1497C13.3358 10.9677 13.6306 10.9675 13.8127 11.1497C13.9008 11.2378 13.9492 11.3548 13.9492 11.4793C13.9492 11.6037 13.9008 11.7207 13.8127 11.8087Z" fill="white"/>
<path d="M21.5292 17.9412C21.8123 17.9412 22.0418 17.7117 22.0418 17.4286C22.0418 17.1455 21.8123 16.916 21.5292 16.916C21.2461 16.916 21.0166 17.1455 21.0166 17.4286C21.0166 17.7117 21.2461 17.9412 21.5292 17.9412Z" fill="white"/>
<path d="M17.4286 22.5545C17.7117 22.5545 17.9412 22.325 17.9412 22.0419C17.9412 21.7588 17.7117 21.5293 17.4286 21.5293C17.1455 21.5293 16.916 21.7588 16.916 22.0419C16.916 22.325 17.1455 22.5545 17.4286 22.5545Z" fill="white"/>
<path d="M5.63858 23.0672C5.92168 23.0672 6.15118 22.8377 6.15118 22.5546C6.15118 22.2715 5.92168 22.042 5.63858 22.042C5.35548 22.042 5.12598 22.2715 5.12598 22.5546C5.12598 22.8377 5.35548 23.0672 5.63858 23.0672Z" fill="white"/>
<path d="M0.512601 16.4031C0.795703 16.4031 1.0252 16.1736 1.0252 15.8905C1.0252 15.6074 0.795703 15.3779 0.512601 15.3779C0.229499 15.3779 0 15.6074 0 15.8905C0 16.1736 0.229499 16.4031 0.512601 16.4031Z" fill="white"/>
<path d="M6.66397 1.5379C6.94707 1.5379 7.17657 1.3084 7.17657 1.0253C7.17657 0.742195 6.94707 0.512695 6.66397 0.512695C6.38087 0.512695 6.15137 0.742195 6.15137 1.0253C6.15137 1.3084 6.38087 1.5379 6.66397 1.5379Z" fill="white"/>
<path d="M0.512601 4.61358C0.795703 4.61358 1.0252 4.38408 1.0252 4.10098C1.0252 3.81788 0.795703 3.58838 0.512601 3.58838C0.229499 3.58838 0 3.81788 0 4.10098C0 4.38408 0.229499 4.61358 0.512601 4.61358Z" fill="white"/>
<path d="M21.5292 5.63848C21.8123 5.63848 22.0418 5.40898 22.0418 5.12588C22.0418 4.84278 21.8123 4.61328 21.5292 4.61328C21.2461 4.61328 21.0166 4.84278 21.0166 5.12588C21.0166 5.40898 21.2461 5.63848 21.5292 5.63848Z" fill="white"/>
<path d="M11.2772 10.2523C11.5604 10.2523 11.7899 10.0228 11.7899 9.73965C11.7899 9.45655 11.5604 9.22705 11.2772 9.22705C10.9941 9.22705 10.7646 9.45655 10.7646 9.73965C10.7646 10.0228 10.9941 10.2523 11.2772 10.2523Z" fill="white"/>
<path d="M19.6664 5.65915C19.6422 5.39947 19.4269 5.19924 19.1661 5.19412L16.8877 5.14911C14.8502 5.10887 13.2851 3.40734 13.1339 3.23742L11.1981 0.713369C10.9974 0.451737 10.5985 0.441741 10.3886 0.708089L8.39957 3.23368C8.26198 3.38899 6.69265 5.10862 4.6422 5.14911L2.36379 5.19412C2.10303 5.1993 1.88769 5.39947 1.86349 5.65915L1.31757 11.5274C1.00888 14.8463 2.49358 18.1236 5.19227 20.0802L10.4641 23.9024C10.6436 24.0325 10.8864 24.0326 11.0659 23.9024L16.3379 20.0802C19.0363 18.1237 20.5209 14.8464 20.2124 11.5274L19.6664 5.65915ZM15.7361 19.2502L10.765 22.8543L5.79401 19.2502C3.3872 17.5052 2.06305 14.5824 2.33836 11.6223L2.84189 6.21009L4.6625 6.17411C7.1704 6.12454 8.98203 4.12601 9.18036 3.89831C9.19533 3.88119 9.08619 4.01857 10.786 1.86062C12.175 3.67133 12.3344 3.88063 12.3515 3.90021C12.55 4.12775 14.3628 6.12469 16.8676 6.17411L18.6881 6.21009L19.1916 11.6222C19.4668 14.5824 18.1427 17.5052 15.7361 19.2502Z" fill="white"/>
<path d="M17.3377 8.16407C17.3135 7.90439 17.0982 7.70421 16.8374 7.69909C13.4761 7.63266 11.1847 4.88383 11.1624 4.85671C10.9573 4.60487 10.5724 4.60523 10.3676 4.85671C10.345 4.88445 8.06803 7.6324 4.6926 7.69909C4.43184 7.70427 4.2165 7.90439 4.19235 8.16407L3.85752 11.7632C3.63193 14.1891 4.7171 16.5845 6.68959 18.0145L10.4642 20.7512C10.6436 20.8813 10.8865 20.8813 11.066 20.7512L14.8406 18.0145C16.813 16.5844 17.8981 14.189 17.6725 11.7632L17.3377 8.16407ZM14.2387 17.1845L10.765 19.703L7.29133 17.1845C5.61067 15.966 4.68609 13.925 4.87831 11.8581L5.17204 8.70081C7.94331 8.47527 9.95097 6.76046 10.765 5.93774C11.5791 6.76052 13.5866 8.47527 16.358 8.70081L16.6516 11.8581C16.8439 13.9251 15.9193 15.966 14.2387 17.1845Z" fill="white"/>
<path d="M6.66397 10.2523H9.73958C10.0227 10.2523 10.2522 10.0228 10.2522 9.73965C10.2522 9.45659 10.0227 9.22705 9.73958 9.22705H6.66397C6.38086 9.22705 6.15137 9.45659 6.15137 9.73965C6.15137 10.0228 6.38086 10.2523 6.66397 10.2523Z" fill="white"/>
<path d="M8.71437 11.7899C8.99748 11.7899 9.22697 11.5604 9.22697 11.2772C9.22697 10.9942 8.99748 10.7646 8.71437 10.7646H6.66397C6.38086 10.7646 6.15137 10.9942 6.15137 11.2772C6.15137 11.5604 6.38086 11.7899 6.66397 11.7899H8.71437Z" fill="white"/>
<path d="M2.0505 19.9912C1.20255 19.9912 0.512695 20.6811 0.512695 21.529C0.512695 22.377 1.20255 23.0668 2.0505 23.0668C2.89844 23.0668 3.5883 22.377 3.5883 21.529C3.5883 20.6811 2.89844 19.9912 2.0505 19.9912ZM2.0505 22.0416C1.76785 22.0416 1.5379 21.8117 1.5379 21.529C1.5379 21.2464 1.76785 21.0164 2.0505 21.0164C2.33315 21.0164 2.5631 21.2464 2.5631 21.529C2.5631 21.8117 2.33315 22.0416 2.0505 22.0416Z" fill="white"/>
<path d="M17.4283 4.10081C18.5589 4.10081 19.4787 3.18105 19.4787 2.0504C19.4787 0.919811 18.5589 0 17.4283 0C16.2977 0 15.3779 0.919811 15.3779 2.0504C15.3779 3.18105 16.2977 4.10081 17.4283 4.10081ZM17.4283 1.0252C17.9936 1.0252 18.4535 1.48516 18.4535 2.0504C18.4535 2.6157 17.9936 3.07561 17.4283 3.07561C16.863 3.07561 16.4031 2.6157 16.4031 2.0504C16.4031 1.48516 16.863 1.0252 17.4283 1.0252Z" fill="white"/>
</svg>
