<svg width="48" height="21" viewBox="0 0 48 21" fill="none" xmlns="http://www.w3.org/2000/svg">
<path d="M9.07177 2.62489C9.63692 1.91827 10.0204 0.969576 9.91917 0C9.09188 0.0411187 8.0824 0.545628 7.49791 1.25277C6.97312 1.85833 6.50868 2.84686 6.62975 3.7757C7.55852 3.85613 8.48625 3.31167 9.07177 2.62489Z" fill="white"/>
<path d="M9.90867 3.95704C8.56007 3.87674 7.4134 4.72218 6.76947 4.72218C6.12515 4.72218 5.13888 3.99751 4.07215 4.01698C2.68384 4.03734 1.39559 4.82208 0.691051 6.0702C-0.757989 8.56697 0.308613 12.2705 1.71781 14.304C2.4021 15.3101 3.22681 16.4177 4.31352 16.378C5.34028 16.3378 5.74271 15.7134 6.99073 15.7134C8.23785 15.7134 8.6003 16.378 9.68727 16.3579C10.8144 16.3378 11.519 15.3513 12.2033 14.3443C12.9883 13.1975 13.3097 12.0902 13.33 12.0295C13.3097 12.0093 11.1566 11.1836 11.1367 8.7076C11.1163 6.63439 12.8271 5.64832 12.9077 5.58709C11.9416 4.15851 10.432 3.99738 9.90867 3.95704Z" fill="white"/>
<path d="M21.6514 1.14844C24.5826 1.14844 26.6236 3.16828 26.6236 6.10898C26.6236 9.06011 24.5406 11.0904 21.5779 11.0904H18.3326V16.2497H15.9878V1.14844H21.6514ZM18.3326 9.12289H21.0231C23.0646 9.12289 24.2264 8.02415 24.2264 6.11942C24.2264 4.21481 23.0645 3.12639 21.0335 3.12639H18.3326V9.12289Z" fill="white"/>
<path d="M27.2368 13.1179C27.2368 11.1922 28.7129 10.0097 31.3303 9.86313L34.3451 9.68525V8.83761C34.3451 7.61307 33.5181 6.88054 32.1364 6.88054C30.8276 6.88054 30.011 7.50827 29.8123 8.49216H27.6768C27.8024 6.50364 29.4982 5.03857 32.2201 5.03857C34.8896 5.03857 36.5959 6.45143 36.5959 8.65947V16.2467H34.4288V14.4362H34.3767C33.7382 15.6607 32.3457 16.435 30.9012 16.435C28.7444 16.4353 27.2368 15.0958 27.2368 13.1179ZM34.345 12.1238V11.2551L31.6335 11.4224C30.2829 11.5166 29.5188 12.1132 29.5188 13.055C29.5188 14.0177 30.3144 14.6457 31.5287 14.6457C33.1096 14.6458 34.345 13.5574 34.345 12.1238Z" fill="white"/>
<path d="M38.6405 20.2914V18.4599C38.8078 18.5017 39.1845 18.5017 39.3732 18.5017C40.4199 18.5017 40.9853 18.0623 41.3306 16.9321C41.3306 16.9111 41.5297 16.2623 41.5297 16.2519L37.5518 5.23193H40.0011L42.7861 14.1903H42.8278L45.6128 5.23193H47.9995L43.8745 16.8168C42.9327 19.4856 41.8439 20.3438 39.5618 20.3438C39.3732 20.3436 38.8078 20.3228 38.6405 20.2914Z" fill="white"/>
</svg>
