<svg width="20" height="15" viewBox="0 0 20 15" fill="none" xmlns="http://www.w3.org/2000/svg">
<path d="M19.7167 1.74188C19.7514 1.94557 19.7506 2.15486 19.7497 2.38684C19.7496 2.4242 19.7494 2.46214 19.7494 2.50075V2.50086V2.5012V2.50175V2.50253V2.50353V2.50476V2.50619V2.50785V2.50973V2.51182V2.51412V2.51664V2.51938V2.52232V2.52548V2.52885V2.53243V2.53622V2.54022V2.54443V2.54884V2.55346V2.55828V2.56331V2.56854V2.57397V2.5796V2.58544V2.59147V2.5977V2.60413V2.61076V2.61758V2.6246V2.63181V2.63922V2.64682V2.65461V2.66259V2.67077V2.67913V2.68768V2.69641V2.70534V2.71444V2.72374V2.73322V2.74288V2.75272V2.76274V2.77295V2.78333V2.79389V2.80463V2.81555V2.82664V2.83791V2.84935V2.86097V2.87276V2.88472V2.89685V2.90915V2.92162V2.93426V2.94706V2.96003V2.97317V2.98647V2.99994V3.01356V3.02735V3.04131V3.05542V3.06969V3.08412V3.0987V3.11345V3.12835V3.1434V3.15861V3.17397V3.18949V3.20515V3.22097V3.23693V3.25305V3.26931V3.28572V3.30228V3.31898V3.33582V3.35281V3.36995V3.38722V3.40464V3.42219V3.43988V3.45772V3.47569V3.49379V3.51204V3.53041V3.54893V3.56757V3.58635V3.60526V3.62429V3.64346V3.66276V3.68218V3.70173V3.72141V3.74122V3.76114V3.78119V3.80137V3.82166V3.84208V3.86261V3.88327V3.90404V3.92493V3.94594V3.96706V3.9883V4.00965V4.03111V4.05269V4.07438V4.09617V4.11808V4.1401V4.16222V4.18445V4.20679V4.22923V4.25177V4.27442V4.29717V4.32003V4.34298V4.36603V4.38918V4.41244V4.43578V4.45923V4.48277V4.5064V4.53013V4.55395V4.57786V4.60186V4.62596V4.65014V4.67441V4.69877V4.72321V4.74775V4.77236V4.79706V4.82185V4.84671V4.87166V4.89669V4.92179V4.94698V4.97224V4.99759V5.023V5.0485V5.07406V5.0997V5.12542V5.1512V5.17706V5.20298V5.22898V5.25504V5.28117V5.30737V5.33364V5.35996V5.38636V5.41281V5.43933V5.46591V5.49255V5.51924V5.546V5.57282V5.59969V5.62662V5.6536V5.68064V5.70773V5.73487V5.76206V5.78931V5.81661V5.84395V5.87134V5.89878V5.92627V5.9538V5.98138V6.009V6.03666V6.06437V6.09211V6.1199V6.14773V6.17559V6.2035V6.23143V6.25941V6.28742V6.31546V6.34354V6.37165V6.39979V6.42796V6.45617V6.4844V6.51266V6.54094V6.56925V6.59759V6.62595V6.65434V6.68275V6.71118V6.73963V6.7681V6.79659V6.8251V6.85363V6.88217V6.91073V6.9393V6.96789V6.99649V7.02511V7.05373V7.08237V7.11101V7.13967V7.16833V7.197V7.22567V7.25435V7.28303V7.31172V7.34041V7.36911V7.3978V7.42649V7.45518V7.48387V7.51256V7.54125V7.56993V7.5986V7.62727V7.65593V7.68458V7.71323V7.74186V7.77049V7.7991V7.8277V7.85629V7.88487V7.91342V7.94197V7.97049V7.999V8.02749V8.05597V8.08442V8.11285V8.14126V8.16964V8.198V8.22634V8.25465V8.28294V8.3112V8.33943V8.36763V8.3958V8.42394V8.45205V8.48013V8.50817V8.53619V8.56416V8.5921V8.62V8.64787V8.67569V8.70348V8.73123V8.75893V8.78659V8.81421V8.84179V8.86932V8.89681V8.92425V8.95164V8.97899V9.00628V9.03353V9.06072V9.08786V9.11496V9.14199V9.16898V9.1959V9.22277V9.24959V9.27635V9.30304V9.32968V9.35626V9.38278V9.40923V9.43563V9.46195V9.48822V9.51441V9.54054V9.56661V9.5926V9.61853V9.64439V9.67017V9.69588V9.72152V9.74709V9.77258V9.798V9.82334V9.84861V9.87379V9.8989V9.92393V9.94887V9.97374V9.99852V10.0232V10.0478V10.0724V10.0968V10.1212V10.1454V10.1696V10.1937V10.2177V10.2416V10.2655V10.2892V10.3128V10.3364V10.3598V10.3831V10.4064V10.4295V10.4526V10.4756V10.4984V10.5212V10.5438V10.5663V10.5888V10.6111V10.6334V10.6555V10.6775V10.6994V10.7212V10.7429V10.7645V10.7859V10.8073V10.8285V10.8496V10.8706V10.8915V10.9123V10.933V10.9535V10.9739V10.9942V11.0144V11.0344V11.0544V11.0742V11.0938V11.1134V11.1328V11.1521V11.1713V11.1903V11.2092V11.228V11.2466V11.2651V11.2835V11.3018V11.3199V11.3378V11.3557V11.3734V11.3909V11.4083V11.4256V11.4427V11.4597V11.4766V11.4933V11.5098V11.5262V11.5425V11.5586V11.5746V11.5904V11.6061V11.6216V11.6369V11.6522V11.6672V11.6821V11.6968V11.7114V11.7259V11.7401V11.7542V11.7682V11.782V11.7956V11.8091V11.8224V11.8355V11.8485V11.8613V11.8739V11.8864V11.8987V11.9108V11.9228V11.9346V11.9462V11.9576V11.9689V11.98V11.9909V12.0016V12.0122V12.0226V12.0328V12.0428V12.0527V12.0623V12.0718V12.0811V12.0902V12.0991V12.1079V12.1164V12.1248V12.1329V12.1409V12.1487V12.1563V12.1637V12.1709V12.1779V12.1848V12.1914V12.1978V12.2041V12.2101V12.2159V12.2216V12.227V12.2322V12.2372V12.2421V12.2467V12.2511V12.2553V12.2593V12.2631V12.2667V12.27V12.2732V12.2761V12.2789V12.2814V12.2837V12.2858V12.2877V12.2893V12.2908V12.292V12.293V12.2938V12.2943V12.2946C19.7494 12.2947 19.7494 12.2948 19.9994 12.2948H19.7494C19.7494 12.3333 19.7496 12.3712 19.7497 12.4085C19.7506 12.6404 19.7514 12.85 19.7167 13.0534L19.7166 13.0541C19.6795 13.276 19.5849 13.4758 19.4423 13.6272C19.3003 13.7781 19.1161 13.8753 18.916 13.9132L18.916 13.9132C18.7272 13.9489 18.5336 13.9482 18.3141 13.9473C18.2796 13.9471 18.2444 13.947 18.2084 13.947H1.79165C1.7555 13.947 1.72009 13.9471 1.68532 13.9473C1.46615 13.9482 1.27262 13.949 1.08419 13.9132C0.883829 13.8749 0.699632 13.7778 0.557519 13.6271C0.41534 13.4763 0.321124 13.2763 0.283232 13.0535L0.283226 13.0534C0.248639 12.8502 0.24946 12.6413 0.250371 12.4099C0.250519 12.3721 0.25067 12.3338 0.25067 12.2948V12.2946V12.2943V12.2938V12.293V12.292V12.2908V12.2893V12.2877V12.2858V12.2837V12.2814V12.2789V12.2761V12.2732V12.27V12.2667V12.2631V12.2593V12.2553V12.2511V12.2467V12.2421V12.2372V12.2322V12.227V12.2215V12.2159V12.2101V12.204V12.1978V12.1914V12.1848V12.1779V12.1709V12.1637V12.1563V12.1487V12.1409V12.1329V12.1248V12.1164V12.1078V12.0991V12.0902V12.0811V12.0718V12.0623V12.0526V12.0428V12.0328V12.0226V12.0122V12.0016V11.9909V11.98V11.9689V11.9576V11.9462V11.9346V11.9228V11.9108V11.8987V11.8864V11.8739V11.8613V11.8485V11.8355V11.8224V11.8091V11.7956V11.782V11.7682V11.7542V11.7401V11.7258V11.7114V11.6968V11.6821V11.6672V11.6521V11.6369V11.6216V11.606V11.5904V11.5746V11.5586V11.5425V11.5262V11.5098V11.4933V11.4766V11.4597V11.4427V11.4256V11.4083V11.3909V11.3733V11.3556V11.3378V11.3198V11.3017V11.2835V11.2651V11.2466V11.228V11.2092V11.1903V11.1712V11.1521V11.1328V11.1134V11.0938V11.0741V11.0543V11.0344V11.0143V10.9942V10.9739V10.9535V10.9329V10.9123V10.8915V10.8706V10.8496V10.8285V10.8072V10.7859V10.7644V10.7428V10.7212V10.6994V10.6775V10.6554V10.6333V10.6111V10.5888V10.5663V10.5438V10.5211V10.4984V10.4755V10.4526V10.4295V10.4064V10.3831V10.3598V10.3363V10.3128V10.2891V10.2654V10.2416V10.2177V10.1937V10.1696V10.1454V10.1211V10.0968V10.0723V10.0478V10.0232V9.99848V9.97369V9.94883V9.92388V9.89885V9.87375V9.84856V9.8233V9.79795V9.77254V9.74704V9.72148V9.69584V9.67012V9.64434V9.61848V9.59256V9.56656V9.5405V9.51437V9.48817V9.4619V9.43558V9.40918V9.38273V9.35621V9.32963V9.30299V9.2763V9.24954V9.22272V9.19585V9.16892V9.14194V9.1149V9.08781V9.06067V9.03347V9.00623V8.97893V8.95159V8.9242V8.89676V8.86927V8.84174V8.81416V8.78654V8.75888V8.73117V8.70342V8.67564V8.64781V8.61995V8.59204V8.5641V8.53613V8.50812V8.48007V8.452V8.42389V8.39575V8.36757V8.33937V8.31114V8.28288V8.2546V8.22628V8.19795V8.16958V8.1412V8.11279V8.08436V8.05591V8.02744V7.99894V7.97044V7.94191V7.91336V7.88481V7.85623V7.82764V7.79904V7.77043V7.7418V7.71317V7.68452V7.65587V7.62721V7.59854V7.56986V7.54118V7.5125V7.48381V7.45512V7.42643V7.39774V7.36904V7.34035V7.31166V7.28297V7.25429V7.22561V7.19693V7.16826V7.1396V7.11095V7.0823V7.05367V7.02504V6.99643V6.96783V6.93924V6.91067V6.88211V6.85356V6.82504V6.79653V6.76804V6.73957V6.71111V6.68268V6.65427V6.62589V6.59753V6.56919V6.54088V6.51259V6.48433V6.4561V6.4279V6.39973V6.37159V6.34348V6.3154V6.28735V6.25934V6.23137V6.20343V6.17553V6.14766V6.11984V6.09205V6.0643V6.0366V6.00893V5.98131V5.95374V5.9262V5.89872V5.87128V5.84388V5.81654V5.78924V5.762V5.7348V5.70766V5.68057V5.65353V5.62655V5.59962V5.57275V5.54594V5.51918V5.49248V5.46584V5.43926V5.41275V5.38629V5.3599V5.33357V5.30731V5.28111V5.25498V5.22892V5.20292V5.17699V5.15114V5.12535V5.09964V5.074V5.04843V5.02294V4.99752V4.97218V4.94692V4.92173V4.89662V4.87159V4.84665V4.82178V4.797V4.7723V4.74768V4.72315V4.69871V4.67435V4.65008V4.62589V4.6018V4.5778V4.55388V4.53006V4.50634V4.4827V4.45916V4.43572V4.41237V4.38912V4.36597V4.34292V4.31997V4.29711V4.27436V4.25171V4.22917V4.20673V4.18439V4.16216V4.14004V4.11802V4.09612V4.07432V4.05263V4.03106V4.00959V3.98824V3.967V3.94588V3.92487V3.90398V3.88321V3.86256V3.84202V3.82161V3.80131V3.78114V3.76109V3.74116V3.72136V3.70168V3.68213V3.6627V3.64341V3.62424V3.6052V3.58629V3.56752V3.54887V3.53036V3.51199V3.49374V3.47564V3.45767V3.43983V3.42214V3.40459V3.38717V3.3699V3.35276V3.33578V3.31893V3.30223V3.28567V3.26926V3.253V3.23689V3.22092V3.20511V3.18944V3.17393V3.15857V3.14336V3.1283V3.1134V3.09866V3.08407V3.06965V3.05538V3.04126V3.02731V3.01352V2.9999V2.98643V2.97313V2.95999V2.94702V2.93422V2.92158V2.90911V2.89681V2.88468V2.87272V2.86094V2.84932V2.83788V2.82661V2.81552V2.8046V2.79386V2.7833V2.77292V2.76271V2.75269V2.74285V2.73319V2.72371V2.71442V2.70531V2.69639V2.68765V2.6791V2.67074V2.66257V2.65459V2.6468V2.6392V2.63179V2.62458V2.61756V2.61074V2.60411V2.59768V2.59145V2.58542V2.57958V2.57395V2.56852V2.56329V2.55826V2.55344V2.54882V2.54441V2.54021V2.53621V2.53242V2.52884V2.52547V2.52232V2.51937V2.51664V2.51412V2.51181V2.50972V2.50785V2.50619V2.50475V2.50353V2.50253V2.50175V2.50119V2.50086C0.25067 2.50078 0.25067 2.50075 0.000669775 2.50075H0.25067C0.25067 2.46184 0.250521 2.42361 0.250374 2.38596C0.24947 2.15434 0.248654 1.94525 0.283234 1.74185L0.283311 1.7414C0.320709 1.51895 0.415 1.31967 0.557686 1.16805C0.699693 1.01715 0.883306 0.920655 1.08448 0.882241L1.08449 0.882239C1.27251 0.846331 1.46526 0.847131 1.68412 0.848039C1.71925 0.848185 1.75505 0.848333 1.79161 0.848333H18.2084C18.2447 0.848333 18.2803 0.848188 18.3152 0.848045C18.5343 0.84715 18.7273 0.846362 18.9158 0.882263L18.9625 0.636736L18.9158 0.882264C19.1164 0.920475 19.3006 1.01729 19.4422 1.16793L19.4422 1.16795C19.5839 1.31866 19.679 1.52006 19.7167 1.74188ZM19.7167 1.74188L19.9632 1.69995L19.7167 1.74191C19.7167 1.7419 19.7167 1.74189 19.7167 1.74188Z" fill="white" stroke="black" stroke-width="0.5"/>
<path d="M5.46019 4.90083C5.63143 4.68672 5.74762 4.39926 5.71695 4.10547C5.46628 4.11793 5.1604 4.2708 4.98329 4.48507C4.82428 4.66856 4.68355 4.96809 4.72023 5.24954C5.00166 5.27391 5.28277 5.10893 5.46019 4.90083Z" fill="black"/>
<path d="M5.71383 5.30436C5.3052 5.28003 4.95775 5.53621 4.76263 5.53621C4.56739 5.53621 4.26855 5.31663 3.94532 5.32253C3.52465 5.3287 3.1343 5.56648 2.92082 5.94467C2.48175 6.70121 2.80494 7.82341 3.23194 8.43958C3.43928 8.74442 3.68917 9.08004 4.01846 9.06801C4.32957 9.05582 4.45151 8.86663 4.82967 8.86663C5.20756 8.86663 5.31739 9.06801 5.64675 9.06192C5.98826 9.05582 6.20178 8.75692 6.40913 8.4518C6.64699 8.10431 6.74439 7.76877 6.75052 7.75037C6.74439 7.74428 6.09195 7.49408 6.08594 6.74382C6.07976 6.11562 6.59815 5.81684 6.62257 5.79828C6.32981 5.36541 5.87242 5.31659 5.71383 5.30436Z" fill="black"/>
<path d="M9.27178 4.45508C10.16 4.45508 10.7784 5.06711 10.7784 5.95816C10.7784 6.85238 10.1472 7.46757 9.24951 7.46757H8.26616V9.03088H7.55566V4.45508H9.27178ZM8.26616 6.8714H9.08139C9.69999 6.8714 10.052 6.53848 10.052 5.96132C10.052 5.38421 9.69995 5.05441 9.08456 5.05441H8.26616V6.8714Z" fill="black"/>
<path d="M10.9639 8.08239C10.9639 7.49888 11.4111 7.14056 12.2042 7.09616L13.1177 7.04226V6.78542C13.1177 6.41437 12.8671 6.19241 12.4485 6.19241C12.0519 6.19241 11.8045 6.38262 11.7443 6.68074H11.0972C11.1352 6.0782 11.6491 5.63428 12.4739 5.63428C13.2827 5.63428 13.7997 6.06239 13.7997 6.73144V9.03043H13.1431V8.48183H13.1273C12.9338 8.85288 12.5119 9.0875 12.0742 9.0875C11.4207 9.08757 10.9639 8.68169 10.9639 8.08239ZM13.1177 7.78114V7.51794L12.2961 7.56863C11.8869 7.59718 11.6553 7.77794 11.6553 8.06333C11.6553 8.35501 11.8964 8.5453 12.2644 8.5453C12.7434 8.54534 13.1177 8.21554 13.1177 7.78114Z" fill="black"/>
<path d="M14.4198 10.2575V9.70252C14.4704 9.71517 14.5846 9.71517 14.6417 9.71517C14.9589 9.71517 15.1302 9.58203 15.2349 9.23957C15.2349 9.23321 15.2952 9.03663 15.2952 9.03347L14.0898 5.69434H14.832L15.6759 8.40878H15.6885L16.5324 5.69434H17.2556L16.0057 9.20466C15.7203 10.0133 15.3904 10.2733 14.6989 10.2733C14.6417 10.2733 14.4704 10.267 14.4198 10.2575Z" fill="black"/>
</svg>
