<svg width="20" height="14" viewBox="0 0 20 14" fill="none" xmlns="http://www.w3.org/2000/svg">
<path d="M18.8 0.200195H1.2C0.538398 0.200195 0 0.738594 0 1.4002V12.6002C0 13.2618 0.538398 13.8002 1.2 13.8002H18.8C19.4616 13.8002 20 13.2618 20 12.6002V1.4002C20 0.738594 19.4616 0.200195 18.8 0.200195ZM19.2 12.6002C19.2 12.8202 19.02 13.0002 18.8 13.0002H1.2C0.979219 13.0002 0.8 12.8202 0.8 12.6002V1.4002C0.8 1.17937 0.979219 1.0002 1.2 1.0002H18.8C19.02 1.0002 19.2 1.17937 19.2 1.4002V12.6002Z" fill="black"/>
<path d="M19.5999 3.80029H0.399902V5.40029H19.5999V3.80029Z" fill="black"/>
<path d="M19.6 3.40039H0.4C0.179219 3.40039 0 3.57957 0 3.80039V5.40039C0 5.62121 0.179219 5.80039 0.4 5.80039H19.6C19.8208 5.80039 20 5.62121 20 5.40039V3.80039C20 3.57957 19.8208 3.40039 19.6 3.40039ZM19.2 5.00039H0.8V4.20039H19.2V5.00039Z" fill="black"/>
<path d="M10.8002 8.2002H3.6002C3.37941 8.2002 3.2002 8.37941 3.2002 8.60019C3.2002 8.82098 3.37941 9.0002 3.6002 9.0002H10.8002C11.021 9.0002 11.2002 8.82098 11.2002 8.60019C11.2002 8.37937 11.021 8.2002 10.8002 8.2002Z" fill="black"/>
<path d="M7.6002 9.80029H3.6002C3.37941 9.80029 3.2002 9.97951 3.2002 10.2003C3.2002 10.4211 3.37941 10.6003 3.6002 10.6003H7.6002C7.82098 10.6003 8.0002 10.4211 8.0002 10.2003C8.0002 9.97951 7.82098 9.80029 7.6002 9.80029Z" fill="black"/>
</svg>
