<svg width="11" height="14" viewBox="0 0 11 14" fill="none" xmlns="http://www.w3.org/2000/svg">
<path d="M10.1151 6.58647C10.0794 6.4384 10.013 6.29543 9.91855 6.16779C9.82409 6.04269 9.699 5.93547 9.55603 5.85377C9.35946 5.74144 9.1399 5.68783 8.92546 5.68783C8.71611 5.68783 8.50677 5.73889 8.3204 5.84611C8.22594 5.89973 8.13914 5.9661 8.06256 6.04524C7.98597 6.12439 7.91704 6.21629 7.86342 6.31841C7.85577 6.33373 7.85321 6.33628 7.84811 6.3516L7.70004 6.70901V3.03786C7.70004 2.86937 7.66685 2.70853 7.60302 2.56046C7.50856 2.34091 7.35539 2.15454 7.15881 2.02179C7.0618 1.95541 6.95202 1.90435 6.83714 1.86861C6.72225 1.83287 6.59971 1.81244 6.47206 1.81244C6.3291 1.81244 6.19379 1.83542 6.06614 1.88137V1.81244C6.06614 1.64395 6.03296 1.48311 5.96913 1.33504C5.87467 1.11549 5.7215 0.929122 5.52492 0.796368C5.42791 0.729991 5.31813 0.678932 5.20325 0.643191C5.08581 0.604896 4.96327 0.584473 4.83817 0.584473C4.66968 0.584473 4.50884 0.617661 4.36077 0.681485C4.14122 0.775944 3.95485 0.929122 3.8221 1.1257C3.75572 1.22271 3.70466 1.33249 3.66892 1.44737C3.66381 1.46269 3.66126 1.47545 3.65615 1.49077C3.62807 1.48056 3.59744 1.47035 3.56935 1.46014C3.45447 1.4244 3.33193 1.40397 3.20428 1.40397C3.03579 1.40397 2.87495 1.43716 2.72688 1.50098C2.50732 1.59544 2.32096 1.74862 2.1882 1.9452C2.12183 2.04221 2.07077 2.15199 2.03503 2.26687C1.99929 2.38175 1.97886 2.5043 1.97886 2.63194V3.10679C1.96354 3.10169 1.95078 3.09658 1.93546 3.09148C1.82058 3.05573 1.69804 3.03531 1.57039 3.03531C1.40189 3.03531 1.24106 3.0685 1.09299 3.13232C0.873433 3.22678 0.687067 3.37996 0.554313 3.57654C0.487936 3.67355 0.436877 3.78333 0.401136 3.89821C0.365394 4.01309 0.344971 4.13563 0.344971 4.26328V8.75648C0.344971 9.54279 0.452195 10.2398 0.656431 10.8499C0.809609 11.3069 1.01895 11.7154 1.2768 12.0677C1.47082 12.3306 1.69038 12.5655 1.93546 12.7646C2.30309 13.0633 2.72177 13.288 3.1762 13.4361C3.63062 13.5841 4.12079 13.6556 4.63394 13.6556C5.22622 13.6556 5.74192 13.5892 6.19379 13.4641C6.53334 13.3697 6.83458 13.242 7.10264 13.0863C7.50346 12.8514 7.82768 12.5553 8.08298 12.2234C8.34083 11.8915 8.5323 11.529 8.68803 11.1588L8.69569 11.1409L10.0411 7.46469C10.11 7.27577 10.1509 7.08174 10.1509 6.88517C10.1509 6.7856 10.1407 6.68348 10.1151 6.58647ZM9.27521 7.18386L7.93491 10.8422C7.81492 11.1307 7.67451 11.3962 7.50346 11.6337C7.37581 11.8124 7.23029 11.9732 7.0618 12.1162C6.80905 12.3306 6.5027 12.5093 6.10954 12.6344C5.71639 12.7621 5.23388 12.8361 4.63649 12.8361C4.12079 12.8361 3.6485 12.7493 3.23492 12.5834C2.92346 12.4583 2.64263 12.2898 2.39244 12.0753C2.20608 11.9145 2.03758 11.7256 1.88696 11.5111C1.6623 11.1869 1.48359 10.7988 1.35849 10.3393C1.2334 9.87978 1.16447 9.35132 1.16447 8.75138C1.16447 8.73606 1.16447 8.72074 1.16192 8.70798V4.26073C1.16192 4.20201 1.17213 4.15095 1.19511 4.10245C1.22574 4.02841 1.27935 3.96714 1.34318 3.92119C1.37636 3.89821 1.41211 3.88289 1.4504 3.87013C1.48869 3.85736 1.52954 3.85226 1.57294 3.85226C1.63166 3.85226 1.68272 3.86247 1.73123 3.88544C1.80526 3.91608 1.86653 3.96969 1.91249 4.03352C1.93546 4.0667 1.95078 4.10245 1.96354 4.14074C1.9712 4.16372 1.97631 4.18925 1.97886 4.21478V7.12515C1.97886 7.34981 2.16268 7.53362 2.38734 7.53362C2.45882 7.53362 2.52519 7.51575 2.58136 7.48256C2.70901 7.41363 2.79836 7.27832 2.79836 7.12259V4.26073C2.79836 4.2352 2.79836 4.20967 2.79581 4.18414V2.62684C2.79581 2.56812 2.80602 2.51706 2.829 2.46855C2.85963 2.39452 2.91324 2.33325 2.97707 2.28729C3.01026 2.26432 3.046 2.249 3.08429 2.23623C3.12259 2.22347 3.16343 2.21836 3.20683 2.21836C3.26555 2.21836 3.31661 2.22858 3.36512 2.25155C3.43915 2.28219 3.50042 2.3358 3.54638 2.39962C3.56935 2.43281 3.58467 2.46855 3.59744 2.50685C3.60509 2.52982 3.6102 2.55535 3.61275 2.58088V6.71412C3.61275 6.93878 3.79657 7.12259 4.02123 7.12259C4.02123 7.12259 4.02123 7.12259 4.02378 7.12259C4.24844 7.12259 4.43225 6.93878 4.43225 6.71412V2.62939C4.43225 2.60386 4.43225 2.57833 4.4297 2.5528V1.80989C4.4297 1.75117 4.43991 1.70011 4.46289 1.65161C4.49352 1.57757 4.54714 1.5163 4.61096 1.47035C4.64415 1.44737 4.67989 1.43205 4.71818 1.41929C4.75648 1.40652 4.79733 1.40142 4.84073 1.40142C4.89944 1.40142 4.9505 1.41163 4.99901 1.43461C5.07304 1.46524 5.13432 1.51885 5.18027 1.58268C5.20325 1.61587 5.21856 1.65161 5.23133 1.6899C5.24409 1.7282 5.2492 1.76904 5.2492 1.81244V2.96638C5.24665 2.99191 5.24665 3.01489 5.24665 3.04042V6.7422C5.24665 6.96686 5.43046 7.15067 5.65512 7.15067C5.86957 7.14557 6.04572 6.97963 6.06104 6.77028C6.06359 6.75241 6.06614 6.73454 6.06614 6.71412V2.98936C6.07125 2.94851 6.07891 2.91277 6.09678 2.87703C6.12741 2.80299 6.18103 2.74172 6.24485 2.69577C6.27804 2.67279 6.31378 2.65747 6.35208 2.64471C6.39037 2.63194 6.43122 2.62684 6.47462 2.62684C6.53334 2.62684 6.58439 2.63705 6.6329 2.66003C6.70694 2.69066 6.76821 2.74427 6.81416 2.8081C6.83714 2.84129 6.85245 2.87703 6.86522 2.91532C6.87798 2.95362 6.88309 2.99446 6.88309 3.03786V8.75648C6.88309 8.98114 7.0669 9.16496 7.29156 9.16496C7.46516 9.16496 7.61324 9.05518 7.67195 8.902L8.58591 6.6988C8.60378 6.66817 8.62165 6.64264 8.64208 6.61966C8.67526 6.58392 8.71867 6.55839 8.76462 6.53796C8.81312 6.51754 8.86674 6.50733 8.9229 6.50733C8.99949 6.50733 9.07863 6.52775 9.15011 6.5686C9.18841 6.58902 9.21649 6.612 9.23691 6.63242C9.2701 6.66561 9.29053 6.69625 9.30585 6.7371C9.32116 6.77794 9.33137 6.82645 9.33137 6.88772C9.33393 6.96686 9.31606 7.06898 9.27521 7.18386Z" fill="white"/>
</svg>
