<svg width="15" height="15" viewBox="0 0 15 15" fill="none" xmlns="http://www.w3.org/2000/svg">
<g clip-path="url(#clip0_2398_36009)">
<path d="M8.74976 7.49921L6.56226 8.74921V6.24921L8.74976 7.49921Z" fill="#7B61FF" stroke="#7B61FF" stroke-width="1.5" stroke-linecap="round" stroke-linejoin="round"/>
<path d="M1.24999 7.94127V7.05684C1.24999 5.24724 1.24999 4.34246 1.81592 3.76029C2.38186 3.17812 3.27284 3.15292 5.05479 3.10252C5.89919 3.07864 6.76174 3.06152 7.49999 3.06152C8.23824 3.06152 9.1008 3.07864 9.94517 3.10252C11.7271 3.15292 12.6181 3.17812 13.184 3.76029C13.75 4.34246 13.75 5.24724 13.75 7.05684V7.94127C13.75 9.75083 13.75 10.6556 13.184 11.2378C12.6181 11.82 11.7272 11.8451 9.94524 11.8956C9.1008 11.9195 8.23824 11.9366 7.49999 11.9366C6.76174 11.9366 5.89916 11.9195 5.05474 11.8956C3.27281 11.8451 2.38185 11.82 1.81591 11.2378C1.24999 10.6556 1.24999 9.75083 1.24999 7.94127Z" stroke="#7B61FF" stroke-width="1.5"/>
</g>
<defs>
<clipPath id="clip0_2398_36009">
<rect width="14.88" height="14.88" fill="white" transform="scale(1.00806)"/>
</clipPath>
</defs>
</svg>
