<svg width="20" height="14" viewBox="0 0 20 14" fill="none" xmlns="http://www.w3.org/2000/svg">
<path d="M18.8 0H1.2C0.538398 0 0 0.538398 0 1.2V12.4C0 13.0616 0.538398 13.6 1.2 13.6H18.8C19.4616 13.6 20 13.0616 20 12.4V1.2C20 0.538398 19.4616 0 18.8 0ZM19.2 12.4C19.2 12.62 19.02 12.8 18.8 12.8H1.2C0.979219 12.8 0.8 12.62 0.8 12.4V1.2C0.8 0.979179 0.979219 0.8 1.2 0.8H18.8C19.02 0.8 19.2 0.979179 19.2 1.2V12.4Z" fill="black"/>
<path d="M19.6004 3.60001H0.400391V5.20001H19.6004V3.60001Z" fill="black"/>
<path d="M19.6 3.2H0.4C0.179219 3.2 0 3.37918 0 3.6V5.2C0 5.42082 0.179219 5.6 0.4 5.6H19.6C19.8208 5.6 20 5.42082 20 5.2V3.6C20 3.37918 19.8208 3.2 19.6 3.2ZM19.2 4.8H0.8V4H19.2V4.8Z" fill="black"/>
<path d="M10.8002 8H3.6002C3.37941 8 3.2002 8.17922 3.2002 8.4C3.2002 8.62078 3.37941 8.8 3.6002 8.8H10.8002C11.021 8.8 11.2002 8.62078 11.2002 8.4C11.2002 8.17918 11.021 8 10.8002 8Z" fill="black"/>
<path d="M7.6002 9.60001H3.6002C3.37941 9.60001 3.2002 9.77923 3.2002 10C3.2002 10.2208 3.37941 10.4 3.6002 10.4H7.6002C7.82098 10.4 8.0002 10.2208 8.0002 10C8.0002 9.77923 7.82098 9.60001 7.6002 9.60001Z" fill="black"/>
</svg>
