<svg width="8" height="11" viewBox="0 0 8 11" fill="none" xmlns="http://www.w3.org/2000/svg">
<path d="M7.84646 5.80242L0.535927 10.9391C0.483993 10.9755 0.423658 10.9964 0.361348 10.9996C0.299038 11.0027 0.237085 10.988 0.18209 10.957C0.127095 10.9259 0.0811157 10.8798 0.0490497 10.8234C0.0169838 10.767 3.22248e-05 10.7025 0 10.6367V0.363293C3.22248e-05 0.297545 0.0169838 0.233038 0.0490497 0.176641C0.0811157 0.120244 0.127095 0.0740701 0.18209 0.043037C0.237085 0.0120039 0.299038 -0.00272637 0.361348 0.000415263C0.423658 0.0035569 0.483993 0.0244529 0.535927 0.0608773L7.84646 5.19758C7.89369 5.23078 7.93242 5.27575 7.9592 5.3285C7.98599 5.38126 8 5.44017 8 5.5C8 5.55983 7.98599 5.61874 7.9592 5.6715C7.93242 5.72425 7.89369 5.76922 7.84646 5.80242Z" fill="black"/>
</svg>
