<svg width="20" height="20" viewBox="0 0 20 20" fill="none" xmlns="http://www.w3.org/2000/svg">
<path d="M11.3137 14.3937L7.05541 12.0712C6.64666 12.4769 6.12692 12.7525 5.56174 12.8633C4.99655 12.9741 4.41121 12.9151 3.87952 12.6937C3.34782 12.4723 2.89357 12.0985 2.57404 11.6193C2.2545 11.1401 2.08398 10.5771 2.08398 10.0012C2.08398 9.42521 2.2545 8.86215 2.57404 8.38298C2.89357 7.9038 3.34782 7.52995 3.87952 7.30857C4.41121 7.08718 4.99655 7.02817 5.56174 7.13896C6.12692 7.24976 6.64666 7.5254 7.05541 7.93115L11.3137 5.60865C11.1677 4.92343 11.2732 4.20853 11.6109 3.5947C11.9486 2.98086 12.496 2.50909 13.153 2.26568C13.81 2.02226 14.5326 2.02346 15.1888 2.26906C15.8449 2.51465 16.3907 2.98822 16.7264 3.60318C17.0621 4.21814 17.1652 4.93338 17.0169 5.61811C16.8686 6.30284 16.4787 6.91131 15.9187 7.33224C15.3586 7.75316 14.6657 7.95842 13.9668 7.91048C13.2678 7.86254 12.6094 7.5646 12.1121 7.07115L7.85375 9.39365C7.93869 9.7942 7.93869 10.2081 7.85375 10.6087L12.1121 12.9312C12.6094 12.4377 13.2678 12.1398 13.9668 12.0918C14.6657 12.0439 15.3586 12.2491 15.9187 12.6701C16.4787 13.091 16.8686 13.6995 17.0169 14.3842C17.1652 15.0689 17.0621 15.7842 16.7264 16.3991C16.3907 17.0141 15.8449 17.4877 15.1888 17.7332C14.5326 17.9788 13.81 17.98 13.153 17.7366C12.496 17.4932 11.9486 17.0214 11.6109 16.4076C11.2732 15.7938 11.1677 15.0789 11.3137 14.3937Z" fill="white"/>
</svg>
