<svg width="13" height="16" viewBox="0 0 13 16" fill="none" xmlns="http://www.w3.org/2000/svg">
<path d="M11.9594 7.34688C11.9156 7.16563 11.8344 6.99062 11.7188 6.83437C11.6031 6.68125 11.45 6.55 11.275 6.45C11.0344 6.3125 10.7656 6.24687 10.5031 6.24687C10.2469 6.24687 9.99063 6.30938 9.7625 6.44063C9.64688 6.50625 9.54063 6.5875 9.44688 6.68437C9.35313 6.78125 9.26875 6.89375 9.20313 7.01875C9.19375 7.0375 9.19063 7.04062 9.18438 7.05937L9.00313 7.49687V3.00312C9.00313 2.79688 8.9625 2.6 8.88438 2.41875C8.76875 2.15 8.58125 1.92188 8.34063 1.75937C8.22188 1.67813 8.0875 1.61563 7.94688 1.57187C7.80625 1.52812 7.65625 1.50312 7.5 1.50312C7.325 1.50312 7.15938 1.53125 7.00313 1.5875V1.50312C7.00313 1.29688 6.9625 1.1 6.88438 0.91875C6.76875 0.65 6.58125 0.421875 6.34063 0.259375C6.22188 0.178125 6.0875 0.115625 5.94688 0.071875C5.80313 0.025 5.65313 0 5.5 0C5.29375 0 5.09688 0.040625 4.91563 0.11875C4.64688 0.234375 4.41875 0.421875 4.25625 0.6625C4.175 0.78125 4.1125 0.915625 4.06875 1.05625C4.0625 1.075 4.05938 1.09063 4.05313 1.10938C4.01875 1.09687 3.98125 1.08438 3.94688 1.07187C3.80625 1.02812 3.65625 1.00312 3.5 1.00312C3.29375 1.00312 3.09688 1.04375 2.91563 1.12188C2.64688 1.2375 2.41875 1.425 2.25625 1.66562C2.175 1.78437 2.1125 1.91875 2.06875 2.05938C2.025 2.2 2 2.35 2 2.50625V3.0875C1.98125 3.08125 1.96563 3.075 1.94688 3.06875C1.80625 3.025 1.65625 3 1.5 3C1.29375 3 1.09688 3.04063 0.915625 3.11875C0.646875 3.23438 0.41875 3.42188 0.25625 3.6625C0.175 3.78125 0.1125 3.91563 0.0687499 4.05625C0.0249999 4.19688 0 4.34688 0 4.50313V10.0031C0 10.9656 0.13125 11.8188 0.38125 12.5656C0.56875 13.125 0.825 13.625 1.14063 14.0562C1.37813 14.3781 1.64688 14.6656 1.94688 14.9094C2.39688 15.275 2.90938 15.55 3.46563 15.7312C4.02188 15.9125 4.62188 16 5.25 16C5.975 16 6.60625 15.9187 7.15938 15.7656C7.575 15.65 7.94375 15.4938 8.27188 15.3031C8.7625 15.0156 9.15938 14.6531 9.47188 14.2469C9.7875 13.8406 10.0219 13.3969 10.2125 12.9438L10.2219 12.9219L11.8688 8.42188C11.9531 8.19063 12.0031 7.95312 12.0031 7.7125C12.0031 7.59063 11.9906 7.46563 11.9594 7.34688ZM10.9313 8.07812L9.29063 12.5562C9.14375 12.9094 8.97188 13.2344 8.7625 13.525C8.60625 13.7437 8.42813 13.9406 8.22188 14.1156C7.9125 14.3781 7.5375 14.5969 7.05625 14.75C6.575 14.9062 5.98438 14.9969 5.25313 14.9969C4.62188 14.9969 4.04375 14.8906 3.5375 14.6875C3.15625 14.5344 2.8125 14.3281 2.50625 14.0656C2.27813 13.8688 2.07188 13.6375 1.8875 13.375C1.6125 12.9781 1.39375 12.5031 1.24063 11.9406C1.0875 11.3781 1.00313 10.7312 1.00313 9.99687C1.00313 9.97812 1.00313 9.95938 1 9.94375V4.5C1 4.42812 1.0125 4.36562 1.04063 4.30625C1.07813 4.21563 1.14375 4.14062 1.22188 4.08437C1.2625 4.05625 1.30625 4.0375 1.35313 4.02187C1.4 4.00625 1.45 4 1.50313 4C1.575 4 1.6375 4.0125 1.69688 4.04063C1.7875 4.07812 1.8625 4.14375 1.91875 4.22188C1.94688 4.2625 1.96563 4.30625 1.98125 4.35313C1.99063 4.38125 1.99688 4.4125 2 4.44375V8.00625C2 8.28125 2.225 8.50625 2.5 8.50625C2.5875 8.50625 2.66875 8.48438 2.7375 8.44375C2.89375 8.35938 3.00313 8.19375 3.00313 8.00313V4.5C3.00313 4.46875 3.00313 4.4375 3 4.40625V2.5C3 2.42812 3.0125 2.36563 3.04063 2.30625C3.07813 2.21563 3.14375 2.14062 3.22188 2.08437C3.2625 2.05625 3.30625 2.0375 3.35313 2.02187C3.4 2.00625 3.45 2 3.50313 2C3.575 2 3.6375 2.0125 3.69688 2.04063C3.7875 2.07812 3.8625 2.14375 3.91875 2.22187C3.94688 2.2625 3.96563 2.30625 3.98125 2.35313C3.99063 2.38125 3.99688 2.4125 4 2.44375V7.50313C4 7.77813 4.225 8.00313 4.5 8.00313C4.5 8.00313 4.5 8.00313 4.50313 8.00313C4.77813 8.00313 5.00313 7.77813 5.00313 7.50313V2.50312C5.00313 2.47187 5.00313 2.44062 5 2.40937V1.5C5 1.42813 5.0125 1.36563 5.04063 1.30625C5.07813 1.21562 5.14375 1.14062 5.22188 1.08438C5.2625 1.05625 5.30625 1.0375 5.35313 1.02188C5.4 1.00625 5.45 1 5.50313 1C5.575 1 5.6375 1.0125 5.69688 1.04062C5.7875 1.07812 5.8625 1.14375 5.91875 1.22187C5.94688 1.2625 5.96563 1.30625 5.98125 1.35312C5.99688 1.4 6.00313 1.45 6.00313 1.50312V2.91563C6 2.94688 6 2.975 6 3.00625V7.5375C6 7.8125 6.225 8.0375 6.5 8.0375C6.7625 8.03125 6.97813 7.82812 6.99688 7.57188C7 7.55 7.00313 7.52813 7.00313 7.50313V2.94375C7.00938 2.89375 7.01875 2.85 7.04063 2.80625C7.07813 2.71563 7.14375 2.64062 7.22188 2.58437C7.2625 2.55625 7.30625 2.5375 7.35313 2.52187C7.4 2.50625 7.45 2.5 7.50313 2.5C7.575 2.5 7.6375 2.5125 7.69688 2.54063C7.7875 2.57812 7.8625 2.64375 7.91875 2.72187C7.94688 2.7625 7.96563 2.80625 7.98125 2.85313C7.99688 2.9 8.00313 2.95 8.00313 3.00312V10.0031C8.00313 10.2781 8.22813 10.5031 8.50313 10.5031C8.71563 10.5031 8.89688 10.3687 8.96875 10.1812L10.0875 7.48438C10.1094 7.44688 10.1313 7.41562 10.1563 7.3875C10.1969 7.34375 10.25 7.3125 10.3063 7.2875C10.3656 7.2625 10.4313 7.25 10.5 7.25C10.5938 7.25 10.6906 7.275 10.7781 7.325C10.825 7.35 10.8594 7.37812 10.8844 7.40312C10.925 7.44375 10.95 7.48125 10.9688 7.53125C10.9875 7.58125 11 7.64062 11 7.71562C11.0031 7.8125 10.9813 7.9375 10.9313 8.07812Z" fill="white"/>
</svg>
