<svg width="138" height="16" viewBox="0 0 138 16" fill="none" xmlns="http://www.w3.org/2000/svg">
<path d="M8.04869 0C3.6034 0 0 3.6034 0 8.04869C0 12.0658 2.94341 15.3955 6.79149 16V10.3748H4.74712V8.04869H6.79149V6.27557C6.79149 4.25856 7.99235 3.14463 9.83148 3.14463C10.712 3.14463 11.6328 3.30157 11.6328 3.30157V5.28155H10.6186C9.61819 5.28155 9.30671 5.90211 9.30671 6.53876V8.04869H11.5386L11.1821 10.3748H9.30671V16C13.154 15.3963 16.0974 12.065 16.0974 8.04869C16.0974 3.6034 12.494 0 8.04869 0Z" fill="white"/>
<path d="M46.0974 0C48.271 0 48.5422 0.00799995 49.395 0.048C50.247 0.088 50.827 0.2216 51.3374 0.42C51.8654 0.6232 52.3102 0.8984 52.755 1.3424C53.1618 1.74232 53.4766 2.22607 53.6774 2.76C53.875 3.2696 54.0094 3.8504 54.0494 4.7024C54.087 5.5552 54.0974 5.8264 54.0974 8C54.0974 10.1736 54.0894 10.4448 54.0494 11.2976C54.0094 12.1496 53.875 12.7296 53.6774 13.24C53.4772 13.7742 53.1623 14.2581 52.755 14.6576C52.355 15.0643 51.8713 15.379 51.3374 15.58C50.8278 15.7776 50.247 15.912 49.395 15.952C48.5422 15.9896 48.271 16 46.0974 16C43.9238 16 43.6526 15.992 42.7998 15.952C41.9478 15.912 41.3678 15.7776 40.8574 15.58C40.3233 15.3796 39.8394 15.0648 39.4398 14.6576C39.0329 14.2577 38.7182 13.774 38.5174 13.24C38.319 12.7304 38.1854 12.1496 38.1454 11.2976C38.1078 10.4448 38.0974 10.1736 38.0974 8C38.0974 5.8264 38.1054 5.5552 38.1454 4.7024C38.1854 3.8496 38.319 3.2704 38.5174 2.76C38.7176 2.22574 39.0325 1.74186 39.4398 1.3424C39.8395 0.935385 40.3234 0.620583 40.8574 0.42C41.3678 0.2216 41.947 0.088 42.7998 0.048C43.6526 0.0104 43.9238 0 46.0974 0ZM46.0974 4C45.0365 4 44.0191 4.42143 43.269 5.17157C42.5188 5.92172 42.0974 6.93913 42.0974 8C42.0974 9.06087 42.5188 10.0783 43.269 10.8284C44.0191 11.5786 45.0365 12 46.0974 12C47.1583 12 48.1757 11.5786 48.9258 10.8284C49.676 10.0783 50.0974 9.06087 50.0974 8C50.0974 6.93913 49.676 5.92172 48.9258 5.17157C48.1757 4.42143 47.1583 4 46.0974 4ZM51.2974 3.8C51.2974 3.53478 51.1921 3.28043 51.0045 3.09289C50.817 2.90536 50.5626 2.8 50.2974 2.8C50.0322 2.8 49.7778 2.90536 49.5903 3.09289C49.4028 3.28043 49.2974 3.53478 49.2974 3.8C49.2974 4.06522 49.4028 4.31957 49.5903 4.50711C49.7778 4.69464 50.0322 4.8 50.2974 4.8C50.5626 4.8 50.817 4.69464 51.0045 4.50711C51.1921 4.31957 51.2974 4.06522 51.2974 3.8ZM46.0974 5.6C46.7339 5.6 47.3444 5.85286 47.7945 6.30294C48.2446 6.75303 48.4974 7.36348 48.4974 8C48.4974 8.63652 48.2446 9.24697 47.7945 9.69706C47.3444 10.1471 46.7339 10.4 46.0974 10.4C45.4609 10.4 44.8504 10.1471 44.4004 9.69706C43.9503 9.24697 43.6974 8.63652 43.6974 8C43.6974 7.36348 43.9503 6.75303 44.4004 6.30294C44.8504 5.85286 45.4609 5.6 46.0974 5.6Z" fill="white"/>
<path d="M95.7751 1.89937C95.0381 2.22538 94.2565 2.43949 93.4563 2.53461C94.2998 2.03012 94.9311 1.23616 95.2326 0.300674C94.441 0.771788 93.5731 1.10195 92.6685 1.28055C92.0609 0.630434 91.2555 0.199271 90.3776 0.0540959C89.4996 -0.0910793 88.5983 0.0578671 87.8138 0.477779C87.0292 0.897691 86.4054 1.56504 86.0392 2.37608C85.6731 3.18712 85.5851 4.09641 85.7891 4.96259C84.1837 4.88212 82.6132 4.46495 81.1796 3.73814C79.7459 3.01133 78.4811 1.99113 77.4673 0.743792C77.1085 1.36015 76.9199 2.06082 76.9209 2.77403C76.9209 4.17386 77.6334 5.41053 78.7165 6.13458C78.0755 6.1144 77.4486 5.94129 76.8881 5.62968V5.67988C76.8883 6.61216 77.2109 7.5157 77.8012 8.23728C78.3915 8.95886 79.2132 9.45408 80.127 9.63898C79.5319 9.80024 78.908 9.82401 78.3024 9.70849C78.56 10.511 79.0622 11.2128 79.7385 11.7157C80.4148 12.2185 81.2315 12.4973 82.0742 12.513C81.2367 13.1707 80.2778 13.657 79.2522 13.9439C78.2267 14.2308 77.1546 14.3127 76.0974 14.185C77.943 15.3719 80.0914 16.002 82.2856 16C89.7124 16 93.7739 9.84751 93.7739 4.51175C93.7739 4.33797 93.769 4.16227 93.7613 3.99043C94.5519 3.41908 95.2341 2.71129 95.7761 1.90034L95.7751 1.89937Z" fill="white"/>
<path d="M137.319 2.498C137.776 4.28 137.776 8 137.776 8C137.776 8 137.776 11.72 137.319 13.502C137.065 14.487 136.322 15.262 135.381 15.524C133.672 16 127.776 16 127.776 16C127.776 16 121.883 16 120.171 15.524C119.226 15.258 118.484 14.484 118.233 13.502C117.776 11.72 117.776 8 117.776 8C117.776 8 117.776 4.28 118.233 2.498C118.487 1.513 119.23 0.738 120.171 0.476C121.883 -1.78814e-07 127.776 0 127.776 0C127.776 0 133.672 -1.78814e-07 135.381 0.476C136.326 0.742 137.068 1.516 137.319 2.498ZM125.776 11.5L131.776 8L125.776 4.5V11.5Z" fill="white"/>
</svg>
