<svg width="16" height="16" viewBox="0 0 16 16" fill="none" xmlns="http://www.w3.org/2000/svg">
<path d="M7.74933 4.81467C7.16533 4.81467 6.26133 4.15067 5.30933 4.17467C4.05333 4.19067 2.90133 4.90266 2.25333 6.03066C0.949329 8.29466 1.91733 11.6387 3.18933 13.4787C3.81333 14.3747 4.54933 15.3827 5.52533 15.3507C6.46133 15.3107 6.81333 14.7427 7.94933 14.7427C9.07733 14.7427 9.39733 15.3507 10.3893 15.3267C11.3973 15.3107 12.0373 14.4147 12.6533 13.5107C13.3653 12.4707 13.6613 11.4627 13.6773 11.4067C13.6533 11.3987 11.7173 10.6547 11.6933 8.41466C11.6773 6.54267 13.2213 5.64667 13.2933 5.60667C12.4133 4.31867 11.0613 4.17467 10.5893 4.14267C9.35733 4.04667 8.32533 4.81467 7.74933 4.81467ZM9.82933 2.92667C10.3493 2.30267 10.6933 1.43067 10.5973 0.566666C9.85333 0.598666 8.95733 1.06267 8.42133 1.68667C7.94133 2.23867 7.52533 3.12667 7.63733 3.97467C8.46133 4.03867 9.30933 3.55067 9.82933 2.92667Z" fill="black"/>
</svg>
