<svg width="24" height="24" viewBox="0 0 24 24" fill="none" xmlns="http://www.w3.org/2000/svg">
<path d="M14 12L10.5 14V10L14 12Z" fill="white" stroke="white" stroke-width="1.5" stroke-linecap="round" stroke-linejoin="round"/>
<path d="M2 12.706V11.2909C2 8.39559 2 6.94793 2.90549 6.01646C3.81099 5.08499 5.23656 5.04467 8.08769 4.96403C9.43873 4.92582 10.8188 4.89844 12 4.89844C13.1812 4.89844 14.5613 4.92582 15.9123 4.96403C18.7634 5.04467 20.189 5.08499 21.0945 6.01646C22 6.94793 22 8.39559 22 11.2909V12.706C22 15.6013 22 17.049 21.0945 17.9804C20.189 18.9119 18.7635 18.9522 15.9124 19.0329C14.5613 19.0711 13.1812 19.0985 12 19.0985C10.8188 19.0985 9.43867 19.0711 8.0876 19.0329C5.23651 18.9522 3.81097 18.9119 2.90548 17.9804C2 17.049 2 15.6013 2 12.706Z" stroke="white" stroke-width="1.5"/>
</svg>
