<svg width="148" height="24" viewBox="0 0 148 24" fill="none" xmlns="http://www.w3.org/2000/svg">
<path d="M11.413 17.76L4.36 21.708L5.935 13.78L0 8.292L8.027 7.34L11.413 0L14.799 7.34L22.826 8.292L16.891 13.78L18.466 21.708L11.413 17.76Z" fill="#FBBC05"/>
<path d="M42.2392 17.76L35.1862 21.708L36.7612 13.78L30.8262 8.292L38.8532 7.34L42.2392 0L45.6252 7.34L53.6522 8.292L47.7172 13.78L49.2922 21.708L42.2392 17.76Z" fill="#FBBC05"/>
<path d="M73.0653 17.76L66.0123 21.708L67.5873 13.78L61.6523 8.292L69.6793 7.34L73.0653 0L76.4513 7.34L84.4783 8.292L78.5433 13.78L80.1183 21.708L73.0653 17.76Z" fill="#FBBC05"/>
<path d="M103.891 17.76L96.8375 21.708L98.4125 13.78L92.4775 8.292L100.505 7.34L103.891 0L107.277 7.34L115.304 8.292L109.369 13.78L110.944 21.708L103.891 17.76Z" fill="#FBBC05"/>
<g clip-path="url(#clip0_3235_36798)">
<path d="M135.304 18.26L128.251 22.208L129.826 14.28L123.891 8.792L131.918 7.84L135.304 0.5L138.69 7.84L146.717 8.792L140.782 14.28L142.357 22.208L135.304 18.26ZM135.304 15.968L139.551 18.345L138.602 13.572L142.175 10.267L137.342 9.694L135.304 5.275L133.266 9.695L128.433 10.267L132.006 13.572L131.057 18.345L135.304 15.968Z" fill="#FBBC05"/>
</g>
<defs>
<clipPath id="clip0_3235_36798">
<rect width="24" height="24" fill="white" transform="translate(123.304)"/>
</clipPath>
</defs>
</svg>
