<svg width="49" height="48" viewBox="0 0 49 48" fill="none" xmlns="http://www.w3.org/2000/svg">
<rect x="0.5" y="0.5" width="48" height="47" rx="23.5" fill="white" stroke="#F1F1F1"/>
<path d="M24.3333 16C19.7308 16 16 19.7308 16 24.3333C16 28.4925 19.0475 31.94 23.0317 32.5658V26.7417H20.915V24.3333H23.0317V22.4975C23.0317 20.4092 24.275 19.2558 26.1792 19.2558C27.0908 19.2558 28.0442 19.4183 28.0442 19.4183V21.4683H26.9942C25.9583 21.4683 25.6358 22.1108 25.6358 22.77V24.3333H27.9467L27.5775 26.7417H25.6358V32.5658C29.6192 31.9408 32.6667 28.4917 32.6667 24.3333C32.6667 19.7308 28.9358 16 24.3333 16Z" fill="#2757E3"/>
</svg>
