<svg width="24" height="24" viewBox="0 0 24 24" fill="none" xmlns="http://www.w3.org/2000/svg">
<path d="M3.99994 22.0004C3.99994 19.8786 4.84279 17.8438 6.34308 16.3435C7.84338 14.8432 9.87821 14.0004 11.9999 14.0004C14.1217 14.0004 16.1565 14.8432 17.6568 16.3435C19.1571 17.8438 19.9999 19.8786 19.9999 22.0004H3.99994ZM12.9999 16.0834V20.0004H17.6589C17.3015 18.9918 16.6811 18.0969 15.8621 17.4083C15.043 16.7197 14.0549 16.2623 12.9999 16.0834ZM10.9999 20.0004V16.0834C9.94494 16.2623 8.95685 16.7197 8.13779 17.4083C7.31873 18.0969 6.69841 18.9918 6.34094 20.0004H10.9999ZM11.9999 13.0004C8.68494 13.0004 5.99994 10.3154 5.99994 7.00037C5.99994 3.68537 8.68494 1.00037 11.9999 1.00037C15.3149 1.00037 17.9999 3.68537 17.9999 7.00037C17.9999 10.3154 15.3149 13.0004 11.9999 13.0004ZM11.9999 11.0004C14.2099 11.0004 15.9999 9.21037 15.9999 7.00037C15.9999 4.79037 14.2099 3.00037 11.9999 3.00037C9.78994 3.00037 7.99994 4.79037 7.99994 7.00037C7.99994 9.21037 9.78994 11.0004 11.9999 11.0004Z" fill="white"/>
</svg>
