<svg width="20" height="20" viewBox="0 0 20 20" fill="none" xmlns="http://www.w3.org/2000/svg">
<g opacity="0.5" clip-path="url(#clip0_0_178)">
<g clip-path="url(#clip1_0_178)">
<path d="M19.7167 4.74211C19.7514 4.9458 19.7506 5.15509 19.7497 5.38707C19.7496 5.42443 19.7494 5.46237 19.7494 5.50098V5.50109V5.50142V5.50198V5.50276V5.50376V5.50498V5.50642V5.50808V5.50995V5.51205V5.51435V5.51687V5.51961V5.52255V5.52571V5.52908V5.53266V5.53645V5.54045V5.54466V5.54907V5.55369V5.55851V5.56353V5.56876V5.5742V5.57983V5.58566V5.5917V5.59793V5.60436V5.61099V5.61781V5.62483V5.63204V5.63945V5.64705V5.65484V5.66282V5.67099V5.67936V5.6879V5.69664V5.70556V5.71467V5.72397V5.73344V5.74311V5.75295V5.76297V5.77318V5.78356V5.79412V5.80486V5.81578V5.82687V5.83814V5.84958V5.8612V5.87299V5.88495V5.89708V5.90938V5.92185V5.93449V5.94729V5.96026V5.9734V5.9867V6.00017V6.01379V6.02758V6.04153V6.05565V6.06992V6.08435V6.09893V6.11368V6.12858V6.14363V6.15884V6.1742V6.18971V6.20538V6.2212V6.23716V6.25328V6.26954V6.28595V6.30251V6.31921V6.33605V6.35304V6.37017V6.38745V6.40486V6.42242V6.44011V6.45795V6.47592V6.49402V6.51227V6.53064V6.54915V6.5678V6.58658V6.60548V6.62452V6.64369V6.66299V6.68241V6.70196V6.72164V6.74144V6.76137V6.78142V6.8016V6.82189V6.84231V6.86284V6.8835V6.90427V6.92516V6.94617V6.96729V6.98853V7.00988V7.03134V7.05292V7.07461V7.0964V7.11831V7.14033V7.16245V7.18468V7.20702V7.22946V7.252V7.27465V7.2974V7.32026V7.34321V7.36626V7.38941V7.41266V7.43601V7.45946V7.48299V7.50663V7.53036V7.55418V7.57809V7.60209V7.62618V7.65037V7.67464V7.699V7.72344V7.74797V7.77259V7.79729V7.82207V7.84694V7.87189V7.89692V7.92202V7.94721V7.97247V7.99781V8.02323V8.04872V8.07429V8.09993V8.12565V8.15143V8.17729V8.20321V8.22921V8.25527V8.2814V8.3076V8.33386V8.36019V8.38658V8.41304V8.43956V8.46614V8.49277V8.51947V8.54623V8.57304V8.59992V8.62684V8.65383V8.68086V8.70796V8.7351V8.76229V8.78954V8.81683V8.84418V8.87157V8.89901V8.9265V8.95403V8.98161V9.00923V9.03689V9.0646V9.09234V9.12013V9.14796V9.17582V9.20372V9.23166V9.25964V9.28765V9.31569V9.34377V9.37188V9.40002V9.42819V9.4564V9.48463V9.51289V9.54117V9.56948V9.59782V9.62618V9.65457V9.68298V9.71141V9.73986V9.76833V9.79682V9.82533V9.85386V9.8824V9.91096V9.93953V9.96812V9.99672V10.0253V10.054V10.0826V10.1112V10.1399V10.1686V10.1972V10.2259V10.2546V10.2833V10.312V10.3406V10.3693V10.398V10.4267V10.4554V10.4841V10.5128V10.5415V10.5702V10.5988V10.6275V10.6562V10.6848V10.7135V10.7421V10.7707V10.7993V10.8279V10.8565V10.8851V10.9137V10.9422V10.9707V10.9992V11.0277V11.0562V11.0846V11.1131V11.1415V11.1699V11.1982V11.2266V11.2549V11.2832V11.3114V11.3397V11.3679V11.396V11.4242V11.4523V11.4804V11.5084V11.5364V11.5644V11.5923V11.6202V11.6481V11.6759V11.7037V11.7315V11.7592V11.7868V11.8144V11.842V11.8696V11.897V11.9245V11.9519V11.9792V12.0065V12.0338V12.061V12.0881V12.1152V12.1422V12.1692V12.1961V12.223V12.2498V12.2766V12.3033V12.3299V12.3565V12.383V12.4095V12.4359V12.4622V12.4884V12.5146V12.5408V12.5668V12.5928V12.6188V12.6446V12.6704V12.6961V12.7218V12.7473V12.7728V12.7982V12.8236V12.8488V12.874V12.8991V12.9242V12.9491V12.974V12.9988V13.0234V13.0481V13.0726V13.097V13.1214V13.1457V13.1699V13.1939V13.218V13.2419V13.2657V13.2894V13.313V13.3366V13.36V13.3834V13.4066V13.4298V13.4528V13.4758V13.4986V13.5214V13.544V13.5666V13.589V13.6114V13.6336V13.6557V13.6777V13.6996V13.7214V13.7431V13.7647V13.7862V13.8075V13.8287V13.8499V13.8709V13.8918V13.9125V13.9332V13.9537V13.9741V13.9944V14.0146V14.0347V14.0546V14.0744V14.0941V14.1136V14.133V14.1523V14.1715V14.1905V14.2094V14.2282V14.2469V14.2654V14.2838V14.302V14.3201V14.3381V14.3559V14.3736V14.3912V14.4086V14.4258V14.443V14.46V14.4768V14.4935V14.5101V14.5265V14.5427V14.5589V14.5748V14.5906V14.6063V14.6218V14.6372V14.6524V14.6674V14.6823V14.6971V14.7117V14.7261V14.7404V14.7545V14.7684V14.7822V14.7958V14.8093V14.8226V14.8357V14.8487V14.8615V14.8742V14.8866V14.8989V14.9111V14.923V14.9348V14.9464V14.9579V14.9691V14.9802V14.9911V15.0019V15.0124V15.0228V15.033V15.043V15.0529V15.0625V15.072V15.0813V15.0904V15.0993V15.1081V15.1166V15.125V15.1332V15.1411V15.1489V15.1565V15.1639V15.1712V15.1782V15.185V15.1916V15.1981V15.2043V15.2103V15.2161V15.2218V15.2272V15.2324V15.2375V15.2423V15.2469V15.2513V15.2555V15.2595V15.2633V15.2669V15.2703V15.2734V15.2764V15.2791V15.2816V15.2839V15.286V15.2879V15.2895V15.291V15.2922V15.2932V15.294V15.2945V15.2949C19.7494 15.2949 19.7494 15.295 19.9994 15.295H19.7494C19.7494 15.3335 19.7496 15.3714 19.7497 15.4088C19.7506 15.6407 19.7514 15.8502 19.7167 16.0536L19.7166 16.0544C19.6795 16.2763 19.5849 16.4761 19.4423 16.6275C19.3003 16.7783 19.1161 16.8756 18.916 16.9134L18.916 16.9134C18.7272 16.9491 18.5336 16.9484 18.3141 16.9475C18.2796 16.9474 18.2444 16.9472 18.2084 16.9472H1.79165C1.7555 16.9472 1.72009 16.9474 1.68532 16.9475C1.46615 16.9484 1.27262 16.9492 1.08419 16.9134C0.883829 16.8751 0.699632 16.7781 0.557519 16.6273C0.41534 16.4766 0.321124 16.2765 0.283232 16.0537L0.283226 16.0537C0.248639 15.8505 0.24946 15.6416 0.250371 15.4101C0.250519 15.3724 0.25067 15.334 0.25067 15.295V15.2949V15.2945V15.294V15.2932V15.2922V15.291V15.2895V15.2879V15.286V15.2839V15.2816V15.2791V15.2764V15.2734V15.2703V15.2669V15.2633V15.2595V15.2555V15.2513V15.2469V15.2423V15.2375V15.2324V15.2272V15.2218V15.2161V15.2103V15.2043V15.198V15.1916V15.185V15.1782V15.1711V15.1639V15.1565V15.1489V15.1411V15.1332V15.125V15.1166V15.1081V15.0993V15.0904V15.0813V15.072V15.0625V15.0529V15.043V15.033V15.0228V15.0124V15.0019V14.9911V14.9802V14.9691V14.9578V14.9464V14.9348V14.923V14.911V14.8989V14.8866V14.8741V14.8615V14.8487V14.8357V14.8226V14.8093V14.7958V14.7822V14.7684V14.7545V14.7403V14.7261V14.7116V14.6971V14.6823V14.6674V14.6524V14.6372V14.6218V14.6063V14.5906V14.5748V14.5588V14.5427V14.5265V14.51V14.4935V14.4768V14.4599V14.4429V14.4258V14.4085V14.3911V14.3736V14.3559V14.338V14.3201V14.302V14.2837V14.2653V14.2468V14.2282V14.2094V14.1905V14.1715V14.1523V14.133V14.1136V14.094V14.0744V14.0546V14.0346V14.0146V13.9944V13.9741V13.9537V13.9332V13.9125V13.8917V13.8708V13.8498V13.8287V13.8075V13.7861V13.7647V13.7431V13.7214V13.6996V13.6777V13.6557V13.6335V13.6113V13.589V13.5665V13.544V13.5213V13.4986V13.4757V13.4528V13.4297V13.4066V13.3833V13.36V13.3365V13.313V13.2894V13.2656V13.2418V13.2179V13.1939V13.1698V13.1456V13.1214V13.097V13.0726V13.048V13.0234V12.9987V12.9739V12.9491V12.9241V12.8991V12.874V12.8488V12.8235V12.7982V12.7728V12.7473V12.7217V12.6961V12.6704V12.6446V12.6187V12.5928V12.5668V12.5407V12.5146V12.4884V12.4621V12.4358V12.4094V12.383V12.3564V12.3299V12.3032V12.2765V12.2498V12.223V12.1961V12.1692V12.1422V12.1151V12.088V12.0609V12.0337V12.0065V11.9792V11.9518V11.9244V11.897V11.8695V11.842V11.8144V11.7868V11.7591V11.7314V11.7037V11.6759V11.648V11.6202V11.5923V11.5643V11.5364V11.5083V11.4803V11.4522V11.4241V11.396V11.3678V11.3396V11.3114V11.2831V11.2548V11.2265V11.1982V11.1698V11.1414V11.113V11.0846V11.0561V11.0277V10.9992V10.9707V10.9421V10.9136V10.885V10.8565V10.8279V10.7993V10.7707V10.742V10.7134V10.6848V10.6561V10.6274V10.5988V10.5701V10.5414V10.5127V10.484V10.4554V10.4267V10.398V10.3693V10.3406V10.3119V10.2832V10.2545V10.2258V10.1972V10.1685V10.1398V10.1112V10.0825V10.0539V10.0253V9.99666V9.96806V9.93947V9.9109V9.88234V9.85379V9.82527V9.79676V9.76827V9.73979V9.71134V9.68291V9.6545V9.62612V9.59776V9.56942V9.54111V9.51282V9.48456V9.45633V9.42813V9.39996V9.37181V9.3437V9.31563V9.28758V9.25957V9.2316V9.20366V9.17576V9.14789V9.12006V9.09228V9.06453V9.03683V9.00916V8.98154V8.95397V8.92643V8.89895V8.87151V8.84411V8.81677V8.78947V8.76223V8.73503V8.70789V8.6808V8.65376V8.62678V8.59985V8.57298V8.54616V8.51941V8.49271V8.46607V8.43949V8.41297V8.38652V8.36013V8.3338V8.30754V8.28134V8.25521V8.22914V8.20315V8.17722V8.15137V8.12558V8.09987V8.07423V8.04866V8.02317V7.99775V7.97241V7.94714V7.92196V7.89685V7.87182V7.84688V7.82201V7.79723V7.77253V7.74791V7.72338V7.69894V7.67458V7.65031V7.62612V7.60203V7.57803V7.55411V7.53029V7.50657V7.48293V7.45939V7.43595V7.4126V7.38935V7.3662V7.34315V7.32019V7.29734V7.27459V7.25194V7.2294V7.20696V7.18462V7.16239V7.14027V7.11825V7.09634V7.07455V7.05286V7.03128V7.00982V6.98847V6.96723V6.94611V6.9251V6.90421V6.88344V6.86279V6.84225V6.82183V6.80154V6.78137V6.76132V6.74139V6.72159V6.70191V6.68236V6.66293V6.64364V6.62447V6.60543V6.58652V6.56775V6.5491V6.53059V6.51221V6.49397V6.47587V6.4579V6.44006V6.42237V6.40481V6.3874V6.37013V6.35299V6.336V6.31916V6.30246V6.2859V6.26949V6.25323V6.23712V6.22115V6.20533V6.18967V6.17416V6.15879V6.14359V6.12853V6.11363V6.09889V6.0843V6.06987V6.0556V6.04149V6.02754V6.01375V6.00013V5.98666V5.97336V5.96022V5.94725V5.93445V5.92181V5.90934V5.89704V5.88491V5.87295V5.86116V5.84955V5.83811V5.82684V5.81575V5.80483V5.79409V5.78353V5.77314V5.76294V5.75292V5.74308V5.73342V5.72394V5.71465V5.70554V5.69661V5.68788V5.67933V5.67097V5.6628V5.65482V5.64703V5.63943V5.63202V5.62481V5.61779V5.61097V5.60434V5.59791V5.59168V5.58565V5.57981V5.57418V5.56875V5.56352V5.55849V5.55367V5.54905V5.54464V5.54044V5.53644V5.53265V5.52907V5.5257V5.52254V5.5196V5.51686V5.51434V5.51204V5.50995V5.50807V5.50642V5.50498V5.50376V5.50276V5.50198V5.50142V5.50109C0.25067 5.50101 0.25067 5.50098 0.000669775 5.50098H0.25067C0.25067 5.46207 0.250521 5.42384 0.250374 5.38619C0.24947 5.15457 0.248654 4.94547 0.283234 4.74208L0.283311 4.74163C0.320709 4.51917 0.415 4.3199 0.557686 4.16828C0.699693 4.01738 0.883306 3.92088 1.08448 3.88247L1.08449 3.88247C1.27251 3.84656 1.46526 3.84736 1.68412 3.84827C1.71925 3.84841 1.75505 3.84856 1.79161 3.84856H18.2084C18.2447 3.84856 18.2803 3.84842 18.3152 3.84827C18.5343 3.84738 18.7273 3.84659 18.9158 3.88249L18.9625 3.63697L18.9158 3.88249C19.1164 3.9207 19.3006 4.01752 19.4422 4.16816L19.4422 4.16818C19.5839 4.31889 19.679 4.52029 19.7167 4.74211ZM19.7167 4.74211L19.9632 4.70018L19.7167 4.74214C19.7167 4.74213 19.7167 4.74212 19.7167 4.74211Z" fill="white" stroke="black" stroke-width="0.5"/>
<path d="M5.4597 7.90106C5.63094 7.68695 5.74714 7.39949 5.71647 7.1057C5.46579 7.11816 5.15991 7.27103 4.98281 7.4853C4.82379 7.66879 4.68306 7.96832 4.71975 8.24977C5.00117 8.27414 5.28228 8.10916 5.4597 7.90106Z" fill="black"/>
<path d="M5.71334 8.30479C5.30471 8.28046 4.95726 8.53664 4.76214 8.53664C4.56691 8.53664 4.26806 8.31706 3.94483 8.32295C3.52416 8.32912 3.13381 8.56691 2.92033 8.9451C2.48126 9.70164 2.80445 10.8238 3.23145 11.44C3.43879 11.7448 3.68869 12.0805 4.01797 12.0684C4.32909 12.0563 4.45102 11.8671 4.82918 11.8671C5.20707 11.8671 5.3169 12.0684 5.64626 12.0623C5.98777 12.0563 6.20129 11.7573 6.40864 11.4522C6.6465 11.1047 6.7439 10.7692 6.75003 10.7508C6.7439 10.7447 6.09147 10.4945 6.08545 9.74425C6.07928 9.11605 6.59766 8.81726 6.62208 8.79871C6.32932 8.36584 5.87193 8.31702 5.71334 8.30479Z" fill="black"/>
<path d="M9.27178 7.45537C10.16 7.45537 10.7784 8.0674 10.7784 8.95845C10.7784 9.85267 10.1472 10.4679 9.24951 10.4679H8.26616V12.0312H7.55566V7.45537H9.27178ZM8.26616 9.87169H9.08139C9.69999 9.87169 10.052 9.53877 10.052 8.96161C10.052 8.3845 9.69995 8.0547 9.08456 8.0547H8.26616V9.87169Z" fill="black"/>
<path d="M10.9639 11.0828C10.9639 10.4993 11.4111 10.141 12.2042 10.0966L13.1177 10.0427V9.78586C13.1177 9.41481 12.8671 9.19285 12.4485 9.19285C12.0519 9.19285 11.8045 9.38306 11.7443 9.68118H11.0972C11.1352 9.07865 11.6491 8.63472 12.4739 8.63472C13.2827 8.63472 13.7997 9.06283 13.7997 9.73188V12.0309H13.1431V11.4823H13.1273C12.9338 11.8533 12.5119 12.0879 12.0742 12.0879C11.4207 12.088 10.9639 11.6821 10.9639 11.0828ZM13.1177 10.7816V10.5184L12.2961 10.5691C11.8869 10.5976 11.6553 10.7784 11.6553 11.0638C11.6553 11.3555 11.8964 11.5457 12.2644 11.5457C12.7434 11.5458 13.1177 11.216 13.1177 10.7816Z" fill="black"/>
<path d="M14.4198 13.2577V12.7027C14.4704 12.7153 14.5846 12.7153 14.6417 12.7153C14.9589 12.7153 15.1302 12.5822 15.2349 12.2397C15.2349 12.2334 15.2952 12.0368 15.2952 12.0336L14.0898 8.6945H14.832L15.6759 11.409H15.6885L16.5324 8.6945H17.2556L16.0057 12.2048C15.7203 13.0135 15.3904 13.2735 14.6989 13.2735C14.6417 13.2735 14.4704 13.2671 14.4198 13.2577Z" fill="black"/>
</g>
</g>
<defs>
<clipPath id="clip0_0_178">
<rect width="20" height="20" fill="white"/>
</clipPath>
<clipPath id="clip1_0_178">
<rect width="20" height="20" fill="white"/>
</clipPath>
</defs>
</svg>
