<svg width="11" height="10" viewBox="0 0 11 10" fill="none" xmlns="http://www.w3.org/2000/svg">
<path d="M7.33333 10L4.83895 5.15L6.80952 1.66667L11 10H7.33333ZM3.14286 3.88889L6.28571 10H0L3.14286 3.88889ZM1.83333 2.77778C1.48603 2.77778 1.15294 2.63145 0.90736 2.37098C0.661777 2.11051 0.52381 1.75725 0.52381 1.38889C0.52381 1.02053 0.661777 0.667263 0.90736 0.406796C1.15294 0.146329 1.48603 0 1.83333 0C2.18064 0 2.51372 0.146329 2.75931 0.406796C3.00489 0.667263 3.14286 1.02053 3.14286 1.38889C3.14286 1.75725 3.00489 2.11051 2.75931 2.37098C2.51372 2.63145 2.18064 2.77778 1.83333 2.77778Z" fill="#F6F5FF"/>
</svg>
