<svg width="30" height="30" viewBox="0 0 30 30" fill="none" xmlns="http://www.w3.org/2000/svg">
<path d="M30 15C30 17.8636 29.1956 20.5405 27.8057 22.8185C25.1705 27.1268 20.4215 30 15 30C10.4794 30 6.42535 27.9987 3.67761 24.8359C1.38674 22.204 0 18.7613 0 15C0 6.71493 6.71493 0 15 0C23.2851 0 30 6.71493 30 15Z" fill="#EDDDD6"/>
<path d="M16.4928 10.8494C16.4928 10.8494 18.9124 9.70394 19.1762 11.6023C19.4851 13.7998 16.8468 13.9221 16.8468 13.9221L16.4928 10.8494Z" fill="#F27E64"/>
<path d="M17.7864 12.8024C17.7606 12.8024 17.7349 12.7959 17.7124 12.7831C17.6351 12.7412 17.603 12.6447 17.6448 12.5643L18.4106 11.1261C18.4524 11.0488 18.5489 11.0167 18.6294 11.0585C18.7066 11.1003 18.7388 11.1968 18.6969 11.2773L17.9312 12.7155C17.9022 12.7702 17.8475 12.8024 17.7896 12.8024H17.7864Z" fill="black"/>
<path d="M18.0245 12.3586C17.9376 12.3586 17.8668 12.2878 17.8636 12.2009C17.8636 12.1108 17.9312 12.0401 18.0212 12.0368L18.7227 12.0208C18.8095 12.0208 18.8835 12.0883 18.8868 12.1784C18.8868 12.2685 18.8192 12.3393 18.7291 12.3425L18.0277 12.3586H18.0245Z" fill="black"/>
<path d="M27.8056 22.8185C26.8564 24.3693 25.6337 25.7336 24.2052 26.8404C24.1119 26.9176 24.0186 26.9884 23.922 27.0559C21.4285 28.9092 18.3429 30 14.9999 30C12.9954 30 11.081 29.6074 9.33388 28.8931C9.23413 28.8513 9.13439 28.8095 9.03465 28.7644C6.96257 27.8668 5.13503 26.5154 3.67751 24.8359C4.27918 22.9665 5.40209 21.1904 7.40338 20.0643C12.5128 17.1911 20.164 17.1911 23.5681 18.8063C25.6595 19.7973 27.0398 21.5733 27.8056 22.8185Z" fill="#7772D3"/>
<path d="M17.4839 8.66775C17.4839 8.66775 19.083 6.09054 18.758 4.99015C18.4362 3.88976 16.9948 4.96763 16.9948 4.96763C16.9948 4.96763 16.6666 2.59632 14.9034 3.05643C12.5546 3.66775 10.2187 7.80868 10.2187 7.80868C10.2187 7.80868 9.02182 7.50945 8.61642 8.55836C8.14666 9.78101 8.5585 11.1484 9.31461 12.3679C10.0707 13.5873 12.1138 12.5802 12.1138 12.5802L17.4839 8.66454V8.66775Z" fill="black"/>
<path d="M12.5225 16.1294L12.6094 18.9544C12.6094 18.9544 13.6551 19.5014 14.9356 19.4724C16.6634 19.4338 17.2201 18.6745 17.2201 18.6745L17.0688 15.0129L12.5257 16.1326L12.5225 16.1294Z" fill="#F27E64"/>
<path d="M12.5224 16.065C12.5224 16.065 13.6164 18.1853 15.563 17.8185C17.1331 17.5225 17.0687 15.296 17.0687 15.296L12.5192 16.065H12.5224Z" fill="black"/>
<path d="M17.4839 8.66814C17.4839 8.66814 18.3494 13.578 17.4742 15.4957C16.4929 17.6482 13.98 17.3618 13.0791 16.7215C11.8629 15.8593 11.3384 14.4661 11.3384 14.4661C11.3384 14.4661 9.72968 14.8522 9.13766 13.5491C8.51668 12.1816 9.48193 11.0201 10.2927 10.9236C11.1003 10.8271 11.2033 10.9687 11.2033 10.9687L10.9073 9.49504C10.9073 9.49504 15.6274 3.82258 17.4871 8.66492L17.4839 8.66814Z" fill="#F27E64"/>
<path d="M11.2 10.9718C11.2 10.9718 12.2521 11.0104 13.4394 10.0644C14.8326 8.95761 14.6138 7.12685 14.6138 7.12685C14.6138 7.12685 17.1492 8.58116 17.7798 10.4956C18.4104 12.41 18.4008 5.91063 15.5951 6.14551C12.7894 6.38039 9.04749 8.21115 11.2 10.9685V10.9718Z" fill="black"/>
<path d="M11.0102 13.1401C10.9748 13.1401 10.9395 13.1272 10.9105 13.1047L9.61707 12.0783C9.54628 12.0236 9.53663 11.9207 9.59133 11.8531C9.64602 11.7823 9.74898 11.7727 9.81655 11.8274L11.11 12.8537C11.1808 12.9084 11.1904 13.0114 11.1357 13.079C11.1035 13.1176 11.0553 13.1401 11.0102 13.1401Z" fill="black"/>
<path d="M9.86161 13.3816C9.81335 13.3816 9.7683 13.3623 9.73613 13.3237C9.68143 13.2562 9.69108 13.1532 9.75865 13.0985L10.4762 12.5129C10.5437 12.4582 10.6467 12.4679 10.7014 12.5354C10.7561 12.603 10.7464 12.706 10.6789 12.7607L9.96135 13.3463C9.93239 13.372 9.897 13.3816 9.85839 13.3816H9.86161Z" fill="black"/>
<path d="M13.6937 11.702C13.6132 11.702 13.5424 11.6409 13.5328 11.5572L13.4556 10.7625C13.4459 10.6756 13.5103 10.5952 13.6003 10.5855C13.6872 10.5791 13.7677 10.6402 13.7773 10.7303L13.8545 11.5251C13.8642 11.6119 13.7998 11.6924 13.7097 11.702C13.7033 11.702 13.7001 11.702 13.6937 11.702Z" fill="black"/>
<path d="M16.7825 11.5861C16.702 11.5861 16.6313 11.5249 16.6216 11.4413L16.5444 10.6465C16.5347 10.5597 16.5991 10.4792 16.6892 10.4696C16.7793 10.4631 16.8565 10.5243 16.8661 10.6144L16.9434 11.4091C16.953 11.496 16.8887 11.5764 16.7986 11.5861C16.7921 11.5861 16.7889 11.5861 16.7825 11.5861Z" fill="black"/>
<path d="M15.6499 13.5488C15.6499 13.5488 15.6338 13.5488 15.6241 13.5488C15.5373 13.5359 15.4761 13.4523 15.489 13.3654C15.6724 12.1942 15.2573 11.2386 15.2541 11.229C15.2187 11.1486 15.2541 11.052 15.3346 11.0166C15.415 10.9812 15.5115 11.0166 15.5469 11.0971C15.5662 11.1389 16.007 12.146 15.8075 13.4137C15.7947 13.4941 15.7271 13.5488 15.6499 13.5488Z" fill="black"/>
<path d="M17.0527 9.92595C17.0173 9.92595 16.9819 9.91308 16.9529 9.89056C16.7341 9.7136 16.3448 9.69429 16.2129 9.70073C16.126 9.70395 16.0488 9.63638 16.0424 9.54951C16.0392 9.45942 16.1067 9.38541 16.1936 9.37898C16.2161 9.37898 16.7953 9.35002 17.1524 9.6396C17.22 9.69429 17.2329 9.79725 17.1782 9.86482C17.146 9.90343 17.1009 9.92595 17.0527 9.92595Z" fill="black"/>
<path d="M13.4298 10.045C13.3815 10.045 13.3332 10.0225 13.3011 9.98386C13.2464 9.91307 13.2592 9.81333 13.33 9.75863C13.6936 9.47549 14.2695 9.5141 14.2953 9.5141C14.3821 9.52054 14.4497 9.59776 14.4433 9.68463C14.4368 9.77472 14.366 9.83907 14.2727 9.83264C14.2663 9.83264 13.7933 9.80368 13.5295 10.0096C13.5005 10.0321 13.4651 10.0418 13.4298 10.0418V10.045Z" fill="black"/>
<path d="M10.8236 10.9941C10.8236 10.9941 11.3899 12.4323 11.5765 12.3647C11.7631 12.2971 11.3545 10.0127 10.8043 9.94193C10.2509 9.87115 10.8236 10.9941 10.8236 10.9941Z" fill="black"/>
<path d="M14.9453 19.6267C13.4524 19.6267 12.0624 18.9736 12.0367 18.9639C11.9562 18.9253 11.9241 18.8288 11.9627 18.7483C12.0013 18.6679 12.0978 18.6325 12.1783 18.6711C12.2169 18.6904 16.1905 20.5533 17.6866 17.8024C17.7284 17.7252 17.8282 17.6962 17.9054 17.738C17.9826 17.7799 18.0116 17.8796 17.9698 17.9568C17.2651 19.2535 16.0747 19.6267 14.9485 19.6267H14.9453Z" fill="#FFBF69"/>
<path d="M15.0644 14.7878C14.5914 14.7878 14.334 14.4982 14.2568 14.3084C14.2246 14.2247 14.2632 14.1314 14.3468 14.0992C14.4273 14.0671 14.5206 14.1057 14.556 14.1861C14.5753 14.2279 14.7523 14.5915 15.3571 14.4242C15.4408 14.4017 15.5309 14.4499 15.5566 14.5368C15.5792 14.6237 15.5309 14.7105 15.444 14.7363C15.3057 14.7749 15.177 14.791 15.0644 14.791V14.7878Z" fill="black"/>
<path d="M9.69742 26.9851L9.33384 28.8931C9.2341 28.8513 9.13436 28.8094 9.03461 28.7644L9.38533 26.924C9.40141 26.8371 9.48507 26.7792 9.57516 26.7953C9.66203 26.8146 9.71673 26.895 9.69742 26.9851Z" fill="#FFBF69"/>
</svg>
