<svg width="30" height="30" viewBox="0 0 30 30" fill="none" xmlns="http://www.w3.org/2000/svg">
<path d="M29.9989 14.9994C29.9989 6.71545 23.2834 -4.10721e-05 14.9995 -4.071e-05C6.71549 -4.03479e-05 -1.01775e-06 6.71545 -6.55648e-07 14.9994C-2.93544e-07 23.2834 6.71549 29.9989 14.9995 29.9989C23.2834 29.9989 29.9989 23.2834 29.9989 14.9994Z" fill="#EDDDD6"/>
<path d="M7.72636 28.1207C5.94392 27.1394 4.3835 25.7977 3.13837 24.1987C4.57332 22.117 8.29906 19.0991 10.326 18.4267C12.8999 17.5709 9.10662 23.4941 7.72636 28.1207Z" fill="#7772D3"/>
<path d="M18.4566 8.89734C19.2159 8.80082 20.001 8.96169 20.6251 9.40569C21.1721 9.79499 21.6965 10.4449 21.8831 11.5227C22.3336 14.1095 21.4069 14.827 22.8869 15.8019C24.3669 16.7767 25.2035 16.1783 26.1365 18.5881C27.0696 20.9979 25.6346 24.225 22.6424 23.5751C19.6503 22.9219 12.3983 20.9432 12.3983 20.9432L12.0604 10.2261L15.6896 9.24804L18.4502 8.90056L18.4566 8.89734Z" fill="#E56445"/>
<path d="M23.183 27.5676C21.6515 28.5682 19.927 29.2954 18.077 29.6814C17.0796 29.8906 16.0501 30 14.9915 30C14.5379 30 14.0874 29.9807 13.6434 29.9388C12.9228 29.8745 12.2181 29.7587 11.5296 29.5946C10.1815 29.2761 8.90745 28.7774 7.72667 28.121C6.44615 27.4164 5.28146 26.5252 4.26476 25.486C4.70555 24.2601 5.16885 23.1791 5.63858 22.3908C7.87467 18.6394 11.1403 18.2855 11.1403 18.2855C14.6376 17.2591 17.6234 17.0757 20.7957 18.6201C22.221 19.3118 22.9095 23.3239 23.183 27.5676Z" fill="#7772D3"/>
<path d="M21.6127 26.8786L21.5194 28.5066C20.4384 29.031 19.2833 29.43 18.0768 29.6809C17.0794 29.89 16.0498 29.9994 14.9913 29.9994C14.5377 29.9994 14.0872 29.9801 13.6432 29.9383C12.9225 29.874 12.2179 29.7581 11.5294 29.594C10.1813 29.2755 8.90724 28.7768 7.72645 28.1205C7.66211 28.0851 7.59777 28.0497 7.53664 28.0111C6.83203 27.6153 6.16603 27.1585 5.54185 26.6469C7.54951 22.4675 10.3261 18.4265 10.3261 18.4265L14.557 17.5449L19.9429 18.4651L21.6127 26.8786Z" fill="#46467F"/>
<path d="M10.326 18.4264C10.326 18.4264 8.64332 23.8992 7.53654 28.011C6.79332 27.5927 6.09514 27.1069 5.4388 26.5664L9.01331 19.4495L10.326 18.4264Z" fill="#7772D3"/>
<path d="M9.0168 11.0683C9.0168 11.0683 7.57541 8.73252 7.68802 7.72548C7.96471 5.24487 11.4427 3.52679 14.9175 4.6947C18.3923 5.86261 19.1001 10.1771 18.5596 12.0561C17.1632 16.895 12.9388 15.2156 12.9388 15.2156C12.9388 15.2156 6.37211 13.993 9.0168 11.0651V11.0683Z" fill="#E56445"/>
<path d="M10.1749 16.232L10.1814 16.3221L10.3776 18.0144L10.5256 19.34C10.5256 19.34 10.4323 19.6585 11.9735 19.4494C14.039 19.1598 14.6439 18.2236 14.6439 18.2236L14.512 15.0995L13.891 15.2636L10.1717 16.2352L10.1749 16.232Z" fill="#FCA397"/>
<path d="M10.1816 16.3225L10.3778 18.0148C11.3784 17.8218 13.1834 17.2555 13.8108 15.6179C13.859 15.486 13.888 15.3669 13.8944 15.2704L10.188 16.3V16.3257L10.1816 16.3225Z" fill="black"/>
<path d="M8.95229 8.25005C8.95229 8.25005 7.33396 12.8027 8.20266 15.235C9.07135 17.6673 11.3074 17.1172 12.6233 16.5413C13.9425 15.9653 14.512 15.0934 14.512 15.0934C14.512 15.0934 15.8053 15.4313 16.5679 14.199C17.3304 12.9635 16.7159 11.6508 15.9726 11.3934C15.2294 11.136 14.409 11.7152 14.409 11.7152L14.9913 10.3832C14.9913 10.3832 11.7032 4.05779 8.95229 8.24683V8.25005Z" fill="#FCA397"/>
<path d="M9.54109 13.8682C9.47674 13.8682 9.41561 13.8296 9.39309 13.7652C9.02309 12.8354 9.62153 11.8155 9.64727 11.7736C9.69232 11.6964 9.79205 11.6739 9.86605 11.7189C9.94327 11.764 9.969 11.8637 9.92074 11.9377C9.91431 11.9474 9.38023 12.8643 9.6891 13.6494C9.72127 13.733 9.68266 13.8263 9.599 13.8585C9.5797 13.8649 9.5604 13.8714 9.54109 13.8714V13.8682Z" fill="black"/>
<path d="M14.7467 13.7907C14.7113 13.7907 14.6759 13.7778 14.647 13.7553C14.5794 13.7006 14.5665 13.5977 14.6244 13.5301L15.7248 12.1659C15.7795 12.0984 15.8824 12.0855 15.95 12.1402C16.0176 12.1949 16.0304 12.2978 15.9725 12.3654L14.8722 13.7296C14.84 13.7682 14.795 13.7907 14.7467 13.7907Z" fill="black"/>
<path d="M15.989 13.3533L15.1396 13.2922C15.0495 13.2857 14.9851 13.2085 14.9916 13.1184C14.998 13.0283 15.0849 12.964 15.1653 12.9704L16.0051 13.0315C16.0951 13.038 16.1595 13.1152 16.1531 13.2053C16.1466 13.2889 16.0758 13.3533 15.9922 13.3533H15.989Z" fill="black"/>
<path d="M10.9857 15.1189C10.5545 15.1189 10.1942 14.8068 10.1749 14.7907C10.1331 14.7553 10.1138 14.6974 10.1234 14.6427C10.1331 14.588 10.1685 14.543 10.2199 14.5205L11.9026 13.8126C11.9573 13.7901 12.0217 13.7998 12.0667 13.8384C12.1118 13.877 12.1343 13.9381 12.1214 13.996C12.115 14.025 11.9734 14.6684 11.4232 14.9998C11.2785 15.0867 11.1305 15.1221 10.9889 15.1221L10.9857 15.1189ZM10.6221 14.7006C10.7958 14.7875 11.0372 14.8518 11.2527 14.7231C11.4554 14.6009 11.5905 14.4175 11.6742 14.2566L10.6189 14.7006H10.6221Z" fill="black"/>
<path d="M12.0603 10.4279C12.0056 10.4279 11.9541 10.4021 11.9219 10.3506C11.6999 9.99029 11.1851 10.1351 11.1658 10.1415C11.0822 10.1672 10.9921 10.119 10.9663 10.0321C10.9406 9.94846 10.9889 9.85837 11.0757 9.83263C11.1079 9.82298 11.8479 9.61063 12.1986 10.1801C12.2436 10.2541 12.2211 10.3539 12.1471 10.4021C12.1214 10.4182 12.0924 10.4246 12.0635 10.4246L12.0603 10.4279Z" fill="black"/>
<path d="M8.62089 10.1837C8.58228 10.1837 8.54044 10.1676 8.50826 10.1387C8.44392 10.0775 8.44393 9.97458 8.50506 9.91024C8.51793 9.89415 8.8654 9.54989 9.2547 9.56598C9.44774 9.57563 9.62471 9.66893 9.76305 9.84267C9.81775 9.91345 9.80809 10.0132 9.73731 10.0679C9.66653 10.1226 9.5668 10.1129 9.51211 10.0421C9.43167 9.94241 9.34158 9.89093 9.24184 9.8845C8.99088 9.86841 8.73992 10.129 8.73671 10.129C8.70453 10.1612 8.66271 10.1773 8.62089 10.1773V10.1837Z" fill="black"/>
<path d="M8.95862 12.0594C8.85888 12.053 8.79132 11.9758 8.79775 11.8889L8.84922 11.1296L8.55323 10.8175C8.4921 10.7532 8.49532 10.6502 8.55967 10.5891C8.62402 10.5279 8.72698 10.5312 8.78811 10.5955L9.13235 10.9591C9.16453 10.9912 9.18062 11.0363 9.1774 11.0813L9.11949 11.9114C9.11306 11.9951 9.04227 12.0626 8.95862 12.0626V12.0594Z" fill="black"/>
<path d="M11.7291 12.0627C11.6326 12.0595 11.565 11.9823 11.5683 11.8954L11.6069 11.1457L11.1757 10.7822C11.1082 10.7243 11.0985 10.6245 11.1564 10.557C11.2143 10.4894 11.3141 10.4797 11.3817 10.5377L11.8739 10.9527C11.9125 10.9849 11.9318 11.0331 11.9318 11.0846L11.89 11.9147C11.8868 12.0016 11.816 12.0691 11.7291 12.0691V12.0627Z" fill="black"/>
<path d="M16.6353 7.42911C16.6353 7.42911 16.0337 2.1365 19.6693 2.62555C23.5205 3.14355 20.049 9.35311 17.5877 9.07641C16.4938 8.95415 16.6353 7.42589 16.6353 7.42589V7.42911Z" fill="#E56445"/>
<path d="M10.4034 19.7393C10.2844 19.7393 10.2104 19.7393 10.1975 19.7361C10.1074 19.7328 10.0399 19.6556 10.0463 19.5687C10.0495 19.4787 10.1235 19.4079 10.2136 19.4143C10.2361 19.4143 12.4626 19.5108 14.274 18.4362C14.3512 18.3912 14.4477 18.4169 14.4927 18.4909C14.5378 18.5681 14.512 18.6647 14.438 18.7129C12.8519 19.6556 11.0179 19.7393 10.4034 19.7393Z" fill="#F7734F"/>
<path d="M25.5898 25.6177C22.8743 28.3236 19.1293 29.9998 14.9917 29.9998C14.538 29.9998 14.0876 29.9805 13.6436 29.9387C13.9203 28.3943 14.2195 27.3358 14.2195 27.3358L18.0225 17.7158C18.0225 17.7158 21.8061 17.7995 24.3414 21.6796C24.8884 22.5194 25.3259 23.9254 25.5898 25.6177Z" fill="#7772D3"/>
<path d="M18.077 29.6807C17.0796 29.8899 16.05 29.9993 14.9915 29.9993C14.5379 29.9993 14.0874 29.98 13.6434 29.9381C12.9227 29.8738 12.2181 29.758 11.5296 29.5939C12.8777 23.8959 14.644 17.548 14.644 17.548L18.0223 17.7153L18.077 29.6807Z" fill="#7772D3"/>
<path d="M18.4566 9.05763C18.3761 9.05763 18.3054 8.9965 18.2957 8.91285C18.0673 6.61563 16.5326 5.79842 16.5165 5.78876C16.4361 5.74694 16.4071 5.65042 16.4457 5.5732C16.4875 5.49276 16.5841 5.46381 16.6613 5.50242C16.7321 5.53781 18.3697 6.40972 18.6142 8.88067C18.6239 8.96754 18.5595 9.04798 18.4694 9.05763C18.463 9.05763 18.4598 9.05763 18.4534 9.05763H18.4566Z" fill="white"/>
<path d="M11.2112 6.37415C11.2112 6.37415 10.661 7.08197 10.587 8.22093L10.513 9.35988L15.2329 10.7369L15.3294 8.45258L11.2144 6.37415H11.2112Z" fill="#E56445"/>
<path d="M10.8188 7.12765C10.8188 7.12765 10.4037 7.488 10.2171 7.97383C10.0305 8.45965 9.83425 9.41843 9.83425 9.41843L8.46686 9.264L8.62129 6.87991L10.4648 5.75061L11.5781 5.87609L11.4075 7.414L10.8188 7.12765Z" fill="#E56445"/>
</svg>
