<svg width="57" height="10" viewBox="0 0 57 10" fill="none" xmlns="http://www.w3.org/2000/svg">
<path d="M5.25751 8.18132L2.00848 10L2.73401 6.34789L0 3.81979L3.69772 3.38124L5.25751 0L6.8173 3.38124L10.515 3.81979L7.781 6.34789L8.50654 10L5.25751 8.18132Z" fill="#FBBC05"/>
<path d="M20.7722 8.18132L17.5231 10L18.2487 6.34789L15.5146 3.81979L19.2124 3.38124L20.7722 0L22.332 3.38124L26.0297 3.81979L23.2957 6.34789L24.0212 10L20.7722 8.18132Z" fill="#FBBC05"/>
<path d="M36.2878 8.18132L33.0387 10L33.7643 6.34789L31.0303 3.81979L34.728 3.38124L36.2878 0L37.8476 3.38124L41.5453 3.81979L38.8113 6.34789L39.5368 10L36.2878 8.18132Z" fill="#FBBC05"/>
<g clip-path="url(#clip0_3235_37117)">
<path d="M51.5464 7.60898L48.6077 9.25398L49.2639 5.95065L46.791 3.66398L50.1356 3.26732L51.5464 0.208984L52.9573 3.26732L56.3018 3.66398L53.8289 5.95065L54.4852 9.25398L51.5464 7.60898ZM51.5464 6.65398L53.316 7.6444L52.9206 5.65565L54.4093 4.27857L52.3956 4.03982L51.5464 2.19857L50.6973 4.04023L48.6835 4.27857L50.1723 5.65565L49.7768 7.6444L51.5464 6.65398Z" fill="#FBBC05"/>
</g>
<defs>
<clipPath id="clip0_3235_37117">
<rect width="10" height="10" fill="white" transform="translate(46.5449)"/>
</clipPath>
</defs>
</svg>
