<svg width="69" height="10" viewBox="0 0 69 10" fill="none" xmlns="http://www.w3.org/2000/svg">
<path d="M5 7.36318L1.9101 9L2.60011 5.7131L0 3.43781L3.5166 3.04312L5 0L6.4834 3.04312L10 3.43781L7.3999 5.7131L8.0899 9L5 7.36318Z" fill="#FBBC05"/>
<path d="M19.5 7.36318L16.7191 9L17.3401 5.7131L15 3.43781L18.1649 3.04312L19.5 0L20.8351 3.04312L24 3.43781L21.6599 5.7131L22.2809 9L19.5 7.36318Z" fill="#FBBC05"/>
<g clip-path="url(#clip0_3235_37098)">
<path d="M34.0015 7.60898L31.0628 9.25398L31.719 5.95065L29.2461 3.66398L32.5907 3.26732L34.0015 0.208984L35.4123 3.26732L38.7569 3.66398L36.284 5.95065L36.9403 9.25398L34.0015 7.60898ZM34.0015 6.65398L35.7711 7.6444L35.3757 5.65565L36.8644 4.27857L34.8507 4.03982L34.0015 2.19857L33.1523 4.04023L31.1386 4.27857L32.6273 5.65565L32.2319 7.6444L34.0015 6.65398Z" fill="#FBBC05"/>
</g>
<g clip-path="url(#clip1_3235_37098)">
<path d="M49.0015 7.60898L46.0628 9.25398L46.719 5.95065L44.2461 3.66398L47.5907 3.26732L49.0015 0.208984L50.4123 3.26732L53.7569 3.66398L51.284 5.95065L51.9403 9.25398L49.0015 7.60898ZM49.0015 6.65398L50.7711 7.6444L50.3757 5.65565L51.8644 4.27857L49.8507 4.03982L49.0015 2.19857L48.1523 4.04023L46.1386 4.27857L47.6273 5.65565L47.2319 7.6444L49.0015 6.65398Z" fill="#FBBC05"/>
</g>
<g clip-path="url(#clip2_3235_37098)">
<path d="M64.0015 7.60898L61.0628 9.25398L61.719 5.95065L59.2461 3.66398L62.5907 3.26732L64.0015 0.208984L65.4123 3.26732L68.7569 3.66398L66.284 5.95065L66.9403 9.25398L64.0015 7.60898ZM64.0015 6.65398L65.7711 7.6444L65.3757 5.65565L66.8644 4.27857L64.8507 4.03982L64.0015 2.19857L63.1523 4.04023L61.1386 4.27857L62.6273 5.65565L62.2319 7.6444L64.0015 6.65398Z" fill="#FBBC05"/>
</g>
<defs>
<clipPath id="clip0_3235_37098">
<rect width="10" height="10" fill="white" transform="translate(29)"/>
</clipPath>
<clipPath id="clip1_3235_37098">
<rect width="10" height="10" fill="white" transform="translate(44)"/>
</clipPath>
<clipPath id="clip2_3235_37098">
<rect width="10" height="10" fill="white" transform="translate(59)"/>
</clipPath>
</defs>
</svg>
