<svg width="31" height="30" viewBox="0 0 31 30" fill="none" xmlns="http://www.w3.org/2000/svg">
<g clip-path="url(#clip0_2304_36389)">
<path d="M30.0032 15C30.0032 17.0142 29.6075 18.935 28.8867 20.6885C27.1461 24.9324 23.5135 28.2046 19.038 29.4498C18.7323 29.5367 18.4202 29.6139 18.1049 29.6783C17.1042 29.8906 16.065 30 15.0032 30C14.4723 30 13.9479 29.9743 13.4299 29.9196C13.092 29.8842 12.7574 29.8359 12.426 29.778C11.9884 29.7008 11.5605 29.6075 11.1358 29.4949C10.5631 29.3436 10 29.157 9.45624 28.9382C8.1982 28.4395 7.02381 27.7735 5.95882 26.9691C4.26319 25.6885 2.85071 24.0541 1.82754 22.1783C0.662806 20.045 0 17.5997 0 15C0 6.71493 6.71815 0 15.0032 0C23.2883 0 30.0032 6.71493 30.0032 15Z" fill="#EDDDD6"/>
<path d="M19.038 29.4498C17.7542 29.8102 16.3996 30 15.0032 30C14.1248 30 13.2625 29.926 12.426 29.778C11.9884 29.7008 11.5605 29.6075 11.1358 29.4949C10.5631 29.3436 10 29.157 9.45624 28.9382L10.5212 18.2143L16.3288 16.8436L18.639 17.529L19.038 29.4498Z" fill="#F7734F"/>
<path d="M11.3996 7.33915C11.3996 7.33915 9.19562 4.62358 9.79086 4.26322C10.3861 3.90607 10.9492 4.45305 10.9492 4.45305C10.9492 4.45305 15.4408 3.7452 17.0785 4.21174C18.7162 4.67828 19.8134 7.35846 19.8134 7.35846C19.8134 7.35846 20.6338 7.28124 20.9813 8.40414C21.3288 9.52384 18.9125 15.0386 17.3649 14.7491C15.8205 14.4595 11.3932 7.33915 11.3932 7.33915H11.3996Z" fill="black"/>
<path d="M17.352 13.861L17.4292 17.6126C17.4292 17.6126 16.7761 18.7033 14.5849 18.9285C12.9537 19.0958 12.3713 18.7355 12.3713 18.7355L12.5611 16.8307L12.7477 14.9742L16.6924 14.0218L17.3552 13.861H17.352Z" fill="#FCA397"/>
<path d="M16.6924 14.0219C16.686 14.1248 16.6474 14.2471 16.5894 14.3854C15.7883 16.2773 13.5006 16.7246 12.5611 16.8307L12.7477 14.9742L16.6924 14.0219Z" fill="black"/>
<path d="M11.7374 6.4414C11.7374 6.4414 9.86486 11.184 10.6918 13.7805C11.5219 16.377 13.8964 15.8783 15.3089 15.3217C16.7214 14.7651 17.352 13.8642 17.352 13.8642C17.352 13.8642 18.7033 14.2696 19.5528 12.9955C20.4022 11.7213 19.8005 10.3153 19.0251 10.016C18.2497 9.71681 17.3649 10.2992 17.3649 10.2992L18.0277 8.91566C18.0277 8.91566 14.7909 2.12673 11.7374 6.44461V6.4414Z" fill="#FCA397"/>
<path d="M11.7375 6.44148C11.7375 6.44148 13.1982 5.85268 13.8192 6.36748C14.4434 6.88228 15.177 11.2291 17.3649 10.296C19.5528 9.36297 18.4202 6.57661 18.4202 6.57661C18.4202 6.57661 12.9151 1.86297 11.7342 6.44148H11.7375Z" fill="black"/>
<path d="M12.5611 16.8308C12.5611 16.8308 11.8758 23.1564 11.1358 29.4949C7.12356 28.4299 3.77413 25.7433 1.82755 22.1783C3.01802 20.9299 4.92278 18.8418 6.56693 18.1757C9.43694 17.011 12.5611 16.8308 12.5611 16.8308Z" fill="#507849"/>
<path d="M14.1152 19.1184C13.1467 19.1184 12.3906 18.9061 12.3263 18.8868C12.2426 18.861 12.1911 18.7741 12.2169 18.6873C12.2426 18.6004 12.3327 18.5521 12.4163 18.5779C12.4485 18.5875 15.6274 19.4756 17.3069 17.5064C17.3649 17.4389 17.4678 17.4324 17.5322 17.4871C17.5997 17.5451 17.6094 17.648 17.5515 17.7156C16.5862 18.8481 15.2124 19.1184 14.1152 19.1184Z" fill="white"/>
<path d="M28.8867 20.6885C27.1461 24.9324 23.5135 28.2046 19.038 29.4498C18.7323 29.5366 18.4202 29.6139 18.1049 29.6782C17.648 24.7329 17.4067 16.0521 17.4067 16.0521C17.4067 16.0521 23.906 15.6982 28.8867 20.6885Z" fill="#507849"/>
<path d="M17.5354 12.3873C17.4968 12.3873 17.455 12.3713 17.4228 12.3423C17.3584 12.2812 17.3584 12.1782 17.4196 12.1139L18.6004 10.8912C18.6615 10.8269 18.7645 10.8269 18.8288 10.888C18.8932 10.9491 18.8932 11.0521 18.832 11.1164L17.6512 12.3391C17.619 12.3713 17.5772 12.3873 17.5354 12.3873Z" fill="black"/>
<path d="M19.1313 12.0882C19.1313 12.0882 19.1055 12.0882 19.0894 12.0818L18.0695 11.8147C17.9826 11.7922 17.9311 11.7053 17.9537 11.6184C17.9762 11.5316 18.0631 11.4801 18.1499 11.5026L19.1699 11.7697C19.2568 11.7922 19.3082 11.879 19.2857 11.9659C19.2664 12.0367 19.2021 12.085 19.1313 12.085V12.0882Z" fill="black"/>
<path d="M11.4286 8.57141C11.3932 8.57141 11.361 8.56176 11.332 8.53924C11.2613 8.48454 11.2484 8.38801 11.2999 8.31723C11.3127 8.30114 11.6216 7.89895 12.3938 8.01156C12.4807 8.02443 12.5418 8.10487 12.529 8.19496C12.5161 8.28183 12.4324 8.34297 12.3456 8.3301C11.7728 8.24644 11.5637 8.50063 11.5541 8.51028C11.5219 8.54889 11.4736 8.57141 11.4253 8.57141H11.4286Z" fill="black"/>
<path d="M14.9614 8.61643C14.926 8.61643 14.8874 8.60356 14.8584 8.57782C14.4434 8.23354 13.9672 8.35903 13.964 8.36224C13.8771 8.38477 13.7902 8.3365 13.7645 8.24963C13.742 8.16276 13.7902 8.07589 13.8771 8.05015C13.9028 8.04371 14.5238 7.8764 15.0643 8.33007C15.1319 8.38798 15.1416 8.48773 15.0837 8.55529C15.0515 8.5939 15.0064 8.61321 14.9614 8.61321V8.61643Z" fill="black"/>
<path d="M11.583 10.4408C11.48 10.4343 11.4157 10.3539 11.4221 10.267L11.4929 9.39507C11.4994 9.30498 11.5734 9.24385 11.6667 9.24707C11.7535 9.2535 11.8211 9.33072 11.8147 9.42081L11.7439 10.2928C11.7374 10.3764 11.6667 10.4408 11.583 10.4408Z" fill="black"/>
<path d="M14.1667 10.547C14.0637 10.5405 13.9994 10.4601 14.0058 10.3732L14.0766 9.50127C14.083 9.4144 14.157 9.35005 14.2503 9.35326C14.3372 9.3597 14.4048 9.43692 14.3983 9.52701L14.3275 10.399C14.3211 10.4826 14.2503 10.547 14.1667 10.547Z" fill="black"/>
<path d="M12.2104 12.5225C12.1493 12.5225 12.0914 12.4871 12.0624 12.426C11.5154 11.2001 12.3359 10.2123 12.3713 10.1705C12.4292 10.1029 12.529 10.0933 12.5965 10.1512C12.6641 10.2091 12.6737 10.3088 12.6158 10.3764C12.5869 10.4118 11.8919 11.2548 12.3552 12.2908C12.3906 12.3713 12.3552 12.4678 12.2748 12.5032C12.2523 12.5128 12.2297 12.5161 12.2104 12.5161V12.5225Z" fill="black"/>
<path d="M13.2336 13.3076C13.1435 13.3076 13.0727 13.2368 13.0727 13.1467C13.0727 13.0566 13.1435 12.9859 13.2336 12.9859C13.2561 12.9859 13.8031 12.9762 13.9961 12.5097C14.0315 12.426 14.1248 12.3874 14.2053 12.4228C14.2857 12.4582 14.3243 12.5515 14.2921 12.6319C14.0122 13.3012 13.2625 13.3076 13.2336 13.3076Z" fill="black"/>
</g>
<defs>
<clipPath id="clip0_2304_36389">
<rect width="30.0032" height="30" fill="white"/>
</clipPath>
</defs>
</svg>
