<svg width="20" height="20" viewBox="0 0 20 20" fill="none" xmlns="http://www.w3.org/2000/svg">
<g opacity="0.5">
<path d="M18.8 3.2H1.2C0.538398 3.2 0 3.7384 0 4.4V15.6C0 16.2616 0.538398 16.8 1.2 16.8H18.8C19.4616 16.8 20 16.2616 20 15.6V4.4C20 3.7384 19.4616 3.2 18.8 3.2ZM19.2 15.6C19.2 15.82 19.02 16 18.8 16H1.2C0.979219 16 0.8 15.82 0.8 15.6V4.4C0.8 4.17918 0.979219 4 1.2 4H18.8C19.02 4 19.2 4.17918 19.2 4.4V15.6Z" fill="black"/>
<path d="M19.6004 6.8H0.400391V8.4H19.6004V6.8Z" fill="black"/>
<path d="M19.6 6.39999H0.4C0.179219 6.39999 0 6.57917 0 6.79999V8.39999C0 8.62081 0.179219 8.79999 0.4 8.79999H19.6C19.8208 8.79999 20 8.62081 20 8.39999V6.79999C20 6.57917 19.8208 6.39999 19.6 6.39999ZM19.2 7.99999H0.8V7.19999H19.2V7.99999Z" fill="black"/>
<path d="M10.8002 11.2H3.6002C3.37941 11.2 3.2002 11.3792 3.2002 11.6C3.2002 11.8208 3.37941 12 3.6002 12H10.8002C11.021 12 11.2002 11.8208 11.2002 11.6C11.2002 11.3792 11.021 11.2 10.8002 11.2Z" fill="black"/>
<path d="M7.6002 12.8H3.6002C3.37941 12.8 3.2002 12.9792 3.2002 13.2C3.2002 13.4208 3.37941 13.6 3.6002 13.6H7.6002C7.82098 13.6 8.0002 13.4208 8.0002 13.2C8.0002 12.9792 7.82098 12.8 7.6002 12.8Z" fill="black"/>
</g>
</svg>
