<svg width="14" height="14" viewBox="0 0 14 14" fill="none" xmlns="http://www.w3.org/2000/svg">
<g clip-path="url(#clip0_0_24)">
<path d="M12.2142 6.42844C12.1759 6.26985 12.1048 6.11672 12.0037 5.98001C11.9025 5.84602 11.7685 5.73118 11.6154 5.64368C11.4048 5.52337 11.1697 5.46595 10.94 5.46595C10.7158 5.46595 10.4916 5.52064 10.292 5.63548C10.1908 5.6929 10.0978 5.76399 10.0158 5.84876C9.93376 5.93352 9.85993 6.03196 9.80251 6.14133C9.7943 6.15774 9.79157 6.16047 9.7861 6.17688L9.62751 6.55969V2.6277C9.62751 2.44724 9.59196 2.27497 9.5236 2.11638C9.42243 1.88123 9.25837 1.68162 9.04783 1.53943C8.94392 1.46834 8.82635 1.41365 8.7033 1.37537C8.58026 1.33709 8.44901 1.31522 8.31229 1.31522C8.15917 1.31522 8.01425 1.33983 7.87753 1.38905V1.31522C7.87753 1.13475 7.84198 0.962489 7.77362 0.803897C7.67245 0.568743 7.50839 0.369136 7.29785 0.22695C7.19394 0.155858 7.07637 0.101171 6.95332 0.0628899C6.82754 0.0218747 6.69629 0 6.56231 0C6.38184 0 6.20958 0.0355464 6.05099 0.103905C5.81584 0.205076 5.61623 0.369136 5.47404 0.579681C5.40295 0.683586 5.34826 0.801162 5.30998 0.924208C5.30451 0.940614 5.30178 0.954285 5.29631 0.970692C5.26623 0.959754 5.23342 0.948817 5.20334 0.937879C5.0803 0.899599 4.94905 0.877724 4.81233 0.877724C4.63187 0.877724 4.4596 0.91327 4.30101 0.981629C4.06586 1.0828 3.86625 1.24686 3.72406 1.4574C3.65297 1.56131 3.59828 1.67889 3.56 1.80193C3.52172 1.92498 3.49985 2.05623 3.49985 2.19294V2.70153C3.48344 2.69606 3.46977 2.69059 3.45336 2.68512C3.33032 2.64684 3.19907 2.62497 3.06235 2.62497C2.88189 2.62497 2.70962 2.66052 2.55103 2.72887C2.31588 2.83004 2.11627 2.9941 1.97409 3.20465C1.90299 3.30855 1.84831 3.42613 1.81002 3.54918C1.77174 3.67222 1.74987 3.80347 1.74987 3.94019V8.75263C1.74987 9.59481 1.86471 10.3413 2.08346 10.9948C2.24752 11.4842 2.47174 11.9217 2.7479 12.2991C2.95571 12.5807 3.19087 12.8323 3.45336 13.0455C3.84711 13.3655 4.29554 13.6061 4.78225 13.7647C5.26897 13.9233 5.79396 13.9998 6.34356 13.9998C6.97793 13.9998 7.53027 13.9287 8.01425 13.7948C8.37792 13.6936 8.70057 13.5569 8.98767 13.3901C9.41697 13.1385 9.76423 12.8213 10.0377 12.4659C10.3138 12.1104 10.5189 11.7221 10.6857 11.3256L10.6939 11.3065L12.1349 7.36905C12.2087 7.16671 12.2525 6.9589 12.2525 6.74836C12.2525 6.64172 12.2415 6.53234 12.2142 6.42844ZM11.3146 7.06827L9.87907 10.9866C9.75055 11.2956 9.60017 11.5799 9.41696 11.8342C9.28025 12.0256 9.12439 12.1979 8.94392 12.351C8.67322 12.5807 8.3451 12.7721 7.92401 12.9061C7.50293 13.0428 6.98614 13.1221 6.3463 13.1221C5.79396 13.1221 5.28811 13.0291 4.84514 12.8514C4.51155 12.7174 4.21078 12.537 3.94281 12.3073C3.7432 12.135 3.56274 11.9327 3.40141 11.703C3.16079 11.3557 2.96939 10.9401 2.8354 10.4479C2.70142 9.95574 2.62759 9.38973 2.62759 8.74716C2.62759 8.73076 2.62759 8.71435 2.62486 8.70068V3.93745C2.62486 3.87456 2.6358 3.81988 2.66041 3.76792C2.69322 3.68863 2.75064 3.623 2.819 3.57379C2.85454 3.54918 2.89282 3.53277 2.93384 3.5191C2.97485 3.50543 3.0186 3.49996 3.06509 3.49996C3.12798 3.49996 3.18266 3.5109 3.23462 3.5355C3.31391 3.56832 3.37954 3.62574 3.42876 3.6941C3.45336 3.72964 3.46977 3.76792 3.48344 3.80894C3.49165 3.83355 3.49711 3.86089 3.49985 3.88823V7.00539C3.49985 7.24601 3.69672 7.44288 3.93734 7.44288C4.0139 7.44288 4.085 7.42374 4.14515 7.38819C4.28187 7.31437 4.37757 7.16945 4.37757 7.00265V3.93745C4.37757 3.91011 4.37757 3.88277 4.37484 3.85542V2.18747C4.37484 2.12458 4.38578 2.0699 4.41038 2.01794C4.4432 1.93865 4.50062 1.87302 4.56898 1.82381C4.60452 1.7992 4.6428 1.78279 4.68382 1.76912C4.72483 1.75545 4.76858 1.74998 4.81507 1.74998C4.87796 1.74998 4.93264 1.76092 4.9846 1.78553C5.06389 1.81834 5.12952 1.87576 5.17873 1.94412C5.20334 1.97966 5.21975 2.01794 5.23342 2.05896C5.24162 2.08357 5.24709 2.11091 5.24983 2.13826V6.56516C5.24983 6.80578 5.4467 7.00265 5.68732 7.00265C5.68732 7.00265 5.68732 7.00265 5.69006 7.00265C5.93068 7.00265 6.12755 6.80578 6.12755 6.56516V2.19021C6.12755 2.16286 6.12755 2.13552 6.12482 2.10818V1.31248C6.12482 1.24959 6.13575 1.19491 6.16036 1.14296C6.19318 1.06366 6.2506 0.998035 6.31896 0.948817C6.3545 0.924208 6.39278 0.907802 6.4338 0.89413C6.47481 0.880458 6.51856 0.87499 6.56505 0.87499C6.62794 0.87499 6.68262 0.885927 6.73458 0.910536C6.81387 0.943348 6.87949 1.00077 6.92871 1.06913C6.95332 1.10467 6.96973 1.14296 6.9834 1.18397C6.99707 1.22499 7.00254 1.26873 7.00254 1.31522V2.55114C6.99981 2.57848 6.99981 2.60309 6.99981 2.63044V6.59523C6.99981 6.83586 7.19668 7.03273 7.4373 7.03273C7.66699 7.02726 7.85566 6.84953 7.87206 6.62531C7.8748 6.60617 7.87753 6.58703 7.87753 6.56516V2.57575C7.883 2.532 7.8912 2.49372 7.91034 2.45544C7.94315 2.37614 8.00058 2.31052 8.06893 2.2613C8.10448 2.23669 8.14276 2.22029 8.18378 2.20661C8.22479 2.19294 8.26854 2.18747 8.31503 2.18747C8.37792 2.18747 8.4326 2.19841 8.48455 2.22302C8.56385 2.25583 8.62947 2.31325 8.67869 2.38161C8.7033 2.41716 8.71971 2.45544 8.73338 2.49645C8.74705 2.53747 8.75252 2.58122 8.75252 2.6277V8.75263C8.75252 8.99325 8.94939 9.19013 9.19001 9.19013C9.37595 9.19013 9.53454 9.07255 9.59743 8.90849L10.5763 6.54875C10.5955 6.51594 10.6146 6.48859 10.6365 6.46398C10.672 6.4257 10.7185 6.39836 10.7677 6.37649C10.8197 6.35461 10.8771 6.34367 10.9373 6.34367C11.0193 6.34367 11.1041 6.36555 11.1806 6.4093C11.2216 6.43117 11.2517 6.45578 11.2736 6.47766C11.3091 6.5132 11.331 6.54602 11.3474 6.58977C11.3638 6.63351 11.3748 6.68547 11.3748 6.75109C11.3775 6.83586 11.3583 6.94523 11.3146 7.06827Z" fill="white"/>
</g>
<defs>
<clipPath id="clip0_0_24">
<rect width="13.0711" height="13.0711" fill="white" transform="scale(1.07105)"/>
</clipPath>
</defs>
</svg>
