<svg width="21" height="21" viewBox="0 0 21 21" fill="none" xmlns="http://www.w3.org/2000/svg">
<path d="M19.0798 8.78631H18.375V8.75H10.5V12.25H15.4451C14.7236 14.2874 12.7851 15.75 10.5 15.75C7.60069 15.75 5.25 13.3993 5.25 10.5C5.25 7.60069 7.60069 5.25 10.5 5.25C11.8383 5.25 13.0559 5.75487 13.9829 6.57956L16.4579 4.10462C14.8951 2.64819 12.8048 1.75 10.5 1.75C5.66781 1.75 1.75 5.66781 1.75 10.5C1.75 15.3322 5.66781 19.25 10.5 19.25C15.3322 19.25 19.25 15.3322 19.25 10.5C19.25 9.91331 19.1896 9.34063 19.0798 8.78631Z" fill="#FBC02D"/>
<path d="M2.75887 6.42731L5.63369 8.53562C6.41156 6.60975 8.29544 5.25 10.5 5.25C11.8383 5.25 13.0559 5.75487 13.9829 6.57956L16.4579 4.10462C14.8951 2.64819 12.8048 1.75 10.5 1.75C7.13912 1.75 4.2245 3.64744 2.75887 6.42731Z" fill="#E53935"/>
<path d="M10.5 19.25C12.7601 19.25 14.8138 18.3851 16.3664 16.9785L13.6583 14.6869C12.7798 15.3523 11.6878 15.75 10.5 15.75C8.22413 15.75 6.29169 14.2988 5.56369 12.2736L2.71031 14.4721C4.15844 17.3057 7.09931 19.25 10.5 19.25Z" fill="#4CAF50"/>
<path d="M19.0798 8.78631L19.0728 8.75H18.375H10.5V12.25H15.4451C15.0986 13.2287 14.469 14.0726 13.657 14.6873C13.6574 14.6869 13.6579 14.6869 13.6583 14.6864L16.3664 16.9781C16.1748 17.1522 19.25 14.875 19.25 10.5C19.25 9.91331 19.1896 9.34063 19.0798 8.78631Z" fill="#1565C0"/>
</svg>
