<svg width="253" height="41" viewBox="0 0 253 41" fill="none" xmlns="http://www.w3.org/2000/svg">
<path d="M20.5001 31.1941L8.45126 37.9386L11.1419 24.395L1.00293 15.0196L14.7157 13.3933L20.5001 0.854126L26.2846 13.3933L39.9973 15.0196L29.8584 24.395L32.549 37.9386L20.5001 31.1941ZM20.5001 27.2786L27.7554 31.3393L26.1342 23.1855L32.2381 17.5394L23.9817 16.5605L20.5001 9.01142L17.0186 16.5623L8.76218 17.5394L14.8661 23.1855L13.2448 31.3393L20.5001 27.2786Z" fill="#E5E5E5"/>
<path d="M73.5001 31.1941L61.4513 37.9386L64.1419 24.395L54.0029 15.0196L67.7157 13.3933L73.5001 0.854126L79.2846 13.3933L92.9973 15.0196L82.8584 24.395L85.549 37.9386L73.5001 31.1941ZM73.5001 27.2786L80.7554 31.3393L79.1342 23.1855L85.2381 17.5394L76.9817 16.5605L73.5001 9.01142L70.0186 16.5623L61.7622 17.5394L67.8661 23.1855L66.2448 31.3393L73.5001 27.2786Z" fill="#E5E5E5"/>
<path d="M126.5 31.1941L114.451 37.9386L117.142 24.395L107.003 15.0196L120.716 13.3933L126.5 0.854126L132.285 13.3933L145.997 15.0196L135.858 24.395L138.549 37.9386L126.5 31.1941ZM126.5 27.2786L133.755 31.3393L132.134 23.1855L138.238 17.5394L129.982 16.5605L126.5 9.01142L123.019 16.5623L114.762 17.5394L120.866 23.1855L119.245 31.3393L126.5 27.2786Z" fill="#E5E5E5"/>
<path d="M179.5 31.1941L167.451 37.9386L170.142 24.395L160.003 15.0196L173.716 13.3933L179.5 0.854126L185.285 13.3933L198.997 15.0196L188.858 24.395L191.549 37.9386L179.5 31.1941ZM179.5 27.2786L186.755 31.3393L185.134 23.1855L191.238 17.5394L182.982 16.5605L179.5 9.01142L176.019 16.5623L167.762 17.5394L173.866 23.1855L172.245 31.3393L179.5 27.2786Z" fill="#E5E5E5"/>
<path d="M232.5 31.1941L220.451 37.9386L223.142 24.395L213.003 15.0196L226.716 13.3933L232.5 0.854126L238.285 13.3933L251.997 15.0196L241.858 24.395L244.549 37.9386L232.5 31.1941ZM232.5 27.2786L239.755 31.3393L238.134 23.1855L244.238 17.5394L235.982 16.5605L232.5 9.01142L229.019 16.5623L220.762 17.5394L226.866 23.1855L225.245 31.3393L232.5 27.2786Z" fill="#E5E5E5"/>
</svg>
