<svg width="30" height="30" viewBox="0 0 30 30" fill="none" xmlns="http://www.w3.org/2000/svg">
<path d="M30 15.0016C30 18.6048 28.7292 21.9089 26.6123 24.4954C26.2263 24.9684 25.8113 25.4156 25.3705 25.837C24.4922 26.6799 23.5142 27.4134 22.4493 28.0215C20.2552 29.2794 17.7137 30 15.0016 30C14.1008 30 13.2193 29.9196 12.3635 29.7684C11.6847 29.6493 11.022 29.482 10.3786 29.2697C8.39678 28.6327 6.59517 27.5903 5.07024 26.2391C1.95925 23.4949 0 19.4767 0 15.0016C0 6.71743 6.71742 0 15.0016 0C23.2858 0 30 6.71743 30 15.0016Z" fill="#EDDDD6"/>
<path d="M12.7174 6.96831C12.7174 6.96831 9.82838 5.01228 6.41176 6.90719C2.99513 8.80531 4.06645 12.3249 4.06645 12.3249C4.06645 12.3249 1.38656 15.6836 2.63803 19.0198C3.88951 22.356 9.45519 23.305 11.926 19.541C14.3967 15.7769 10.4718 12.4246 10.4718 12.4246C10.4718 12.4246 13.6568 12.4085 12.711 6.96831H12.7174Z" fill="#E56445"/>
<path d="M26.6124 24.4954C26.2264 24.9684 25.8113 25.4155 25.3706 25.837C24.4923 26.6799 23.5143 27.4134 22.4494 28.0214C22.4784 23.6332 24.1996 20.6831 24.1996 20.6831C24.3186 20.9019 25.213 22.5169 26.6124 24.4954Z" fill="#FCA397"/>
<path d="M20.6606 9.9312C20.6606 9.9312 21.896 6.11565 21.7255 5.1505C21.5582 4.18536 17.5078 2.94032 14.2938 4.43951C11.0799 5.93871 10.8611 10.1693 11.585 11.9162C13.4509 16.4202 17.334 14.3484 17.334 14.3484C17.334 14.3484 23.5174 12.4631 20.6606 9.9312Z" fill="#E56445"/>
<path d="M25.3706 25.8368C24.4923 26.6797 23.5143 27.4132 22.4494 28.0212C20.2553 29.2791 17.7138 29.9998 15.0017 29.9998C14.1009 29.9998 13.2194 29.9194 12.3636 29.7682C11.6848 29.6491 11.0221 29.4818 10.3786 29.2695C10.5427 26.0877 10.7583 22.8062 11.0253 20.5993C11.1958 19.1869 11.3888 18.2153 11.6044 17.9869C11.7974 17.781 12.1835 17.588 12.7175 17.4271C13.5443 17.1794 14.7025 17.0121 15.9861 17.0025C17.3084 16.9864 18.7561 17.1408 20.1009 17.5397C21.3202 17.9065 22.4558 18.4727 23.3245 19.3092C23.6591 19.6309 23.9518 20.0974 24.1995 20.6829C24.7625 21.9794 25.1293 23.8068 25.3706 25.8368Z" fill="#507849"/>
<path d="M20.0976 14.9243V15.0176V16.8031V18.2026C20.0976 18.2026 20.2295 18.5211 18.6724 18.4824C16.5876 18.4213 15.8766 17.5109 15.8766 17.5109L15.6514 14.239L16.2884 14.3387L20.0943 14.921L20.0976 14.9243Z" fill="#FCA397"/>
<path d="M20.104 15.114L20.0976 16.7612C19.1164 16.684 17.318 16.3333 16.533 14.8245C16.4719 14.7022 16.43 14.5896 16.4139 14.4963L20.0912 15.0851L20.0976 15.1108L20.104 15.114Z" fill="black"/>
<path d="M20.4161 7.21274C20.4161 7.21274 22.4654 11.4176 21.8927 13.853C21.3201 16.2883 19.1099 15.9988 17.778 15.5902C16.4461 15.1784 15.8059 14.3999 15.8059 14.3999C15.8059 14.3999 14.5994 14.8664 13.7308 13.7597C12.8622 12.653 13.3126 11.3243 14.001 10.9961C14.6895 10.668 15.5421 11.1377 15.5421 11.1377L14.8375 9.92158C14.8375 9.92158 17.3179 3.48084 20.4161 7.21274Z" fill="#FCA397"/>
<path d="M20.4386 12.6884C20.4386 12.6884 20.4097 12.6884 20.3968 12.682C20.3099 12.6594 20.2617 12.5693 20.2842 12.4857C20.4965 11.7039 19.8853 10.8771 19.8788 10.8707C19.8242 10.7999 19.8402 10.7002 19.911 10.6455C19.9818 10.5908 20.0815 10.6069 20.1362 10.6777C20.1652 10.7163 20.8504 11.6364 20.5963 12.5726C20.577 12.6433 20.5126 12.6916 20.4419 12.6916L20.4386 12.6884Z" fill="black"/>
<path d="M15.423 13.1806C15.3812 13.1806 15.3426 13.1645 15.3104 13.1355L14.104 11.942C14.0397 11.8808 14.0397 11.7779 14.104 11.7135C14.1651 11.6492 14.2681 11.6492 14.3324 11.7135L15.5389 12.9071C15.6032 12.9682 15.6032 13.0712 15.5389 13.1355C15.5067 13.1677 15.4649 13.1838 15.423 13.1838V13.1806Z" fill="black"/>
<path d="M14.1781 12.8911C14.1008 12.8911 14.0333 12.8364 14.0204 12.7592C14.0043 12.6723 14.0622 12.5887 14.1491 12.5726L14.9502 12.4214C15.037 12.4053 15.1207 12.4632 15.1368 12.5501C15.1529 12.6369 15.0949 12.7206 15.0081 12.7367L14.207 12.8879C14.207 12.8879 14.1877 12.8879 14.1781 12.8879V12.8911Z" fill="black"/>
<path d="M19.1068 14.0558C18.9974 14.0558 18.8848 14.0333 18.7657 13.9818C18.1963 13.7212 17.9904 13.1164 17.984 13.0907C17.9647 13.0327 17.9808 12.9716 18.0226 12.9298C18.0644 12.888 18.1255 12.8719 18.1834 12.888L19.8789 13.3866C19.9304 13.4027 19.9722 13.4445 19.9883 13.496C20.0043 13.5507 19.9883 13.6054 19.9529 13.6472C19.9336 13.6665 19.5732 14.059 19.11 14.059L19.1068 14.0558ZM18.4537 13.2998C18.5534 13.4413 18.6982 13.5958 18.9009 13.6891C19.1196 13.7888 19.3384 13.7051 19.4928 13.6054L18.4537 13.2998Z" fill="black"/>
<path d="M17.6462 9.65466C17.6237 9.65466 17.6011 9.64822 17.5786 9.63857C17.4982 9.59997 17.4628 9.50668 17.5014 9.42625C17.7813 8.83429 18.518 8.95975 18.5502 8.96619C18.6371 8.98227 18.695 9.06592 18.6789 9.15279C18.6628 9.23965 18.5792 9.29756 18.4923 9.28469C18.4698 9.28147 17.9647 9.19783 17.791 9.56458C17.7652 9.62249 17.7073 9.65788 17.6462 9.65788V9.65466Z" fill="black"/>
<path d="M19.94 9.08182C19.9111 9.08182 19.8821 9.07216 19.8532 9.05608C19.7792 9.00782 19.7566 8.90809 19.8049 8.83409C19.9207 8.65393 20.0784 8.54133 20.2649 8.51238C20.6446 8.45125 21.0113 8.75045 21.0274 8.76332C21.095 8.81801 21.1046 8.92096 21.0499 8.98852C20.9952 9.05608 20.8923 9.06895 20.8247 9.01104C20.7507 8.94991 20.5159 8.79871 20.3164 8.83088C20.2199 8.84697 20.1427 8.90487 20.0784 9.00782C20.0462 9.05608 19.9947 9.08182 19.9432 9.08182H19.94Z" fill="black"/>
<path d="M20.8054 10.8867C20.7281 10.8867 20.6606 10.832 20.6477 10.7548L20.5029 9.96335C20.4933 9.91831 20.5029 9.87328 20.5319 9.83789L20.8214 9.45183C20.8761 9.38105 20.9759 9.36496 21.0466 9.41965C21.1174 9.47435 21.1335 9.57408 21.0788 9.64486L20.8311 9.97623L20.963 10.7001C20.9791 10.7869 20.9212 10.8706 20.8343 10.8867C20.8247 10.8867 20.815 10.8867 20.8054 10.8867Z" fill="black"/>
<path d="M18.1127 11.1603C18.0355 11.1603 17.9679 11.1056 17.955 11.0252L17.8263 10.2305C17.8199 10.1823 17.8328 10.1308 17.8682 10.0954L18.2993 9.64177C18.3604 9.57742 18.4633 9.57421 18.5277 9.63534C18.592 9.69646 18.5952 9.79941 18.5341 9.86375L18.1577 10.2595L18.2735 10.9769C18.2864 11.0637 18.2285 11.1474 18.1416 11.1603C18.132 11.1603 18.1255 11.1603 18.1159 11.1603H18.1127Z" fill="black"/>
<path d="M15.539 11.141C15.539 11.141 17.376 10.118 18.0033 8.74745C18.6339 7.37694 18.6339 6.70135 18.6339 6.70135C18.6339 6.70135 18.9395 7.57641 19.628 7.75978C20.3164 7.94316 20.7411 7.95281 20.7411 7.95281L21.2205 9.19464L20.8312 6.21233C20.8312 6.21233 18.9491 5.28901 18.7014 5.29866C18.4537 5.30831 15.3524 5.97426 15.1786 6.17051C15.0049 6.36354 14.1073 8.82145 14.1073 8.82145L14.0784 9.9185L15.5357 11.1474L15.539 11.141Z" fill="#E56445"/>
<path d="M12.3636 29.768C11.6848 29.649 11.0221 29.4817 10.3786 29.2694C8.39686 28.6324 6.59525 27.59 5.07032 26.2388C5.84244 24.6238 6.82367 23.1729 7.7856 21.9536C9.72555 19.4989 11.6044 17.9868 11.6044 17.9868L11.7813 18.8008C12.1674 20.5863 12.3604 22.4072 12.3604 24.2345C12.3604 26.0683 12.3604 27.8313 12.3604 29.7648L12.3636 29.768Z" fill="#FCA397"/>
<path d="M18.6177 18.6336C16.7517 18.6336 15.5582 17.4947 15.5453 17.4819C15.4809 17.4207 15.4809 17.3178 15.5453 17.2535C15.6064 17.1891 15.7094 17.1891 15.7737 17.2535C15.8509 17.3275 17.6718 19.0551 20.3807 17.958C20.4611 17.9258 20.5576 17.9644 20.5898 18.0481C20.622 18.1317 20.5833 18.225 20.4997 18.2572C19.8209 18.5307 19.1903 18.6368 18.6209 18.6368L18.6177 18.6336Z" fill="white"/>
</svg>
