<svg width="16" height="16" viewBox="0 0 16 16" fill="none" xmlns="http://www.w3.org/2000/svg">
<g clip-path="url(#clip0_2398_36717)">
<path opacity="0.2" d="M15.9987 11.9404C15.9987 12.0279 15.9961 12.218 15.9907 12.3647C15.9839 12.7106 15.9557 13.0558 15.9064 13.3983C15.8487 13.6985 15.7512 13.9898 15.6166 14.2643C15.3199 14.8491 14.8444 15.3241 14.2593 15.6202C13.9832 15.7552 13.6903 15.8526 13.3884 15.91C13.0485 15.9584 12.7059 15.986 12.3627 15.9928C12.2158 15.998 12.0257 16.0006 11.9391 16.0006L4.06102 15.9994C3.97349 15.9994 3.78353 15.9967 3.63671 15.9914C3.29078 15.9845 2.9456 15.9563 2.60314 15.907C2.30287 15.8493 2.01163 15.7519 1.7371 15.6173C1.15174 15.3208 0.676239 14.8453 0.379765 14.2599C0.245039 13.9838 0.147813 13.6909 0.0906667 13.389C0.0422788 13.0491 0.0146198 12.7066 0.00784314 12.3633C0.00317568 12.2222 0.000561023 12.081 0 11.9398L0.0012549 4.06149C0.0012549 3.97396 0.00392157 3.78384 0.0092549 3.63718C0.016147 3.29125 0.0443311 2.94607 0.0936471 2.60361C0.151334 2.30334 0.248766 2.0121 0.383373 1.73757C0.67991 1.15233 1.1554 0.676951 1.74071 0.380549C2.0168 0.245574 2.30969 0.148084 2.61161 0.0906667C2.95152 0.0422626 3.29406 0.0146035 3.63733 0.00784315C3.78416 0.00266668 3.97427 0 4.06086 0L11.9398 0.00188236C12.0275 0.00188236 12.2174 0.00454901 12.3641 0.00988235C12.71 0.0167768 13.0552 0.0449609 13.3976 0.0942745C13.6979 0.151961 13.9892 0.249393 14.2637 0.384C14.8485 0.680707 15.3235 1.15619 15.6196 1.74133C15.7546 2.01742 15.8521 2.31032 15.9095 2.61224C15.9579 2.95215 15.9855 3.29469 15.9923 3.63796C15.9975 3.78478 16.0002 3.9749 16.0002 4.06149L15.9989 11.9396L15.9987 11.9404Z" fill="#7B61FF"/>
<path d="M6.33268 5.33268V10.666H9.66602V5.33268H6.33268ZM5.99935 4.66602H9.99935C10.0878 4.66602 10.1725 4.70113 10.2351 4.76365C10.2976 4.82616 10.3327 4.91094 10.3327 4.99935V10.9993C10.3327 11.0878 10.2976 11.1725 10.2351 11.2351C10.1725 11.2976 10.0878 11.3327 9.99935 11.3327H5.99935C5.91094 11.3327 5.82616 11.2976 5.76365 11.2351C5.70113 11.1725 5.66602 11.0878 5.66602 10.9993V4.99935C5.66602 4.91094 5.70113 4.82616 5.76365 4.76365C5.82616 4.70113 5.91094 4.66602 5.99935 4.66602ZM7.99935 9.66602C8.08775 9.66602 8.17254 9.70113 8.23505 9.76365C8.29756 9.82616 8.33268 9.91094 8.33268 9.99935C8.33268 10.0878 8.29756 10.1725 8.23505 10.2351C8.17254 10.2976 8.08775 10.3327 7.99935 10.3327C7.91094 10.3327 7.82616 10.2976 7.76365 10.2351C7.70113 10.1725 7.66602 10.0878 7.66602 9.99935C7.66602 9.91094 7.70113 9.82616 7.76365 9.76365C7.82616 9.70113 7.91094 9.66602 7.99935 9.66602Z" fill="#7B61FF"/>
</g>
<defs>
<clipPath id="clip0_2398_36717">
<rect width="16" height="16" fill="white"/>
</clipPath>
</defs>
</svg>
