<svg width="40" height="40" viewBox="0 0 40 40" fill="none" xmlns="http://www.w3.org/2000/svg">
<g clip-path="url(#clip0_2304_38812)">
<mask id="mask0_2304_38812" style="mask-type:luminance" maskUnits="userSpaceOnUse" x="0" y="0" width="40" height="40">
<path d="M0 0H40V40H0V0Z" fill="white"/>
</mask>
<g mask="url(#mask0_2304_38812)">
<path d="M26.6667 16.7117C28.5003 16.9167 30.1941 17.7904 31.424 19.1658C32.6539 20.5411 33.3337 22.3216 33.3334 24.1667V39.1667C33.3334 39.3877 33.2456 39.5996 33.0893 39.7559C32.933 39.9122 32.721 40 32.5 40C32.279 40 32.067 39.9122 31.9108 39.7559C31.7545 39.5996 31.6667 39.3877 31.6667 39.1667V24.1667C31.667 22.7637 31.1618 21.4076 30.2434 20.3469C29.3251 19.2863 28.0553 18.5921 26.6667 18.3917V28.3333C26.6667 29.2174 26.3155 30.0652 25.6904 30.6904C25.0653 31.3155 24.2174 31.6667 23.3334 31.6667C21.845 31.6667 20.53 31.2667 19.4134 30.4667C18.9889 30.1631 18.4802 29.9999 17.9584 30C17.7626 29.9933 17.5698 30.0495 17.4084 30.1605C17.247 30.2716 17.1254 30.4314 17.0617 30.6167C16.8784 31.17 16.9884 31.7117 17.3317 32.0983L23.1234 38.6133C23.196 38.6952 23.2519 38.7906 23.2877 38.894C23.3235 38.9974 23.3386 39.1069 23.3321 39.2162C23.3256 39.3254 23.2976 39.4323 23.2498 39.5308C23.202 39.6293 23.1352 39.7173 23.0534 39.79C22.9715 39.8627 22.8761 39.9185 22.7727 39.9543C22.6693 39.9901 22.5598 40.0052 22.4505 39.9987C22.3413 39.9922 22.2343 39.9642 22.1359 39.9164C22.0374 39.8686 21.9494 39.8019 21.8767 39.72L17.6667 34.9833C17.6118 34.9944 17.556 35 17.5 35H10.8334C9.72829 35 8.66848 34.561 7.88708 33.7796C7.10567 32.9982 6.66669 31.9384 6.66669 30.8333V4.16667C6.66669 3.0616 7.10567 2.00179 7.88708 1.22039C8.66848 0.438987 9.72829 0 10.8334 0L22.5 0C23.6051 0 24.6649 0.438987 25.4463 1.22039C26.2277 2.00179 26.6667 3.0616 26.6667 4.16667V16.7117ZM16.0867 33.205C15.7233 32.7963 15.474 32.299 15.3639 31.7632C15.2539 31.2275 15.2871 30.6722 15.46 30.1533C15.83 29.04 16.81 28.3333 17.9167 28.3333C18.8005 28.3273 19.6637 28.6003 20.3834 29.1133C21.21 29.7033 22.1834 30 23.3334 30C23.7754 30 24.1993 29.8244 24.5119 29.5118C24.8244 29.1993 25 28.7754 25 28.3333V4.16667C25 3.50363 24.7366 2.86774 24.2678 2.3989C23.7989 1.93006 23.1631 1.66667 22.5 1.66667H10.8334C10.1703 1.66667 9.53443 1.93006 9.06559 2.3989C8.59675 2.86774 8.33335 3.50363 8.33335 4.16667V30.8333C8.33335 31.4964 8.59675 32.1323 9.06559 32.6011C9.53443 33.0699 10.1703 33.3333 10.8334 33.3333H16.2L16.0867 33.205ZM14.1667 5C13.9457 5 13.7337 4.9122 13.5774 4.75592C13.4212 4.59964 13.3334 4.38768 13.3334 4.16667C13.3334 3.94565 13.4212 3.73369 13.5774 3.57741C13.7337 3.42113 13.9457 3.33333 14.1667 3.33333H19.1667C19.3877 3.33333 19.5997 3.42113 19.7559 3.57741C19.9122 3.73369 20 3.94565 20 4.16667C20 4.38768 19.9122 4.59964 19.7559 4.75592C19.5997 4.9122 19.3877 5 19.1667 5H14.1667Z" fill="#7B61FF"/>
</g>
</g>
<defs>
<clipPath id="clip0_2304_38812">
<rect width="40" height="40" fill="white"/>
</clipPath>
</defs>
</svg>
