<svg width="24" height="24" viewBox="0 0 24 24" fill="none" xmlns="http://www.w3.org/2000/svg">
<path d="M19.0001 21.9996H5.00006C4.20441 21.9996 3.44135 21.6836 2.87874 21.121C2.31613 20.5583 2.00006 19.7953 2.00006 18.9996V2.99963C2.00006 2.73442 2.10542 2.48006 2.29295 2.29253C2.48049 2.10499 2.73484 1.99963 3.00006 1.99963H17.0001C17.2653 1.99963 17.5196 2.10499 17.7072 2.29253C17.8947 2.48006 18.0001 2.73442 18.0001 2.99963V14.9996H22.0001V18.9996C22.0001 19.7953 21.684 20.5583 21.1214 21.121C20.5588 21.6836 19.7957 21.9996 19.0001 21.9996ZM18.0001 16.9996V18.9996C18.0001 19.2649 18.1054 19.5192 18.293 19.7067C18.4805 19.8943 18.7348 19.9996 19.0001 19.9996C19.2653 19.9996 19.5196 19.8943 19.7072 19.7067C19.8947 19.5192 20.0001 19.2649 20.0001 18.9996V16.9996H18.0001ZM16.0001 19.9996V3.99963H4.00006V18.9996C4.00006 19.2649 4.10542 19.5192 4.29295 19.7067C4.48049 19.8943 4.73484 19.9996 5.00006 19.9996H16.0001ZM6.00006 6.99963H14.0001V8.99963H6.00006V6.99963ZM6.00006 10.9996H14.0001V12.9996H6.00006V10.9996ZM6.00006 14.9996H11.0001V16.9996H6.00006V14.9996Z" fill="white"/>
</svg>
