<svg width="19" height="24" viewBox="0 0 19 24" fill="none" xmlns="http://www.w3.org/2000/svg">
<path d="M0 24C0 21.5752 0.963263 19.2496 2.67788 17.535C4.3925 15.8204 6.71802 14.8571 9.14286 14.8571C11.5677 14.8571 13.8932 15.8204 15.6078 17.535C17.3225 19.2496 18.2857 21.5752 18.2857 24H16C16 22.1814 15.2776 20.4372 13.9916 19.1513C12.7056 17.8653 10.9615 17.1429 9.14286 17.1429C7.32423 17.1429 5.58009 17.8653 4.29413 19.1513C3.00816 20.4372 2.28571 22.1814 2.28571 24H0ZM9.14286 13.7143C5.35429 13.7143 2.28571 10.6457 2.28571 6.85714C2.28571 3.06857 5.35429 0 9.14286 0C12.9314 0 16 3.06857 16 6.85714C16 10.6457 12.9314 13.7143 9.14286 13.7143ZM9.14286 11.4286C11.6686 11.4286 13.7143 9.38286 13.7143 6.85714C13.7143 4.33143 11.6686 2.28571 9.14286 2.28571C6.61714 2.28571 4.57143 4.33143 4.57143 6.85714C4.57143 9.38286 6.61714 11.4286 9.14286 11.4286Z" fill="white"/>
</svg>
