<svg width="15" height="15" viewBox="0 0 15 15" fill="none" xmlns="http://www.w3.org/2000/svg">
<g clip-path="url(#clip0_2398_36034)">
<path d="M14.3741 1.88066C14.3741 1.88066 13.1129 2.62572 12.4116 2.83691C12.0352 2.4041 11.5349 2.09734 10.9785 1.95811C10.4221 1.81888 9.83632 1.8539 9.30044 2.05844C8.76457 2.26297 8.30438 2.62716 7.98226 3.10172C7.66007 3.5763 7.49144 4.13836 7.49913 4.71191V5.33691C6.40076 5.36538 5.31243 5.12179 4.33101 4.62781C3.3496 4.13382 2.50558 3.4048 1.87413 2.50566C1.87413 2.50566 -0.625866 8.13068 4.99913 10.6307C3.71196 11.5044 2.17861 11.9425 0.624133 11.8807C6.24913 15.0057 13.1241 11.8807 13.1241 4.69316C13.1236 4.51906 13.1068 4.3454 13.0741 4.17441C13.712 3.54534 14.3741 1.88066 14.3741 1.88066Z" stroke="#7B61FF" stroke-width="1.5" stroke-linecap="round" stroke-linejoin="round"/>
</g>
<defs>
<clipPath id="clip0_2398_36034">
<rect width="14.88" height="14.88" fill="white" transform="scale(1.00806)"/>
</clipPath>
</defs>
</svg>
