<svg width="61" height="61" viewBox="0 0 61 61" fill="none" xmlns="http://www.w3.org/2000/svg">
<path d="M30.5 0C13.725 0 0 13.725 0 30.5C0 47.275 13.725 61 30.5 61C47.275 61 61 47.275 61 30.5C61 13.725 47.275 0 30.5 0ZM30.5 56.9333C15.9617 56.9333 4.06667 45.0383 4.06667 30.5C4.06667 15.9617 15.9617 4.06667 30.5 4.06667C45.0383 4.06667 56.9333 15.9617 56.9333 30.5C56.9333 45.0383 45.0383 56.9333 30.5 56.9333Z" fill="#EB5757"/>
<path d="M38.6333 36.6H22.3667C21.2483 36.6 20.3333 37.515 20.3333 38.6333C20.3333 39.7517 21.2483 40.6667 22.3667 40.6667H38.6333C39.7517 40.6667 40.6667 39.7517 40.6667 38.6333C40.6667 37.515 39.7517 36.6 38.6333 36.6Z" fill="#EB5757"/>
<path d="M38.6333 23.3833C40.8793 23.3833 42.7 21.5626 42.7 19.3167C42.7 17.0707 40.8793 15.25 38.6333 15.25C36.3874 15.25 34.5667 17.0707 34.5667 19.3167C34.5667 21.5626 36.3874 23.3833 38.6333 23.3833Z" fill="#EB5757"/>
<path d="M22.3667 23.3833C24.6126 23.3833 26.4333 21.5626 26.4333 19.3167C26.4333 17.0707 24.6126 15.25 22.3667 15.25C20.1207 15.25 18.3 17.0707 18.3 19.3167C18.3 21.5626 20.1207 23.3833 22.3667 23.3833Z" fill="#EB5757"/>
</svg>
