<svg width="30" height="30" viewBox="0 0 30 30" fill="none" xmlns="http://www.w3.org/2000/svg">
<path d="M30 15.0016C30 17.2794 29.4917 19.4349 28.5844 21.3684C26.1909 26.4676 21.008 30 15.0016 30C9.83807 30 5.28579 27.3941 2.58659 23.4241C0.955494 21.0241 0 18.1255 0 15.0016C0 6.71743 6.71742 0 15.0016 0C23.2858 0 30 6.71743 30 15.0016Z" fill="#EDDDD6"/>
<path d="M4.6359 23.601C4.6359 23.601 2.18443 22.8643 2.93081 19.2772C3.57424 16.1855 7.62464 15.7126 7.62464 15.7126C7.62464 15.7126 6.35064 13.8016 7.32866 11.4852C8.26807 9.26215 9.57424 8.84071 9.57424 8.84071C9.57424 8.84071 9.46164 7.0391 10.8836 5.62677C12.3056 4.21444 14.2359 5.69433 14.2359 5.69433C14.2359 5.69433 17.9035 4.89647 20.1683 6.84285C22.4332 8.79245 21.5549 12.1447 21.5549 12.1447C21.5549 12.1447 25.1582 13.4445 26.0364 17.2568C26.9147 21.0659 24.6402 23.112 24.6402 23.112L4.6359 23.5978V23.601Z" fill="black"/>
<path d="M28.5845 21.3682C26.1909 26.4674 21.0081 29.9999 15.0016 29.9999C9.83808 29.9999 5.2858 27.394 2.58661 23.424C5.18929 19.9591 8.43541 17.4465 12.444 17.0926C18.6241 16.5489 22.5073 17.7425 26.593 19.9334C27.2172 20.268 27.8928 20.757 28.5845 21.3682Z" fill="#7772D3"/>
<path d="M16.9834 15.0949L17.141 17.5978C17.141 17.5978 16.2434 18.4568 15.0338 18.5437C13.4027 18.6627 12.7496 17.8005 12.7496 17.8005L12.608 14.5029L16.9801 15.0949H16.9834Z" fill="#F27E64"/>
<path d="M16.9833 15.0914C16.9833 15.0914 16.3077 17.5203 14.2745 17.012C12.8074 16.6453 12.6305 14.7697 12.6305 14.7697L16.9833 15.0914Z" fill="black"/>
<path d="M11.5303 8.23575C11.5303 8.23575 10.9126 12.7655 12.489 14.8309C14.0654 16.8963 15.9249 16.1628 16.7356 15.4615C17.8327 14.5189 18 13.2835 18 13.2835C18 13.2835 19.5925 13.5087 20.0461 12.1961C20.5222 10.8159 19.4831 9.7832 18.6916 9.7639C17.9002 9.7446 17.8166 9.89258 17.8166 9.89258L17.9678 8.43843C17.9678 8.43843 12.8879 3.38427 11.5303 8.23575Z" fill="#F27E64"/>
<path d="M12.4053 10.2948C12.4053 10.2948 9.96352 9.40684 9.87988 11.2664C9.78336 13.4186 12.341 13.2964 12.341 13.2964L12.4053 10.2948Z" fill="#F27E64"/>
<path d="M18.2091 10.0148C18.2091 10.0148 17.3952 10.4073 15.5678 9.22014C13.7405 8.03301 14.1652 6.48878 14.1652 6.48878C14.1652 6.48878 11.8456 8.12631 11.4113 10.0341C10.977 11.9451 10.3947 5.65553 13.126 5.62979C15.8574 5.60084 20.0365 7.15151 18.2059 10.0148H18.2091Z" fill="black"/>
<path d="M11.3147 12.3087C11.2632 12.3087 11.2117 12.283 11.1796 12.2379L10.3077 10.9157C10.2595 10.8417 10.2788 10.742 10.3528 10.6937C10.4268 10.6455 10.5265 10.6647 10.5747 10.7387L11.4466 12.061C11.4948 12.135 11.4755 12.2347 11.4015 12.283C11.3758 12.3023 11.3436 12.3087 11.3115 12.3087H11.3147Z" fill="black"/>
<path d="M18.1834 11.9774C18.1415 11.9774 18.0997 11.9613 18.0675 11.9291C18.0064 11.8648 18.0096 11.7618 18.074 11.7007L19.2321 10.5908C19.2965 10.5297 19.3962 10.5329 19.4606 10.5972C19.5217 10.6616 19.5185 10.7645 19.4541 10.8256L18.296 11.9355C18.2638 11.9645 18.2252 11.9806 18.1834 11.9806V11.9774Z" fill="black"/>
<path d="M19.3158 12.1059C19.2837 12.1059 19.2547 12.0962 19.2258 12.0801L18.4794 11.5815C18.4054 11.5332 18.3861 11.4335 18.4343 11.3595C18.4826 11.2855 18.5823 11.2662 18.6563 11.3144L19.4027 11.8131C19.4767 11.8613 19.496 11.9611 19.4477 12.0351C19.4156 12.0801 19.3673 12.1059 19.3126 12.1059H19.3158Z" fill="black"/>
<path d="M10.3657 11.9485C10.2821 11.9485 10.2113 11.8841 10.2048 11.8005C10.1984 11.7104 10.266 11.6364 10.3528 11.6268L11.0317 11.5785C11.1185 11.5689 11.1957 11.6396 11.2054 11.7265C11.2118 11.8166 11.1443 11.8906 11.0574 11.9002L10.3786 11.9485C10.3786 11.9485 10.3721 11.9485 10.3657 11.9485Z" fill="black"/>
<path d="M14.1297 12.8877C14.0557 12.8877 13.9881 12.8362 13.972 12.7622C13.7018 11.5429 14.0653 10.5392 14.0814 10.4973C14.1136 10.4137 14.2037 10.3719 14.2873 10.404C14.3709 10.4362 14.4128 10.5263 14.3806 10.6099C14.3774 10.6196 14.0331 11.5719 14.2841 12.6914C14.3034 12.7783 14.2487 12.8652 14.1618 12.8845C14.149 12.8845 14.1393 12.8877 14.1264 12.8877H14.1297Z" fill="black"/>
<path d="M14.7346 14.1263C14.2392 14.1263 13.8177 13.7531 13.7984 13.737C13.7534 13.6952 13.7341 13.6308 13.7502 13.5697C13.7695 13.5086 13.8177 13.4668 13.8821 13.4571L15.4166 13.2319C15.4746 13.2255 15.5325 13.248 15.5678 13.2963C15.6032 13.3445 15.6097 13.4056 15.5839 13.4603C15.5711 13.4861 15.2654 14.1263 14.7314 14.1263H14.7346ZM14.3582 13.7145C14.4708 13.766 14.5995 13.8046 14.7346 13.8046C14.8826 13.8046 15.0081 13.7113 15.1046 13.6051L14.3582 13.7145Z" fill="black"/>
<path d="M12.534 9.27482C12.489 9.27482 12.4471 9.25873 12.415 9.22334C12.3538 9.159 12.3603 9.05604 12.4246 8.99492C12.756 8.6925 13.319 8.68286 13.3415 8.68286C13.4316 8.68286 13.5024 8.75364 13.5024 8.84372C13.5024 8.9338 13.4316 9.00458 13.3415 9.00458C13.3383 9.00458 12.8782 9.01423 12.6369 9.23299C12.6048 9.26195 12.5662 9.27482 12.5276 9.27482H12.534Z" fill="black"/>
<path d="M16.044 9.42612C16.0021 9.42612 15.9635 9.41003 15.9314 9.38108C15.6997 9.15588 15.2397 9.13336 15.2332 9.13336C15.1432 9.13014 15.0756 9.05293 15.0788 8.96606C15.082 8.87598 15.156 8.81165 15.2461 8.81165C15.2686 8.81165 15.8316 8.83738 16.1533 9.15266C16.2177 9.21379 16.2177 9.31674 16.1533 9.38108C16.1212 9.41325 16.0793 9.42933 16.0375 9.42933L16.044 9.42612Z" fill="black"/>
<path d="M14.8311 18.8201H14.8086C12.7689 18.8104 12.3474 17.6233 12.3313 17.5718C12.3024 17.4882 12.3474 17.3981 12.4343 17.3691C12.5179 17.3402 12.608 17.3852 12.637 17.4689C12.6531 17.5139 13.0166 18.4887 14.8118 18.4951H14.8343C16.4332 18.4951 17.0413 17.6297 17.067 17.5911C17.1185 17.5171 17.2182 17.4978 17.289 17.5493C17.363 17.5976 17.3823 17.6973 17.334 17.7713C17.3051 17.8131 16.6166 18.8169 14.8343 18.8169L14.8311 18.8201Z" fill="#46467F"/>
<path d="M11.4145 10.0342C11.4145 10.0342 9.26543 7.30925 10.8804 5.6299C12.4955 3.95054 17.1443 3.11408 19.3384 6.28298C20.8955 8.53177 18.2091 10.0149 18.2091 10.0149L15.2236 6.95216L14.1684 6.48888L12.4054 6.95216L11.4145 10.0342Z" fill="black"/>
<path d="M15.912 10.9735C15.8187 10.9735 15.7479 10.8963 15.7511 10.8062L15.7736 10.1177L15.3457 9.79921C15.275 9.74452 15.2589 9.6448 15.3136 9.57402C15.3683 9.50324 15.468 9.48715 15.5388 9.54185L16.0342 9.91182C16.076 9.94399 16.1018 9.99225 16.0985 10.0469L16.0728 10.8191C16.0728 10.9059 15.9988 10.9735 15.912 10.9735Z" fill="black"/>
<path d="M13.0809 10.9735C12.9876 10.9735 12.9168 10.8963 12.9201 10.8062L12.9426 10.1177L12.5147 9.79921C12.4439 9.74452 12.4278 9.6448 12.4825 9.57402C12.5372 9.50324 12.6369 9.48715 12.7077 9.54185L13.2032 9.91182C13.245 9.94399 13.2707 9.99225 13.2675 10.0469L13.2418 10.8191C13.2418 10.9059 13.1678 10.9735 13.0809 10.9735Z" fill="black"/>
</svg>
