<svg width="15" height="15" viewBox="0 0 15 15" fill="none" xmlns="http://www.w3.org/2000/svg">
<path d="M7.50094 10.0009C8.88163 10.0009 10.0009 8.88163 10.0009 7.50094C10.0009 6.12023 8.88163 5.00094 7.50094 5.00094C6.12023 5.00094 5.00094 6.12023 5.00094 7.50094C5.00094 8.88163 6.12023 10.0009 7.50094 10.0009Z" stroke="#7B61FF" stroke-width="1.5" stroke-linecap="round" stroke-linejoin="round"/>
<path d="M1.87437 9.99937V4.99937C1.87437 3.27348 3.27348 1.87437 4.99937 1.87437H9.99937C11.7252 1.87437 13.1244 3.27348 13.1244 4.99937V9.99937C13.1244 11.7252 11.7252 13.1244 9.99937 13.1244H4.99937C3.27348 13.1244 1.87437 11.7252 1.87437 9.99937Z" stroke="#7B61FF" stroke-width="1.5"/>
<path d="M10.9371 4.06918L10.9438 4.06179" stroke="#7B61FF" stroke-width="1.5" stroke-linecap="round" stroke-linejoin="round"/>
</svg>
