<svg width="20" height="20" viewBox="0 0 20 20" fill="none" xmlns="http://www.w3.org/2000/svg">
<path d="M0.984161 10C1.76749 5.73333 5.50666 2.5 10 2.5C14.4933 2.5 18.2317 5.73333 19.0158 10C18.2325 14.2667 14.4933 17.5 10 17.5C5.50666 17.5 1.76833 14.2667 0.984161 10ZM10 14.1667C11.1051 14.1667 12.1649 13.7277 12.9463 12.9463C13.7277 12.1649 14.1667 11.1051 14.1667 10C14.1667 8.89493 13.7277 7.83512 12.9463 7.05372C12.1649 6.27232 11.1051 5.83333 10 5.83333C8.89493 5.83333 7.83512 6.27232 7.05372 7.05372C6.27232 7.83512 5.83333 8.89493 5.83333 10C5.83333 11.1051 6.27232 12.1649 7.05372 12.9463C7.83512 13.7277 8.89493 14.1667 10 14.1667ZM10 12.5C9.33695 12.5 8.70107 12.2366 8.23223 11.7678C7.76339 11.2989 7.5 10.663 7.5 10C7.5 9.33696 7.76339 8.70107 8.23223 8.23223C8.70107 7.76339 9.33695 7.5 10 7.5C10.663 7.5 11.2989 7.76339 11.7678 8.23223C12.2366 8.70107 12.5 9.33696 12.5 10C12.5 10.663 12.2366 11.2989 11.7678 11.7678C11.2989 12.2366 10.663 12.5 10 12.5Z" fill="black"/>
</svg>
