<svg width="15" height="6" viewBox="0 0 15 6" fill="none" xmlns="http://www.w3.org/2000/svg">
<path fill-rule="evenodd" clip-rule="evenodd" d="M6.77735 4.69328V2.93248H7.69377C8.06929 2.93248 8.38625 2.8077 8.64463 2.56161L8.70665 2.49922C9.17864 1.9897 9.14763 1.19595 8.64463 0.724557C8.39314 0.474995 8.04862 0.339816 7.69377 0.346748H6.22268V4.69328H6.77735ZM6.77741 2.39867V0.880499H7.70776C7.90761 0.880499 8.09712 0.956754 8.2384 1.0954C8.53818 1.38655 8.54507 1.87181 8.25563 2.17337C8.11435 2.32241 7.9145 2.4056 7.70776 2.39867H6.77741ZM11.294 1.95155C11.0563 1.73319 10.7324 1.62227 10.3224 1.62227C9.79534 1.62227 9.39914 1.81637 9.13731 2.20112L9.62652 2.5096C9.80567 2.24618 10.0503 2.11446 10.3603 2.11446C10.5567 2.11446 10.7462 2.18725 10.8943 2.31896C11.039 2.44375 11.1217 2.62398 11.1217 2.81462V2.94287C10.9081 2.82502 10.6394 2.76263 10.3087 2.76263C9.92281 2.76263 9.61274 2.85275 9.38192 3.03645C9.15109 3.22016 9.03396 3.46279 9.03396 3.77128C9.02706 4.05203 9.14765 4.31893 9.36125 4.49916C9.57829 4.69327 9.85391 4.79032 10.1778 4.79032C10.5602 4.79032 10.8633 4.62048 11.0942 4.2808H11.1183V4.69327H11.6488V2.85968C11.6488 2.47494 11.5317 2.16992 11.294 1.95155ZM9.78854 4.14563C9.67483 4.06244 9.60592 3.92726 9.60592 3.78168C9.60592 3.61878 9.68172 3.4836 9.82989 3.37615C9.9815 3.2687 10.171 3.21324 10.395 3.21324C10.7051 3.20977 10.9463 3.27909 11.1186 3.41774C11.1186 3.65344 11.0256 3.85794 10.8429 4.03125C10.6775 4.19762 10.4536 4.29121 10.2193 4.29121C10.0642 4.29467 9.91259 4.24268 9.78854 4.14563ZM12.8409 6L14.6944 1.71932H14.0915L13.2336 3.85446H13.2233L12.3448 1.71932H11.7419L12.958 4.50263L12.269 6H12.8409Z" fill="#3C4043"/>
<path d="M4.86165 2.55122C4.86165 2.38137 4.84787 2.21153 4.82031 2.04516H2.48104V3.00528H3.82121C3.76608 3.31376 3.58694 3.59106 3.3251 3.76436V4.38827H4.12438C4.59293 3.955 4.86165 3.31376 4.86165 2.55122Z" fill="#808080"/>
<path d="M2.48143 4.9914C3.14979 4.9914 3.7148 4.76956 4.12478 4.38829L3.3255 3.76438C3.10156 3.91689 2.81561 4.00355 2.48143 4.00355C1.83374 4.00355 1.28596 3.56335 1.08958 2.9741H0.266184V3.61881C0.686495 4.46108 1.54434 4.9914 2.48143 4.9914Z" fill="#666666"/>
<path d="M1.08971 2.9741C0.986338 2.66562 0.986338 2.3294 1.08971 2.01745V1.37622H0.266182C-0.0887273 2.07984 -0.0887273 2.91171 0.266182 3.61534L1.08971 2.9741Z" fill="#808080"/>
<path d="M2.48143 0.987999C2.83628 0.981067 3.17736 1.11625 3.4323 1.36234L4.142 0.648318C3.69069 0.22545 3.09812 -0.00678142 2.48143 0.00015085C1.54434 0.00015085 0.686495 0.533936 0.266184 1.37621L1.08958 2.02091C1.28596 1.4282 1.83374 0.987999 2.48143 0.987999Z" fill="#666666"/>
</svg>
