<svg width="23" height="24" viewBox="0 0 23 24" fill="none" xmlns="http://www.w3.org/2000/svg">
<path d="M12.4286 10.4248L9.4301 13.4234L9.10055 13.0938C8.51782 12.5112 7.57448 12.511 6.99171 13.0938C6.40888 13.6766 6.40883 14.6199 6.99171 15.2027L9.06769 17.2787C9.26791 17.4788 9.59244 17.4788 9.79261 17.2787L14.5376 12.5337C15.1204 11.951 15.1204 11.0077 14.5376 10.4248C14.2559 10.1432 13.0115 9.84195 12.4286 10.4248ZM13.8126 11.8087L9.4301 16.1913L7.71663 14.4778C7.5345 14.2956 7.5345 14.0009 7.71663 13.8188C7.8987 13.6368 8.1935 13.6367 8.37563 13.8188L9.06764 14.5108C9.26776 14.7109 9.59244 14.7109 9.79261 14.5108L13.1535 11.1497C13.3357 10.9677 13.6305 10.9675 13.8126 11.1497C13.9006 11.2378 13.9491 11.3548 13.9491 11.4793C13.9491 11.6037 13.9006 11.7207 13.8126 11.8087Z" fill="white"/>
<path d="M21.5293 17.9411C21.8124 17.9411 22.0419 17.7116 22.0419 17.4285C22.0419 17.1454 21.8124 16.9159 21.5293 16.9159C21.2462 16.9159 21.0167 17.1454 21.0167 17.4285C21.0167 17.7116 21.2462 17.9411 21.5293 17.9411Z" fill="white"/>
<path d="M17.4284 22.5545C17.7115 22.5545 17.941 22.325 17.941 22.0419C17.941 21.7588 17.7115 21.5293 17.4284 21.5293C17.1453 21.5293 16.9158 21.7588 16.9158 22.0419C16.9158 22.325 17.1453 22.5545 17.4284 22.5545Z" fill="white"/>
<path d="M5.63864 23.0671C5.92174 23.0671 6.15124 22.8376 6.15124 22.5545C6.15124 22.2714 5.92174 22.0419 5.63864 22.0419C5.35554 22.0419 5.12604 22.2714 5.12604 22.5545C5.12604 22.8376 5.35554 23.0671 5.63864 23.0671Z" fill="white"/>
<path d="M0.512601 16.4033C0.795703 16.4033 1.0252 16.1738 1.0252 15.8907C1.0252 15.6076 0.795703 15.3781 0.512601 15.3781C0.229499 15.3781 0 15.6076 0 15.8907C0 16.1738 0.229499 16.4033 0.512601 16.4033Z" fill="white"/>
<path d="M6.66379 1.53778C6.94689 1.53778 7.17639 1.30828 7.17639 1.02517C7.17639 0.742073 6.94689 0.512573 6.66379 0.512573C6.38068 0.512573 6.15118 0.742073 6.15118 1.02517C6.15118 1.30828 6.38068 1.53778 6.66379 1.53778Z" fill="white"/>
<path d="M0.512601 4.61346C0.795703 4.61346 1.0252 4.38396 1.0252 4.10086C1.0252 3.81776 0.795703 3.58826 0.512601 3.58826C0.229499 3.58826 0 3.81776 0 4.10086C0 4.38396 0.229499 4.61346 0.512601 4.61346Z" fill="white"/>
<path d="M21.5293 5.63861C21.8124 5.63861 22.0419 5.40911 22.0419 5.126C22.0419 4.8429 21.8124 4.6134 21.5293 4.6134C21.2462 4.6134 21.0167 4.8429 21.0167 5.126C21.0167 5.40911 21.2462 5.63861 21.5293 5.63861Z" fill="white"/>
<path d="M11.2772 10.252C11.5604 10.252 11.7899 10.0225 11.7899 9.73941C11.7899 9.45631 11.5604 9.22681 11.2772 9.22681C10.9941 9.22681 10.7646 9.45631 10.7646 9.73941C10.7646 10.0225 10.9941 10.252 11.2772 10.252Z" fill="white"/>
<path d="M19.6661 5.65915C19.6419 5.39947 19.4266 5.19924 19.1658 5.19412L16.8874 5.14911C14.8498 5.10887 13.2847 3.40734 13.1335 3.23742L11.1977 0.713369C10.9971 0.451737 10.5981 0.441741 10.3882 0.708089L8.3992 3.23368C8.26162 3.38899 6.69229 5.10862 4.64183 5.14911L2.36342 5.19412C2.10266 5.1993 1.88732 5.39947 1.86313 5.65915L1.3172 11.5274C1.00852 14.8463 2.49321 18.1236 5.19191 20.0802L10.4638 23.9024C10.6432 24.0325 10.886 24.0326 11.0655 23.9024L16.3375 20.0802C19.036 18.1237 20.5205 14.8464 20.212 11.5274L19.6661 5.65915ZM15.7357 19.2502L10.7646 22.8543L5.79365 19.2502C3.38683 17.5052 2.06268 14.5824 2.338 11.6223L2.84153 6.21009L4.66213 6.17411C7.17003 6.12454 8.98167 4.12601 9.17999 3.89831C9.19496 3.88119 9.08583 4.01857 10.7856 1.86062C12.1747 3.67133 12.3341 3.88063 12.3511 3.90021C12.5496 4.12775 14.3624 6.12469 16.8672 6.17411L18.6878 6.21009L19.1912 11.6222C19.4664 14.5824 18.1423 17.5052 15.7357 19.2502Z" fill="white"/>
<path d="M17.3373 8.16431C17.3131 7.90463 17.0978 7.70446 16.837 7.69933C13.4758 7.6329 11.1844 4.88408 11.1621 4.85696C10.9569 4.60512 10.5721 4.60548 10.3672 4.85696C10.3446 4.88469 8.06766 7.63264 4.69223 7.69933C4.43147 7.70451 4.21613 7.90463 4.19199 8.16431L3.85715 11.7634C3.63156 14.1893 4.71674 16.5847 6.68923 18.0147L10.4638 20.7514C10.6433 20.8816 10.8861 20.8816 11.0656 20.7514L14.8402 18.0147C16.8126 16.5847 17.8978 14.1893 17.6721 11.7634L17.3373 8.16431ZM14.2384 17.1847L10.7647 19.7033L7.29097 17.1847C5.6103 15.9662 4.68572 13.9253 4.87795 11.8584L5.17167 8.70106C7.94295 8.47551 9.9506 6.76071 10.7647 5.93798C11.5787 6.76076 13.5863 8.47551 16.3576 8.70106L16.6513 11.8584C16.8435 13.9253 15.919 15.9662 14.2384 17.1847Z" fill="white"/>
<path d="M6.66379 10.252H9.73939C10.0225 10.252 10.252 10.0225 10.252 9.73941C10.252 9.45635 10.0225 9.22681 9.73939 9.22681H6.66379C6.38068 9.22681 6.15118 9.45635 6.15118 9.73941C6.15118 10.0226 6.38068 10.252 6.66379 10.252Z" fill="white"/>
<path d="M8.71419 11.7899C8.9973 11.7899 9.22679 11.5604 9.22679 11.2772C9.22679 10.9942 8.9973 10.7646 8.71419 10.7646H6.66379C6.38068 10.7646 6.15118 10.9942 6.15118 11.2772C6.15118 11.5604 6.38068 11.7899 6.66379 11.7899H8.71419Z" fill="white"/>
<path d="M2.05038 19.9915C1.20243 19.9915 0.512573 20.6813 0.512573 21.5293C0.512573 22.3772 1.20243 23.0671 2.05038 23.0671C2.89832 23.0671 3.58818 22.3772 3.58818 21.5293C3.58818 20.6813 2.89832 19.9915 2.05038 19.9915ZM2.05038 22.0419C1.76773 22.0419 1.53778 21.8119 1.53778 21.5293C1.53778 21.2466 1.76773 21.0167 2.05038 21.0167C2.33302 21.0167 2.56298 21.2466 2.56298 21.5293C2.56298 21.8119 2.33302 22.0419 2.05038 22.0419Z" fill="white"/>
<path d="M17.4285 4.10081C18.559 4.10081 19.4789 3.18105 19.4789 2.0504C19.4789 0.919811 18.559 0 17.4285 0C16.2979 0 15.3781 0.919811 15.3781 2.0504C15.3781 3.18105 16.2979 4.10081 17.4285 4.10081ZM17.4285 1.0252C17.9938 1.0252 18.4537 1.48516 18.4537 2.0504C18.4537 2.6157 17.9938 3.07561 17.4285 3.07561C16.8632 3.07561 16.4033 2.6157 16.4033 2.0504C16.4033 1.48516 16.8632 1.0252 17.4285 1.0252Z" fill="white"/>
</svg>
