<svg width="8" height="8" viewBox="0 0 8 8" fill="none" xmlns="http://www.w3.org/2000/svg">
<path d="M0.999349 1H6.99935C7.08775 1 7.17254 1.03512 7.23505 1.09763C7.29756 1.16014 7.33268 1.24493 7.33268 1.33333V6.66667C7.33268 6.75507 7.29756 6.83986 7.23505 6.90237C7.17254 6.96488 7.08775 7 6.99935 7H0.999349C0.910943 7 0.826159 6.96488 0.763647 6.90237C0.701135 6.83986 0.666016 6.75507 0.666016 6.66667V1.33333C0.666016 1.24493 0.701135 1.16014 0.763647 1.09763C0.826159 1.03512 0.910943 1 0.999349 1ZM6.66602 2.41267L4.02335 4.77933L1.33268 2.40533V6.33333H6.66602V2.41267ZM1.50302 1.66667L4.01968 3.88733L6.50002 1.66667H1.50302Z" fill="#7B61FF"/>
</svg>
