<svg width="37" height="37" viewBox="0 0 37 37" fill="none" xmlns="http://www.w3.org/2000/svg">
<path opacity="0.4" d="M25.1797 33.9168H11.8187C6.59353 33.9168 3.08331 30.2521 3.08331 24.7968V12.2051C3.08331 6.74975 6.59353 3.0835 11.8187 3.0835H25.1813C30.4064 3.0835 33.9166 6.74975 33.9166 12.2051V24.7968C33.9166 30.2521 30.4064 33.9168 25.1797 33.9168Z" fill="#7B61FF"/>
<path fill-rule="evenodd" clip-rule="evenodd" d="M17.336 13.3741C17.336 15.4862 15.6171 17.2051 13.505 17.2051C11.3914 17.2051 9.67394 15.4862 9.67394 13.3741C9.67394 11.262 11.3914 9.5415 13.505 9.5415C15.6171 9.5415 17.336 11.262 17.336 13.3741ZM29.9089 21.7185C30.2681 22.0669 30.5256 22.4647 30.6952 22.8886C31.2086 24.1713 30.9419 25.713 30.393 26.9833C29.7424 28.4957 28.4968 29.6381 26.9274 30.1376C26.2305 30.3611 25.4998 30.4567 24.7706 30.4567H11.8499C10.5641 30.4567 9.42635 30.1576 8.49364 29.5964C7.90935 29.2449 7.80606 28.4356 8.23927 27.9083C8.96385 27.0296 9.67919 26.1477 10.4007 25.2582C11.7759 23.5562 12.7024 23.0628 13.7322 23.4961C14.15 23.6749 14.5694 23.9447 15.001 24.2283C16.1511 24.9899 17.7498 26.0352 19.8557 24.9005C21.2952 24.1134 22.1308 22.7665 22.8581 21.5941L22.8728 21.5705C22.9217 21.4921 22.9702 21.4136 23.0186 21.3354C23.2659 20.9358 23.5095 20.5422 23.7854 20.1799C24.1277 19.7313 25.398 18.3284 27.0399 19.3274C28.0867 19.9564 28.967 20.8074 29.9089 21.7185Z" fill="#7B61FF"/>
</svg>
