<svg width="38" height="38" viewBox="0 0 38 38" fill="none" xmlns="http://www.w3.org/2000/svg">
<path opacity="0.4" d="M29.7806 14.2833C29.0657 14.2833 28.1188 14.2675 26.9398 14.2675C24.0646 14.2675 21.7004 11.8877 21.7004 8.9855V3.8935C21.7004 3.49291 21.3806 3.16675 20.984 3.16675H12.6091C8.70067 3.16675 5.54166 6.37458 5.54166 10.306V27.3664C5.54166 31.491 8.85117 34.8334 12.9352 34.8334H25.4066C29.3009 34.8334 32.4583 31.6462 32.4583 27.7116V14.9958C32.4583 14.5937 32.1401 14.2691 31.7419 14.2707C31.0724 14.2754 30.2697 14.2833 29.7806 14.2833Z" fill="#7B61FF"/>
<path opacity="0.4" d="M25.4663 4.065C24.9929 3.57259 24.1664 3.91142 24.1664 4.59384V8.76909C24.1664 10.5203 25.6088 11.9611 27.36 11.9611C28.4635 11.9738 29.9962 11.9769 31.2977 11.9738C31.9643 11.9722 32.3031 11.1758 31.8408 10.6944C30.1704 8.9575 27.1795 5.84467 25.4663 4.065Z" fill="#7B61FF"/>
<path fill-rule="evenodd" clip-rule="evenodd" d="M14.2087 18.0304H19.5683C20.219 18.0304 20.7478 17.5032 20.7478 16.8524C20.7478 16.2017 20.219 15.6729 19.5683 15.6729H14.2087C13.5579 15.6729 13.0307 16.2017 13.0307 16.8524C13.0307 17.5032 13.5579 18.0304 14.2087 18.0304ZM14.2088 25.9379H22.8285C23.4792 25.9379 24.0081 25.4107 24.0081 24.7599C24.0081 24.1092 23.4792 23.5803 22.8285 23.5803H14.2088C13.5581 23.5803 13.0308 24.1092 13.0308 24.7599C13.0308 25.4107 13.5581 25.9379 14.2088 25.9379Z" fill="#7B61FF"/>
</svg>
