<svg width="30" height="30" viewBox="0 0 30 30" fill="none" xmlns="http://www.w3.org/2000/svg">
<path d="M30 15.0016C30 18.1898 29.0059 21.1464 27.3072 23.5753C26.371 24.9233 25.2129 26.1105 23.8906 27.0788C23.8842 27.0885 23.8745 27.0917 23.8681 27.0981C23.7812 27.1625 23.6944 27.2268 23.6043 27.2847C21.9764 28.43 20.1105 29.2568 18.0965 29.6783C17.0992 29.8906 16.0633 30 15.0016 30C12.5662 30 10.2692 29.4209 8.23593 28.3882C7.06166 27.7963 5.97748 27.0531 5.0059 26.1845C4.48472 25.7148 3.99249 25.2129 3.53887 24.6756C2.79571 23.7973 2.15228 22.8354 1.62467 21.8027C0.585523 19.7598 0 17.4499 0 15.0016C0 6.71743 6.71743 0 15.0016 0C23.2858 0 30 6.71743 30 15.0016Z" fill="#EDDDD6"/>
<path d="M27.3072 23.5752C26.3646 24.9296 25.2 26.1232 23.8681 27.098C22.1791 28.3398 20.2198 29.2342 18.0965 29.6782C18.1094 26.8953 18.2638 24.6851 18.2638 24.6851C18.2638 24.6851 22.9416 17.942 23.0059 17.9967C23.511 18.4117 25.422 20.0717 27.3072 23.5752Z" fill="#46467F"/>
<path d="M23.8681 27.0979C22.1791 28.3397 20.2198 29.2341 18.0965 29.6781C17.0992 29.8904 16.0633 29.9998 15.0016 29.9998C12.5662 29.9998 10.2692 29.4207 8.23592 28.388C7.06166 27.796 5.97748 27.0529 5.0059 26.1842C4.48472 25.7145 3.99249 25.2126 3.53887 24.6754C4.45576 21.5612 6.46649 19.1933 7.06809 18.5113C7.2193 18.3376 7.39303 18.1799 7.57962 18.0352C7.58284 18.0287 7.58927 18.0287 7.59249 18.0255C8.37426 17.4175 9.41984 17.025 10.4525 16.7676C10.4622 16.7676 10.4686 16.7644 10.4718 16.7644C11.733 16.4555 12.9651 16.3494 13.6697 16.314C14.0461 16.2947 14.2713 16.2947 14.2713 16.2947C14.2713 16.2947 16.208 16.4845 18.2992 16.8126C20.1684 17.1054 22.1598 17.5076 22.9995 17.9901C23.0413 18.0159 23.0767 18.0577 23.1121 18.1124C23.585 18.8781 23.7941 22.6679 23.8681 27.0979Z" fill="#46467F"/>
<path d="M10.4749 9.41644C10.4749 9.41644 10.6004 11.6684 11.6138 11.7714C12.6272 11.8743 14.1168 10.5939 14.1168 10.5939L13.4186 8.06201L10.4749 9.41965V9.41644Z" fill="black"/>
<path d="M13.3994 13.6213L13.4477 17.1538C13.4477 17.1538 14.1265 18.1672 16.2917 18.3248C17.9035 18.4439 18.4665 18.0932 18.4665 18.0932L18.2187 16.3044L17.9742 14.5608L14.0589 13.7565L13.4026 13.6213H13.3994Z" fill="#FCA397"/>
<path d="M14.2713 13.7756C14.2809 13.8721 14.3195 13.9847 14.3774 14.1167C15.1817 15.8732 17.3469 16.2335 18.2348 16.3043L18.0064 14.5638L14.2713 13.7756Z" fill="black"/>
<path d="M18.7237 6.50826C18.7237 6.50826 20.6154 10.919 19.9077 13.3833C19.1999 15.8477 16.9511 15.4455 15.6063 14.9597C14.2615 14.4739 13.6439 13.6439 13.6439 13.6439C13.6439 13.6439 12.3827 14.0621 11.5495 12.8879C10.7162 11.7136 11.2439 10.3721 11.9645 10.0697C12.6851 9.76724 13.5345 10.2916 13.5345 10.2916L12.875 9.00799C12.875 9.00799 15.735 2.53185 18.7237 6.50826Z" fill="#FCA397"/>
<path d="M13.4187 12.2188C13.3865 12.2188 13.3543 12.2092 13.3254 12.1899L11.7232 11.0606C11.6492 11.0092 11.6332 10.9094 11.6846 10.8354C11.7361 10.7614 11.8358 10.7453 11.9098 10.7968L13.512 11.926C13.586 11.9775 13.6021 12.0773 13.5506 12.1512C13.5184 12.1963 13.4701 12.2188 13.4187 12.2188Z" fill="black"/>
<path d="M11.9677 12.2123C11.8969 12.2123 11.8326 12.1641 11.8133 12.0933C11.7908 12.0064 11.8422 11.9196 11.9259 11.897L12.9715 11.6172C13.0551 11.5978 13.1452 11.6461 13.1677 11.7297C13.1902 11.8166 13.1387 11.9035 13.0551 11.926L12.0095 12.2059C12.0095 12.2059 11.9806 12.2123 11.9677 12.2123Z" fill="black"/>
<path d="M15.6706 8.64447C15.6417 8.64447 15.6127 8.63804 15.587 8.62195C15.5098 8.57691 15.4873 8.47718 15.5323 8.39997C15.9409 7.71471 16.6004 7.75331 16.8932 7.86913C16.9768 7.9013 17.0154 7.99461 16.9832 8.07825C16.9511 8.1619 16.8578 8.20051 16.7741 8.16833C16.7484 8.15868 16.1757 7.94956 15.809 8.56726C15.78 8.61873 15.7253 8.64447 15.6706 8.64447Z" fill="black"/>
<path d="M19.2032 8.22283C19.1678 8.22283 19.1324 8.20996 19.1034 8.18744C18.7399 7.89146 18.3635 8.10701 18.3474 8.11666C18.2702 8.1617 18.1737 8.13596 18.1286 8.06197C18.0836 7.98476 18.1061 7.88824 18.1833 7.8432C18.2059 7.83034 18.7656 7.50218 19.3061 7.93971C19.3737 7.99441 19.3866 8.09736 19.3286 8.16492C19.2965 8.20353 19.2514 8.22283 19.2032 8.22283Z" fill="black"/>
<path d="M18.5854 11.9773C18.5854 11.9773 18.5565 11.9773 18.5436 11.9709C18.4568 11.9484 18.4053 11.8583 18.431 11.7746C18.653 10.9446 18.0707 9.69636 18.0643 9.68349C18.0257 9.60306 18.0611 9.50654 18.1415 9.46793C18.2219 9.42933 18.3184 9.46472 18.357 9.54515C18.3828 9.59984 18.9972 10.9124 18.7431 11.8583C18.7238 11.9291 18.6594 11.9773 18.5887 11.9773H18.5854Z" fill="black"/>
<path d="M18.8814 9.91834C18.8106 9.91834 18.7463 9.8733 18.727 9.80252L18.4985 8.99501C18.4728 8.90815 18.5243 8.82129 18.6111 8.79555C18.6948 8.77303 18.7849 8.82129 18.8106 8.90815L19.039 9.71566C19.0648 9.80253 19.0133 9.88939 18.9264 9.91512C18.9103 9.91834 18.8975 9.92156 18.8814 9.92156V9.91834Z" fill="black"/>
<path d="M16.4976 9.98267C16.4268 9.98267 16.3625 9.93763 16.3432 9.86685L16.1147 9.05934C16.089 8.97248 16.1405 8.88562 16.2273 8.85988C16.311 8.83736 16.4011 8.88562 16.4268 8.97248L16.6552 9.77998C16.681 9.86685 16.6295 9.95372 16.5426 9.97946C16.5265 9.98267 16.5137 9.98589 16.4976 9.98589V9.98267Z" fill="black"/>
<path d="M18.9747 7.15146C18.9747 7.15146 18.7141 6.79757 17.8326 6.80079C16.9511 6.804 16.4428 7.42813 16.4428 7.42813C16.4428 7.42813 16.3688 9.02384 15.1784 9.82169C13.9881 10.6195 13.5312 10.2914 13.5312 10.2914L12.6594 9.98899L12.0095 8.72464L14.4996 5.99328L17.4916 4.71606L18.9747 6.36325V7.14824V7.15146Z" fill="black"/>
<path d="M17.6943 13.0036C17.4434 13.0036 16.7871 12.936 16.4653 12.2636C16.4267 12.1832 16.4621 12.0867 16.5393 12.0481C16.6198 12.0095 16.7163 12.0449 16.7549 12.1221C17.0509 12.7398 17.7329 12.6786 17.7619 12.6754C17.8519 12.6658 17.9291 12.7301 17.9388 12.8202C17.9484 12.9071 17.8841 12.9875 17.7972 12.9971C17.7908 12.9971 17.7554 13.0004 17.6975 13.0004L17.6943 13.0036Z" fill="black"/>
<path d="M10.9672 11.4916C10.3495 10.861 9.83798 9.30713 9.96345 8.43206L9.98918 8.25512C9.98918 8.25512 8.96613 8.14252 9.30714 6.77844C9.64816 5.41437 11.3886 3.59346 14.1071 2.9082C16.8256 2.22617 18.9779 6.36343 18.9779 6.36343C18.9779 6.36343 16.7066 6.2444 14.9983 7.53448C13.29 8.82456 12.6659 9.98595 12.6659 9.98595L10.9704 11.4884L10.9672 11.4916Z" fill="#7C6053"/>
<path d="M16.9672 18.4405C14.8246 18.4405 13.2063 17.3628 13.1227 17.3081C13.0487 17.2566 13.0294 17.1569 13.0809 17.0861C13.1323 17.0121 13.2321 16.9928 13.3028 17.0443C13.3254 17.0604 15.7093 18.6432 18.4246 17.9387C18.5114 17.9161 18.5983 17.9676 18.6208 18.0545C18.6433 18.1413 18.5919 18.2282 18.505 18.2507C17.9742 18.3891 17.4562 18.4437 16.9672 18.4437V18.4405Z" fill="#F7734F"/>
<path d="M9.96344 8.59614C9.9377 8.59614 9.90875 8.5897 9.88301 8.57362C9.8058 8.52858 9.78006 8.43206 9.82189 8.35485L10.3334 7.45726C10.3785 7.38005 10.475 7.35432 10.5522 7.39615C10.6294 7.44119 10.6551 7.5377 10.6133 7.61491L10.1018 8.51249C10.0728 8.56397 10.0181 8.59292 9.96344 8.59292V8.59614Z" fill="#FFBF69"/>
<path d="M23.8906 27.0788C23.8906 27.0788 23.8745 27.0917 23.8681 27.0981C23.7812 27.1625 23.6944 27.2268 23.6043 27.2847L22.7807 23.1796C22.7646 23.0928 22.8193 23.0059 22.9062 22.9898C22.993 22.9705 23.0799 23.0284 23.096 23.1153L23.8906 27.0788Z" fill="#F7734F"/>
</svg>
