<svg width="16" height="16" viewBox="0 0 16 16" fill="none" xmlns="http://www.w3.org/2000/svg">
<path d="M7.42903 11.9223H3.11401" stroke="#333333" stroke-width="1.5" stroke-linecap="round" stroke-linejoin="round"/>
<path fill-rule="evenodd" clip-rule="evenodd" d="M10.1365 11.9229C10.1365 13.2841 10.5904 13.7375 11.951 13.7375C13.3116 13.7375 13.7655 13.2841 13.7655 11.9229C13.7655 10.5617 13.3116 10.1084 11.951 10.1084C10.5904 10.1084 10.1365 10.5617 10.1365 11.9229Z" stroke="#333333" stroke-width="1.5" stroke-linecap="round" stroke-linejoin="round"/>
<path d="M9.45093 4.92959H13.7653" stroke="#333333" stroke-width="1.5" stroke-linecap="round" stroke-linejoin="round"/>
<path fill-rule="evenodd" clip-rule="evenodd" d="M6.74342 4.92878C6.74342 3.56819 6.28949 3.11426 4.92889 3.11426C3.5677 3.11426 3.11377 3.56819 3.11377 4.92878C3.11377 6.28998 3.5677 6.74331 4.92889 6.74331C6.28949 6.74331 6.74342 6.28998 6.74342 4.92878Z" stroke="#333333" stroke-width="1.5" stroke-linecap="round" stroke-linejoin="round"/>
</svg>
