<svg width="31" height="30" viewBox="0 0 31 30" fill="none" xmlns="http://www.w3.org/2000/svg">
<path d="M30.0031 14.9999C30.0031 17.9633 29.144 20.7271 27.6576 23.0565C26.5861 24.7361 25.1897 26.1872 23.5553 27.3229C22.6801 27.931 21.7374 28.4491 20.7399 28.8641C18.9735 29.5945 17.0366 29.9999 15.0032 29.9999C14.8873 29.9999 14.7683 29.9999 14.6492 29.9967C11.0392 29.913 7.7445 28.5552 5.19947 26.3545C4.75545 25.9716 4.33718 25.563 3.94143 25.1318C1.49292 22.4645 0 18.906 0 14.9999C0 6.7149 6.71812 0 15.0032 0C23.2882 0 30.0031 6.7149 30.0031 14.9999Z" fill="#EDDDD6"/>
<path d="M23.5553 27.3231C22.6801 27.9312 21.7374 28.4492 20.74 28.8642C18.9735 29.5946 17.0366 30 15.0032 30C14.8873 30 14.7683 30 14.6492 29.9968C11.0392 29.9131 7.74451 28.5554 5.19947 26.3546C4.75546 25.9717 4.33718 25.5631 3.94143 25.132C4.99677 22.8443 7.44528 18.5297 11.2741 17.4936C11.3191 17.4808 11.3642 17.4711 11.406 17.4582C15.8365 16.3386 21.8468 17.3842 23.0437 18.2819C23.536 18.6873 23.6228 22.7124 23.5553 27.3231Z" fill="#7C6053"/>
<path d="M12.3101 9.46274C12.3101 9.46274 9.81658 6.38039 10.8623 5.15452C11.9079 3.92866 13.5263 5.15452 13.5263 5.15452C13.5263 5.15452 13.6164 3.70665 15.2284 3.85787C16.8404 4.00588 17.812 5.72724 17.812 5.72724C17.812 5.72724 19.231 4.30832 20.2026 5.72724C21.1743 7.14615 20.5019 9.46274 20.5019 9.46274C20.5019 9.46274 21.6215 9.29543 21.3223 10.6114C21.0231 11.9273 19.2599 13.2851 19.2599 13.2851L12.3069 9.46274H12.3101Z" fill="black"/>
<path d="M17.7671 14.3179L17.8153 17.796C17.8153 17.796 17.2008 18.8031 15.1706 18.9961C13.6583 19.1409 13.121 18.8031 13.121 18.8031L13.3076 17.0399L13.4942 15.3186L17.1558 14.4595L17.7703 14.3147L17.7671 14.3179Z" fill="#FCA397"/>
<path d="M17.1525 14.4628C17.146 14.5593 17.1107 14.6719 17.056 14.8006C16.2998 16.5477 14.1795 16.9499 13.3044 17.04L13.491 15.3187L17.1525 14.4596V14.4628Z" fill="black"/>
<path d="M12.6062 7.40355C12.6062 7.40355 10.8398 11.789 11.5927 14.1989C12.3456 16.6088 14.5496 16.1648 15.8623 15.6564C17.175 15.1481 17.7671 14.3179 17.7671 14.3179C17.7671 14.3179 19.0187 14.7008 19.8134 13.5264C20.6081 12.3521 20.0611 11.0425 19.3436 10.7594C18.6261 10.4763 17.8024 11.0104 17.8024 11.0104L18.4266 9.73302C18.4266 9.73302 15.4698 3.4203 12.6094 7.40033L12.6062 7.40355Z" fill="#FCA397"/>
<path d="M17.9537 12.9119C17.9055 12.9119 17.8572 12.8894 17.825 12.8476C17.7735 12.7768 17.7864 12.6738 17.8604 12.6223L19.1699 11.6539C19.2407 11.6024 19.3405 11.6153 19.3952 11.686C19.4466 11.7568 19.4338 11.8598 19.3598 11.9113L18.0502 12.8797C18.0213 12.9023 17.9891 12.9119 17.9537 12.9119Z" fill="black"/>
<path d="M19.3822 12.8732C19.3822 12.8732 19.3565 12.8732 19.3436 12.87L18.3076 12.619C18.2207 12.5997 18.1692 12.5096 18.1885 12.4259C18.211 12.3391 18.2947 12.2876 18.3816 12.3069L19.4176 12.5579C19.5045 12.5772 19.556 12.6673 19.5367 12.7509C19.5174 12.8249 19.453 12.8732 19.379 12.8732H19.3822Z" fill="black"/>
<path d="M15.428 9.44327C15.3604 9.44327 15.2993 9.40145 15.2767 9.3371C15.0386 8.67108 14.4466 8.7676 14.4209 8.77082C14.334 8.78691 14.2504 8.72899 14.2343 8.6389C14.2182 8.55203 14.2761 8.46837 14.363 8.45229C14.6654 8.39759 15.3154 8.48446 15.5792 9.2277C15.6081 9.31136 15.5663 9.40466 15.4827 9.43362C15.4633 9.44006 15.4473 9.44327 15.428 9.44327Z" fill="black"/>
<path d="M12.1685 9.10229C12.1235 9.10229 12.0785 9.08298 12.0463 9.04437C11.9884 8.9768 11.998 8.87384 12.0656 8.81593C12.22 8.68401 12.6286 8.33652 12.8153 8.54566C12.8732 8.61323 12.8667 8.71297 12.8024 8.7741C12.7606 8.81271 12.7026 8.82236 12.6512 8.80628C12.6158 8.81593 12.5064 8.86419 12.2747 9.06046C12.2458 9.0862 12.2071 9.09907 12.1718 9.09907L12.1685 9.10229Z" fill="black"/>
<path d="M12.7992 12.4034C12.7509 12.4034 12.7027 12.3808 12.6705 12.339C12.1042 11.599 13.1917 10.4278 13.2368 10.3796C13.2979 10.3152 13.3977 10.312 13.4652 10.3731C13.5296 10.4343 13.5328 10.534 13.4717 10.6016C13.2078 10.8847 12.5933 11.7116 12.9247 12.146C12.9794 12.2168 12.9633 12.3165 12.8957 12.3712C12.8668 12.3937 12.8314 12.4034 12.7992 12.4034Z" fill="black"/>
<path d="M12.5161 10.8525C12.5161 10.8525 12.5 10.8525 12.4935 10.8525C12.4067 10.8396 12.3455 10.7591 12.3584 10.6691L12.4742 9.85181C12.4871 9.76494 12.5708 9.70381 12.6576 9.71668C12.7445 9.72955 12.8056 9.80998 12.7928 9.90007L12.6769 10.7173C12.6641 10.7978 12.5965 10.8557 12.5193 10.8557L12.5161 10.8525Z" fill="black"/>
<path d="M14.9099 10.8559C14.8102 10.8494 14.7426 10.7722 14.749 10.6853L14.8005 9.86166C14.807 9.77479 14.8745 9.70722 14.971 9.71044C15.0611 9.71687 15.1287 9.79409 15.1223 9.88096L15.0708 10.7046C15.0644 10.7883 14.9936 10.8559 14.9099 10.8559Z" fill="black"/>
<path d="M12.2555 8.39129C12.2555 8.39129 12.6223 7.68666 13.491 7.67058C14.3598 7.65449 14.8746 8.25616 14.8746 8.25616C14.8746 8.25616 14.5142 9.72334 15.7047 10.4827C16.8951 11.242 17.8057 11.0135 17.8057 11.0135L18.6583 10.6982L19.2697 9.4402L16.76 6.80507L13.5329 5.15771L11.9209 6.66028L12.262 8.39129H12.2555Z" fill="black"/>
<path d="M13.7356 13.7773C13.697 13.7773 13.6712 13.7773 13.668 13.7773C13.5812 13.7709 13.5136 13.6937 13.52 13.6036C13.5265 13.5167 13.6037 13.4459 13.6938 13.4556C13.7227 13.4556 14.392 13.5006 14.6719 12.8893C14.7073 12.8089 14.8038 12.7735 14.8842 12.8089C14.9647 12.8443 15.0001 12.9408 14.9647 13.0212C14.6494 13.7194 13.9608 13.7773 13.7388 13.7773H13.7356Z" fill="black"/>
<path d="M27.6577 23.0566C26.5863 24.7361 25.1899 26.1872 23.5554 27.323C22.6802 27.9311 21.7375 28.4491 20.7401 28.8642L23.0438 18.2819C23.2015 18.3913 25.6596 20.1255 27.6577 23.0566Z" fill="#7C6053"/>
<path d="M14.6558 19.1763C13.5522 19.1763 12.6899 18.9318 12.6481 18.9189C12.5644 18.8932 12.513 18.8063 12.5387 18.7195C12.5644 18.6326 12.6513 18.5843 12.7382 18.6101C12.7478 18.6101 13.874 18.9286 15.1577 18.8353C16.6314 18.7259 18.0406 17.677 18.0535 17.6673C18.1243 17.6126 18.224 17.6287 18.2787 17.6995C18.3334 17.7703 18.3173 17.87 18.2465 17.9247C18.1854 17.9698 16.7504 19.0412 15.1803 19.157C15.0001 19.1699 14.8263 19.1763 14.6558 19.1763Z" fill="#FFBF69"/>
</svg>
