<svg width="68" height="10" viewBox="0 0 68 10" fill="none" xmlns="http://www.w3.org/2000/svg">
<path d="M5 7.36318L1.9101 9L2.60011 5.7131L0 3.43781L3.5166 3.04312L5 0L6.4834 3.04312L10 3.43781L7.3999 5.7131L8.0899 9L5 7.36318Z" fill="#FBBC05"/>
<path d="M19.5 7.36318L16.7191 9L17.3401 5.7131L15 3.43781L18.1649 3.04312L19.5 0L20.8351 3.04312L24 3.43781L21.6599 5.7131L22.2809 9L19.5 7.36318Z" fill="#FBBC05"/>
<path d="M34 7.36318L30.9101 9L31.6001 5.7131L29 3.43781L32.5166 3.04312L34 0L35.4834 3.04312L39 3.43781L36.3999 5.7131L37.0899 9L34 7.36318Z" fill="#FBBC05"/>
<path d="M48.5 7.36318L45.7191 9L46.3401 5.7131L44 3.43781L47.1649 3.04312L48.5 0L49.8351 3.04312L53 3.43781L50.6599 5.7131L51.2809 9L48.5 7.36318Z" fill="#FBBC05"/>
<g clip-path="url(#clip0_3235_37083)">
<path d="M63.0015 7.60898L60.0628 9.25398L60.719 5.95065L58.2461 3.66398L61.5907 3.26732L63.0015 0.208984L64.4123 3.26732L67.7569 3.66398L65.284 5.95065L65.9403 9.25398L63.0015 7.60898ZM63.0015 6.65398L64.7711 7.6444L64.3757 5.65565L65.8644 4.27857L63.8507 4.03982L63.0015 2.19857L62.1523 4.04023L60.1386 4.27857L61.6273 5.65565L61.2319 7.6444L63.0015 6.65398Z" fill="#FBBC05"/>
</g>
<defs>
<clipPath id="clip0_3235_37083">
<rect width="10" height="10" fill="white" transform="translate(58)"/>
</clipPath>
</defs>
</svg>
