<svg width="22" height="22" viewBox="0 0 22 22" fill="none" xmlns="http://www.w3.org/2000/svg">
<path d="M11 3.4209C10.0737 3.4209 9.3158 4.17879 9.3158 5.10511C9.3158 6.03142 10.0737 6.78932 11 6.78932C11.9263 6.78932 12.6842 6.03142 12.6842 5.10511C12.6842 4.17879 11.9263 3.4209 11 3.4209ZM11 15.2104C10.0737 15.2104 9.3158 15.9683 9.3158 16.8946C9.3158 17.8209 10.0737 18.5788 11 18.5788C11.9263 18.5788 12.6842 17.8209 12.6842 16.8946C12.6842 15.9683 11.9263 15.2104 11 15.2104ZM11 9.31563C10.0737 9.31563 9.3158 10.0735 9.3158 10.9998C9.3158 11.9262 10.0737 12.6841 11 12.6841C11.9263 12.6841 12.6842 11.9262 12.6842 10.9998C12.6842 10.0735 11.9263 9.31563 11 9.31563Z" fill="white"/>
</svg>
