<svg width="20" height="14" viewBox="0 0 20 14" fill="none" xmlns="http://www.w3.org/2000/svg">
<rect x="0.25" y="0.25" width="19.5" height="13.5" rx="0.75" fill="white"/>
<path fill-rule="evenodd" clip-rule="evenodd" d="M9.44551 9.05806V7.34618H10.3365C10.7016 7.34618 11.0097 7.22487 11.2609 6.98561L11.3212 6.92495C11.7801 6.42958 11.7499 5.65789 11.2609 5.19959C11.0164 4.95696 10.6815 4.82554 10.3365 4.83228H8.90625V9.05806H9.44551ZM9.44557 6.82719V5.3512H10.3501C10.5444 5.3512 10.7286 5.42534 10.866 5.56013C11.1574 5.8432 11.1641 6.31498 10.8827 6.60815C10.7454 6.75305 10.5511 6.83393 10.3501 6.82719H9.44557ZM13.8367 6.3925C13.6056 6.1802 13.2907 6.07237 12.8921 6.07237C12.3797 6.07237 11.9945 6.26108 11.7399 6.63513L12.2155 6.93505C12.3897 6.67894 12.6275 6.55088 12.929 6.55088C13.1199 6.55088 13.3041 6.62165 13.4481 6.7497C13.5888 6.87102 13.6692 7.04625 13.6692 7.23159V7.35628C13.4615 7.2417 13.2003 7.18104 12.8787 7.18104C12.5036 7.18104 12.2021 7.26866 11.9777 7.44726C11.7533 7.62586 11.6394 7.86175 11.6394 8.16167C11.6327 8.43463 11.75 8.6941 11.9576 8.86934C12.1686 9.05805 12.4366 9.1524 12.7514 9.1524C13.1232 9.1524 13.418 8.98728 13.6424 8.65704H13.6659V9.05805H14.1817V7.2754C14.1817 6.90135 14.0678 6.6048 13.8367 6.3925ZM12.373 8.52562C12.2625 8.44474 12.1955 8.31332 12.1955 8.17179C12.1955 8.01341 12.2692 7.88198 12.4132 7.77752C12.5606 7.67305 12.7449 7.61913 12.9626 7.61913C13.2641 7.61576 13.4986 7.68316 13.6661 7.81795C13.6661 8.0471 13.5757 8.24592 13.3981 8.41442C13.2373 8.57617 13.0196 8.66715 12.7918 8.66715C12.641 8.67052 12.4936 8.61998 12.373 8.52562ZM15.3406 10.3285L17.1426 6.16672H16.5564L15.7224 8.24254H15.7124L14.8583 6.16672H14.2721L15.4545 8.8727L14.7846 10.3285H15.3406Z" fill="#3C4043"/>
<path d="M7.58401 6.9754C7.58401 6.81027 7.57061 6.64515 7.54382 6.4834H5.26953V7.41684H6.57247C6.51888 7.71676 6.34471 7.98635 6.09015 8.15484V8.76141H6.86722C7.32275 8.34018 7.58401 7.71676 7.58401 6.9754Z" fill="#808080"/>
<path d="M5.26943 9.34797C5.91922 9.34797 6.46853 9.1323 6.86712 8.76161L6.09004 8.15504C5.87233 8.30332 5.59432 8.38756 5.26943 8.38756C4.63973 8.38756 4.10716 7.95959 3.91624 7.38672H3.11572V8.01351C3.52436 8.83238 4.35837 9.34797 5.26943 9.34797Z" fill="#666666"/>
<path d="M3.91637 7.38651C3.81587 7.08659 3.81587 6.75971 3.91637 6.45643V5.83301H3.11572C2.77067 6.51709 2.77067 7.32585 3.11572 8.00993L3.91637 7.38651Z" fill="#808080"/>
<path d="M5.26943 5.45567C5.61442 5.44893 5.94602 5.58035 6.19388 5.81961L6.88387 5.12542C6.44509 4.7143 5.86898 4.48852 5.26943 4.49526C4.35837 4.49526 3.52436 5.01422 3.11572 5.83309L3.91624 6.45988C4.10716 5.88364 4.63973 5.45567 5.26943 5.45567Z" fill="#666666"/>
<rect x="0.25" y="0.25" width="19.5" height="13.5" rx="0.75" stroke="#808080" stroke-width="0.5"/>
</svg>
