<svg width="29" height="31" viewBox="0 0 29 31" fill="none" xmlns="http://www.w3.org/2000/svg">
<path opacity="0.4" d="M16.6842 12.5039V9.90102C16.2113 9.90102 15.819 9.4894 15.819 8.99303V5.89377C15.819 5.48094 15.5076 5.15527 15.1153 5.15527H7.19009C4.69831 5.15527 2.66797 7.2848 2.66797 9.90102V13.0354C2.66797 13.2787 2.76026 13.5087 2.92176 13.6782C3.08327 13.8465 3.30245 13.9434 3.53317 13.9434C4.40991 13.9434 5.079 14.5971 5.079 15.4567C5.079 16.3538 4.39837 17.0681 3.54471 17.079C3.07173 17.079 2.66797 17.43 2.66797 17.9385V21.039C2.66797 23.654 4.69831 25.7726 7.17856 25.7726H15.1153C15.5076 25.7726 15.819 25.4445 15.819 25.0341V22.4179C15.819 21.9107 16.2113 21.5099 16.6842 21.5099V19.1625C16.2113 19.1625 15.819 18.7496 15.819 18.2545V13.4119C15.819 12.9155 16.2113 12.5039 16.6842 12.5039Z" fill="#7B61FF"/>
<path d="M24.1138 15.4574C24.1138 16.3533 24.8059 17.0676 25.6481 17.0797C26.121 17.0797 26.5248 17.4308 26.5248 17.9271V21.0385C26.5248 23.6547 24.506 25.7733 22.0142 25.7733H18.2535C17.8728 25.7733 17.5498 25.4453 17.5498 25.0336V22.4186C17.5498 21.9102 17.1691 21.5106 16.6846 21.5106V19.1632C17.1691 19.1632 17.5498 18.7504 17.5498 18.2552V13.4126C17.5498 12.915 17.1691 12.5046 16.6846 12.5046V9.90053C17.1691 9.90053 17.5498 9.48891 17.5498 8.99254V5.89449C17.5498 5.48166 17.8728 5.15479 18.2535 5.15479H22.0142C24.506 5.15479 26.5248 7.27342 26.5248 9.88842V12.9393C26.5248 13.1814 26.4325 13.4126 26.271 13.5809C26.1095 13.7504 25.8903 13.8472 25.6596 13.8472C24.8059 13.8472 24.1138 14.5748 24.1138 15.4574Z" fill="#7B61FF"/>
</svg>
