<svg width="20" height="16" viewBox="0 0 20 16" fill="none" xmlns="http://www.w3.org/2000/svg">
<path d="M19.7751 1.89937C19.0381 2.22538 18.2565 2.43949 17.4563 2.53461C18.2998 2.03012 18.9311 1.23616 19.2326 0.300674C18.441 0.771788 17.5731 1.10195 16.6685 1.28055C16.0609 0.630434 15.2555 0.199271 14.3776 0.0540959C13.4996 -0.0910793 12.5983 0.0578671 11.8138 0.477779C11.0292 0.897691 10.4054 1.56504 10.0392 2.37608C9.67305 3.18712 9.58511 4.09641 9.78905 4.96259C8.1837 4.88212 6.61321 4.46495 5.17955 3.73814C3.74589 3.01133 2.48111 1.99113 1.46731 0.743792C1.10847 1.36015 0.919889 2.06082 0.920898 2.77403C0.920898 4.17386 1.63336 5.41053 2.71654 6.13458C2.07552 6.1144 1.44862 5.94129 0.888074 5.62968V5.67988C0.888268 6.61216 1.21087 7.5157 1.80119 8.23728C2.39152 8.95886 3.21322 9.45408 4.12699 9.63898C3.53193 9.80024 2.90799 9.82401 2.30238 9.70849C2.56002 10.511 3.06216 11.2128 3.7385 11.7157C4.41485 12.2185 5.23153 12.4973 6.0742 12.513C5.2367 13.1707 4.27776 13.657 3.25222 13.9439C2.22668 14.2308 1.15465 14.3127 0.0974121 14.185C1.94296 15.3719 4.09136 16.002 6.28562 16C13.7124 16 17.7739 9.84751 17.7739 4.51175C17.7739 4.33797 17.769 4.16227 17.7613 3.99043C18.5519 3.41908 19.2341 2.71129 19.7761 1.90034L19.7751 1.89937Z" fill="white"/>
</svg>
