<svg width="23" height="20" viewBox="0 0 23 20" fill="none" xmlns="http://www.w3.org/2000/svg">
<path d="M0.115724 13.2617C0.115108 12.1572 0.396145 11.0707 0.932275 10.105C1.46841 9.13933 2.24192 8.32628 3.17972 7.74273C3.42724 5.81282 4.36952 4.03923 5.83024 2.75388C7.29096 1.46854 9.17001 0.759521 11.1157 0.759521C13.0614 0.759521 14.9405 1.46854 16.4012 2.75388C17.8619 4.03923 18.8042 5.81282 19.0517 7.74273C20.215 8.46641 21.1198 9.53913 21.637 10.8077C22.1543 12.0763 22.2575 13.4759 21.9319 14.8066C21.6063 16.1373 20.8686 17.3311 19.8241 18.2176C18.7796 19.1041 17.4817 19.6378 16.1157 19.7427L6.11572 19.7617C2.75972 19.4877 0.115724 16.6837 0.115724 13.2617ZM15.9637 17.7487C16.9096 17.676 17.8082 17.3062 18.5313 16.6923C19.2545 16.0783 19.765 15.2515 19.9902 14.33C20.2153 13.4085 20.1435 12.4394 19.7849 11.5611C19.4264 10.6829 18.7995 9.94038 17.9937 9.43973L17.1867 8.93673L17.0667 7.99473C16.8798 6.54842 16.1726 5.21966 15.0773 4.25681C13.982 3.29397 12.5736 2.76291 11.1152 2.76291C9.65688 2.76291 8.24845 3.29397 7.15315 4.25681C6.05785 5.21966 5.35065 6.54842 5.16372 7.99473L5.04372 8.93673L4.23872 9.43973C3.43302 9.94032 2.80611 10.6827 2.44752 11.5609C2.08893 12.439 2.01701 13.4081 2.24203 14.3295C2.46705 15.251 2.9775 16.0778 3.70047 16.6919C4.42345 17.3059 5.32197 17.6758 6.26772 17.7487L6.44072 17.7617H15.7907L15.9637 17.7487ZM12.1157 11.7617V15.7617H10.1157V11.7617H7.11572L11.1157 6.76173L15.1157 11.7617H12.1157Z" fill="#7B61FF"/>
</svg>
