<svg width="24" height="24" viewBox="0 0 24 24" fill="none" xmlns="http://www.w3.org/2000/svg">
<path d="M20.8923 10.1277L19.6125 7.036L21.3333 5.00016L19 2.66683L16.9758 4.397L13.8176 3.0985L13.0908 0.333496H10.8111L10.0738 3.13466L6.98798 4.4355L4.99998 2.66683L2.66665 5.00016L4.36181 7.08733L3.10181 10.1872L0.333313 10.8335V13.1668L3.13448 13.931L4.43531 17.0168L2.66665 19.0002L4.99998 21.3335L7.08948 19.6302L10.1298 20.8808L10.8333 23.6668H13.1666L13.8713 20.882L16.9641 19.601C17.4798 19.9697 19 21.3335 19 21.3335L21.3333 19.0002L19.602 16.9585L20.883 13.8645L23.6666 13.1412V10.8335L20.8923 10.1277Z" stroke="black" stroke-width="1.75" stroke-linecap="round" stroke-linejoin="round"/>
</svg>
