<svg width="22" height="18" viewBox="0 0 22 18" fill="none" xmlns="http://www.w3.org/2000/svg">
<path d="M11 4.00981L11.01 3.99881M15 6.00969L15.01 5.99869M7.00001 6.00969L7.01001 5.99869M17 10.0094L17.01 9.99844M5.00001 10.0094L5.01001 9.99844M16 14.0092L16.01 13.9982M6.00001 14.0092L6.01001 13.9982M11 13.9992L12 7.99956M7.50001 17H3.00001C1.69872 15.2704 0.996606 13.1638 1.00001 10.9994C1.00001 5.47672 5.47701 1 11 1C16.523 1 21 5.47672 21 10.9994C21 13.2512 20.256 15.3291 19 17L14.5 16.999" stroke="#7B61FF" stroke-width="1.75" stroke-linecap="round" stroke-linejoin="round"/>
</svg>
