<svg width="26" height="30" viewBox="0 0 26 30" fill="none" xmlns="http://www.w3.org/2000/svg">
<path d="M25.75 9.33301V27.7398C25.7513 27.9258 25.716 28.1103 25.646 28.2827C25.576 28.455 25.4727 28.6119 25.3421 28.7444C25.2115 28.8769 25.056 28.9823 24.8846 29.0547C24.7133 29.1271 24.5293 29.165 24.3432 29.1663H1.65675C1.2839 29.1663 0.926304 29.0183 0.662528 28.7548C0.398752 28.4913 0.250375 28.1339 0.25 27.761V2.23834C0.25 1.47759 0.886083 0.833008 1.6695 0.833008H17.2457L25.75 9.33301ZM22.9167 10.7497H15.8333V3.66634H3.08333V26.333H22.9167V10.7497ZM7.33333 7.91634H11.5833V10.7497H7.33333V7.91634ZM7.33333 13.583H18.6667V16.4163H7.33333V13.583ZM7.33333 19.2497H18.6667V22.083H7.33333V19.2497Z" fill="#7B61FF"/>
</svg>
