<svg width="14" height="14" viewBox="0 0 14 14" fill="none" xmlns="http://www.w3.org/2000/svg">
<path d="M9.90867 0.957039C8.56007 0.876735 7.4134 1.72218 6.76947 1.72218C6.12515 1.72218 5.13888 0.997513 4.07215 1.01698C2.68384 1.03734 1.39559 1.82208 0.691051 3.0702C-0.757989 5.56697 0.308613 9.27049 1.71781 11.304C2.4021 12.3101 3.22681 13.4177 4.31352 13.378C5.34028 13.3378 5.74271 12.7134 6.99073 12.7134C8.23785 12.7134 8.6003 13.378 9.68727 13.3579C10.8144 13.3378 11.519 12.3513 12.2033 11.3443C12.9883 10.1975 13.3097 9.09016 13.33 9.02945C13.3097 9.00935 11.1566 8.18362 11.1367 5.7076C11.1163 3.63439 12.8271 2.64832 12.9077 2.58709C11.9416 1.15851 10.432 0.997384 9.90867 0.957039Z" fill="white"/>
</svg>
