<svg width="17" height="16" viewBox="0 0 17 16" fill="none" xmlns="http://www.w3.org/2000/svg">
<path d="M8.09741 0C10.271 0 10.5422 0.00799995 11.395 0.048C12.247 0.088 12.827 0.2216 13.3374 0.42C13.8654 0.6232 14.3102 0.8984 14.755 1.3424C15.1618 1.74232 15.4766 2.22607 15.6774 2.76C15.875 3.2696 16.0094 3.8504 16.0494 4.7024C16.087 5.5552 16.0974 5.8264 16.0974 8C16.0974 10.1736 16.0894 10.4448 16.0494 11.2976C16.0094 12.1496 15.875 12.7296 15.6774 13.24C15.4772 13.7742 15.1623 14.2581 14.755 14.6576C14.355 15.0643 13.8713 15.379 13.3374 15.58C12.8278 15.7776 12.247 15.912 11.395 15.952C10.5422 15.9896 10.271 16 8.09741 16C5.92381 16 5.65261 15.992 4.79981 15.952C3.94781 15.912 3.36781 15.7776 2.85741 15.58C2.32327 15.3796 1.83943 15.0648 1.43981 14.6576C1.03294 14.2577 0.718157 13.774 0.517412 13.24C0.319012 12.7304 0.185412 12.1496 0.145412 11.2976C0.107812 10.4448 0.0974121 10.1736 0.0974121 8C0.0974121 5.8264 0.105412 5.5552 0.145412 4.7024C0.185412 3.8496 0.319012 3.2704 0.517412 2.76C0.717601 2.22574 1.03246 1.74186 1.43981 1.3424C1.83955 0.935385 2.32335 0.620583 2.85741 0.42C3.36781 0.2216 3.94701 0.088 4.79981 0.048C5.65261 0.0104 5.92381 0 8.09741 0ZM8.09741 4C7.03655 4 6.01913 4.42143 5.26899 5.17157C4.51884 5.92172 4.09741 6.93913 4.09741 8C4.09741 9.06087 4.51884 10.0783 5.26899 10.8284C6.01913 11.5786 7.03655 12 8.09741 12C9.15828 12 10.1757 11.5786 10.9258 10.8284C11.676 10.0783 12.0974 9.06087 12.0974 8C12.0974 6.93913 11.676 5.92172 10.9258 5.17157C10.1757 4.42143 9.15828 4 8.09741 4V4ZM13.2974 3.8C13.2974 3.53478 13.1921 3.28043 13.0045 3.09289C12.817 2.90536 12.5626 2.8 12.2974 2.8C12.0322 2.8 11.7778 2.90536 11.5903 3.09289C11.4028 3.28043 11.2974 3.53478 11.2974 3.8C11.2974 4.06522 11.4028 4.31957 11.5903 4.50711C11.7778 4.69464 12.0322 4.8 12.2974 4.8C12.5626 4.8 12.817 4.69464 13.0045 4.50711C13.1921 4.31957 13.2974 4.06522 13.2974 3.8ZM8.09741 5.6C8.73393 5.6 9.34438 5.85286 9.79447 6.30294C10.2446 6.75303 10.4974 7.36348 10.4974 8C10.4974 8.63652 10.2446 9.24697 9.79447 9.69706C9.34438 10.1471 8.73393 10.4 8.09741 10.4C7.46089 10.4 6.85044 10.1471 6.40036 9.69706C5.95027 9.24697 5.69741 8.63652 5.69741 8C5.69741 7.36348 5.95027 6.75303 6.40036 6.30294C6.85044 5.85286 7.46089 5.6 8.09741 5.6V5.6Z" fill="white"/>
</svg>
