<svg width="15" height="11" viewBox="0 0 15 11" fill="none" xmlns="http://www.w3.org/2000/svg">
<path d="M1.25952 5.93829V5.06093C1.25952 3.26581 1.25952 2.36826 1.82093 1.79075C2.38234 1.21324 3.26619 1.18824 5.03389 1.13825C5.87153 1.11456 6.72718 1.09758 7.45952 1.09758C8.19187 1.09758 9.04753 1.11456 9.88515 1.13825C11.6528 1.18824 12.5367 1.21324 13.0981 1.79075C13.6595 2.36826 13.6595 3.26581 13.6595 5.06093V5.93829C13.6595 7.73338 13.6595 8.63095 13.0981 9.20842C12.5367 9.78595 11.6529 9.81094 9.88521 9.86097C9.04753 9.88465 8.19187 9.90164 7.45952 9.90164C6.72718 9.90164 5.8715 9.88465 5.03383 9.86097C3.26616 9.81094 2.38232 9.78595 1.82092 9.20842C1.25952 8.63095 1.25952 7.73338 1.25952 5.93829Z" stroke="#7B61FF" stroke-width="1.5"/>
</svg>
