<svg width="21" height="16" viewBox="0 0 21 16" fill="none" xmlns="http://www.w3.org/2000/svg">
<path d="M20.3191 2.498C20.7761 4.28 20.7761 8 20.7761 8C20.7761 8 20.7761 11.72 20.3191 13.502C20.0651 14.487 19.3221 15.262 18.3811 15.524C16.6721 16 10.7761 16 10.7761 16C10.7761 16 4.88312 16 3.17112 15.524C2.22612 15.258 1.48412 14.484 1.23312 13.502C0.776123 11.72 0.776123 8 0.776123 8C0.776123 8 0.776123 4.28 1.23312 2.498C1.48712 1.513 2.23012 0.738 3.17112 0.476C4.88312 -1.78814e-07 10.7761 0 10.7761 0C10.7761 0 16.6721 -1.78814e-07 18.3811 0.476C19.3261 0.742 20.0681 1.516 20.3191 2.498ZM8.77612 11.5L14.7761 8L8.77612 4.5V11.5Z" fill="white"/>
</svg>
